<?xml version="1.0" encoding="UTF-8"?>
<svg id="Layer_2" data-name="Layer 2" xmlns="http://www.w3.org/2000/svg" viewBox="0 0 143.76 66.01">
  <defs>
    <style>
      .cls-1 {
        stroke-width: 14.13px;
      }

      .cls-1, .cls-2, .cls-3 {
        fill: #fff;
      }

      .cls-1, .cls-3 {
        stroke: #fff;
        stroke-miterlimit: 10;
      }

      .cls-4 {
        fill: #fc0808;
      }

      .cls-5 {
        fill: none;
      }

      .cls-6 {
        fill: #6b6869;
      }

      .cls-3 {
        stroke-width: 8.48px;
      }

      .cls-7 {
        fill: #070605;
      }

      .cls-8 {
        fill: #0a9533;
      }
    </style>
  </defs>
  <g id="Damage_Health" data-name="Damage/Health">
    <g>
      <rect class="cls-1" x="31.5" y="13.39" width="79.94" height="42.12"/>
      <g id="Pet_health" data-name="Pet health">
        <path class="cls-3" d="M122.86,6.61c-3.43-.24-6.77-.16-9.81,1.04-1.61.64-5.11,3.58-5.97,3.45-.76-.12-3.8-2.78-5.49-3.45-8.32-3.29-18.99.5-23.59,8.09-5.8,9.58-1.93,20.33,4.77,28.21,1.33,1.56,5.88,6.1,7.44,7.44,3.3,2.82,8.13,4.95,11.16,8.18,1.94.3,3.47,2.08,5.64,2.19,0,0,0,0,0,0h0c1.03-.46,3.22-1.14,4.92-2.03,4.11-2.14,9.78-5.54,16.1-11.87.47-.48.92-.98,1.38-1.47.09-.1.19-.21.28-.31.18-.19.35-.39.52-.59.12-.14.24-.27.36-.41.16-.19.32-.37.48-.56.13-.16.26-.31.4-.47.15-.18.29-.35.44-.53.18-.22.36-.44.53-.67.17-.22.35-.44.52-.67.17-.22.33-.44.5-.66.11-.15.22-.3.33-.46.15-.21.29-.41.44-.62.11-.15.21-.3.31-.46.15-.22.3-.45.44-.67.09-.13.18-.27.26-.4.22-.35.44-.71.65-1.06.03-.05.05-.09.08-.14.19-.32.37-.64.54-.97.07-.13.13-.25.2-.38.13-.25.26-.5.38-.76.07-.13.13-.27.19-.41.12-.26.24-.52.35-.78.05-.12.11-.24.16-.36.16-.38.31-.76.45-1.14.83-2.6,1.16-4.86,1.3-6.41,0,0,0-.01,0-.02-.02-1.49-.27-8.94-5.64-14.55-3.74-3.9-8.12-5.02-11.02-5.35ZM113.27,53.63c-5.3,6.38-8.93,2.99-14.38-.87-7.75-5.48-19.3-16.37-19.78-26.4-.7-14.71,20.52-22.23,27.85-8.43,1.29.02,3.3-3.66,4.88-4.79,4.65-3.34,8.97-3.15,14.09-1.17,5.44,2.11,9.47,7.02,9.72,13.01.51,11.98-12.9,23.33-22.37,28.65Z"/>
        <path class="cls-7" d="M122.86,6.61c-3.43-.24-6.77-.16-9.81,1.04-1.61.64-5.11,3.58-5.97,3.45-.76-.12-3.8-2.78-5.49-3.45-8.32-3.29-18.99.5-23.59,8.09-5.8,9.58-1.93,20.33,4.77,28.21,1.33,1.56,5.88,6.1,7.44,7.44,3.3,2.82,8.13,4.95,11.16,8.18,1.94.3,3.47,2.08,5.64,2.19,0,0,0,0,0,0h0c1.03-.46,3.22-1.14,4.92-2.03,4.11-2.14,9.78-5.54,16.1-11.87.47-.48.92-.98,1.38-1.47.09-.1.19-.21.28-.31.18-.19.35-.39.52-.59.12-.14.24-.27.36-.41.16-.19.32-.37.48-.56.13-.16.26-.31.4-.47.15-.18.29-.35.44-.53.18-.22.36-.44.53-.67.17-.22.35-.44.52-.67.17-.22.33-.44.5-.66.11-.15.22-.3.33-.46.15-.21.29-.41.44-.62.11-.15.21-.3.31-.46.15-.22.3-.45.44-.67.09-.13.18-.27.26-.4.22-.35.44-.71.65-1.06.03-.05.05-.09.08-.14.19-.32.37-.64.54-.97.07-.13.13-.25.2-.38.13-.25.26-.5.38-.76.07-.13.13-.27.19-.41.12-.26.24-.52.35-.78.05-.12.11-.24.16-.36.16-.38.31-.76.45-1.14.83-2.6,1.16-4.86,1.3-6.41,0,0,0-.01,0-.02-.02-1.49-.27-8.94-5.64-14.55-3.74-3.9-8.12-5.02-11.02-5.35ZM113.27,53.63c-5.3,6.38-8.93,2.99-14.38-.87-7.75-5.48-19.3-16.37-19.78-26.4-.7-14.71,20.52-22.23,27.85-8.43,1.29.02,3.3-3.66,4.88-4.79,4.65-3.34,8.97-3.15,14.09-1.17,5.44,2.11,9.47,7.02,9.72,13.01.51,11.98-12.9,23.33-22.37,28.65Z"/>
        <path class="cls-4" d="M135.64,24.97c-.09-1.18-.37-4.63-2.92-7.96-1.72-2.24-4.09-4-6.8-5.05-5.12-1.99-9.44-2.18-14.09,1.17-1.58,1.14-3.58,4.81-4.88,4.79-7.33-13.8-28.55-6.28-27.85,8.43.48,10.03,12.03,20.92,19.78,26.4,4.81,3.4,8.19,6.43,12.56,2.74,0,0,0,0,0,0,5.42-2.94,14.56-9.52,20.3-18.21,4-6.06,4.08-10.03,3.9-12.32ZM95.51,20.63c-.07-.49-.2-.96-.39-1.4.19.44.32.92.39,1.4ZM94.66,18.38c-.18-.26-.38-.51-.61-.73.23.22.44.47.61.73ZM93.68,17.33c-.26-.2-.54-.37-.86-.51.31.14.6.31.86.51ZM89.27,16.56c1.2-.24,2.22-.19,3.07.08-.85-.27-1.87-.32-3.07-.08-.59.12-1.12.32-1.58.58.46-.26.98-.46,1.58-.58ZM86.58,25.08c-.09-.11-.17-.22-.25-.34.08.12.16.23.25.34ZM95.08,24c-.58,1.33-1.65,2.4-3.19,2.71-.46.09-.9.14-1.31.15.41,0,.85-.06,1.31-.15,1.54-.32,2.61-1.38,3.19-2.71.19-.44.33-.92.41-1.4-.08.49-.22.96-.41,1.4Z"/>
        <path class="cls-5" d="M139.52,26.52c-.14,1.55-.47,3.81-1.3,6.41.75-2.08,1.21-4.22,1.3-6.41Z"/>
        <path class="cls-8" d="M138.22,32.94c-1.94,5.38-5.8,10.38-10.17,14.93.01-.01.03-.02.04-.04,3.87-3.88,7.95-8.06,10.14-14.89Z"/>
        <path class="cls-8" d="M139.52,26.51s0,0,0,0c0,0,0,.01,0,.02,0,0,0,0,0-.01Z"/>
      </g>
      <g id="Pet_Damage" data-name="Pet Damage">
        <g>
          <path class="cls-2" d="M15.94,24.99c-.22-8.72.6-14.19,6.25-15.15.61-.1,2.35-.15,4.81,2.29.8-2.4,2.81-4.13,5.05-4.33,2.98-.27,6.04,2.17,6.49,5.77,1.57-1.78,4.13-2.32,6.25-1.32,2.04.96,3.26,3.14,3.01,5.41,2.5,1.03,3.51,1.66,5.05,3.49,3.85,1.32,1.91,18.15,1.68,18.76l-4.21,17.32h-24.54l-.84-3.49c-1.72-.85-15.99-14.46-17.08-19.73-.67-3.23,1.6-9.7,4.81-10.22,1.2-.2,2.36.47,3.25,1.2Z"/>
          <path class="cls-2" d="M56.45,65H19.68l-1.65-6.82c-3.09-2.65-6.61-6.35-7.51-7.32C2.46,42.29.81,38.2.27,35.59c-.88-4.25.44-10.03,3.22-14.07,1.56-2.27,3.31-3.63,4.93-4.43.21-1.78.55-3.5,1.1-5.11,1.85-5.39,5.89-8.88,11.38-9.81,1.02-.17,2.49-.26,4.23.13,1.84-1.26,3.97-2.05,6.23-2.26,4.02-.36,7.86,1.2,10.65,3.95,2.06-.09,4.16.3,6.1,1.21,3.17,1.49,5.52,4.14,6.69,7.28,1.06.69,2.05,1.51,3.08,2.6,1.19.87,2.39,2.16,3.31,4.1.91,1.91,2.08,5.42,1.78,13.72-.05,1.53-.27,6.26-.87,8.82h.01s-5.65,23.26-5.65,23.26ZM31.92,49.45h12.31l2.73-11.25c.41-2.6.72-8.87.3-11.65l-.34-.41q-.59-.7-2.07-1.31l-4.31-1.78-7.54,8.56-1.18-9.34-1.38,4.17-6.67-6.59c-.08,1.17-.11,2.77-.06,4.95l.42,17-3.36-2.77c3,3.29,6.43,6.66,8.1,7.96l2.79,1.37.26,1.09ZM46.94,38.36h0s0,0,0,0Z"/>
        </g>
        <g>
          <path d="M15.94,24.99c-.22-8.72.6-14.19,6.25-15.15.61-.1,2.35-.15,4.81,2.29.8-2.4,2.81-4.13,5.05-4.33,2.98-.27,6.04,2.17,6.49,5.77,1.57-1.78,4.13-2.32,6.25-1.32,2.04.96,3.26,3.14,3.01,5.41,2.5,1.03,3.51,1.66,5.05,3.49,3.85,1.32,1.91,18.15,1.68,18.76l-4.21,17.32h-24.54l-.84-3.49c-1.72-.85-15.99-14.46-17.08-19.73-.67-3.23,1.6-9.7,4.81-10.22,1.2-.2,2.36.47,3.25,1.2Z"/>
          <path d="M53.3,61h-30.47l-1.23-5.1c-4.7-3.84-16.21-15.28-17.41-21.12-.66-3.21.43-7.83,2.59-10.99,1.82-2.66,3.89-3.49,5.3-3.72.03,0,.06,0,.09-.01.26-5.96,1.85-12.65,9.39-13.93.95-.16,2.5-.19,4.4.68,1.56-1.56,3.57-2.56,5.76-2.76,3.44-.31,6.7,1.4,8.69,4.21,1.97-.48,4.09-.31,6,.58,2.61,1.23,4.42,3.59,5.01,6.32,1.44.74,2.57,1.59,3.84,2.99.8.52,1.66,1.37,2.31,2.76,2.45,5.18,1.2,17.22.63,19.89h.02s-4.91,20.2-4.91,20.2ZM28.77,53.46h18.61l3.52-14.47c.54-2.96.95-11.94,0-14.54l-.24-.08-.67-.8c-1.06-1.26-1.53-1.58-3.61-2.43l-2.62-1.08.31-2.82c.07-.66-.28-1.31-.86-1.59-.61-.29-1.36-.12-1.82.4l-5.52,6.27-1.05-8.28c-.21-1.66-1.55-2.57-2.42-2.49-.63.06-1.46.68-1.82,1.76l-1.91,5.76-4.31-4.27c-.93-.92-1.51-1.16-1.7-1.22-1.77.36-3.19,1.67-2.95,11.31l.2,8.24-6.37-5.24c-.11-.09-.2-.16-.28-.22-.93,1.02-2,4.08-1.69,5.56.68,3.3,12.36,15.24,15.18,17.17l1.45.71.56,2.32ZM26.62,50.36h.02s-.02,0-.02,0Z"/>
        </g>
        <path class="cls-6" d="M15.94,24.99c-.22-8.72.6-14.19,6.25-15.15.61-.1,2.35-.15,4.81,2.29.8-2.4,2.81-4.13,5.05-4.33,2.98-.27,6.04,2.17,6.49,5.77,1.57-1.78,4.13-2.32,6.25-1.32,2.04.96,3.26,3.14,3.01,5.41,2.5,1.03,3.51,1.66,5.05,3.49,3.85,1.32,1.91,18.15,1.68,18.76l-4.21,17.32h-24.54l-.84-3.49c-1.72-.85-15.99-14.46-17.08-19.73-.67-3.23,1.6-9.7,4.81-10.22,1.2-.2,2.36.47,3.25,1.2Z"/>
      </g>
    </g>
  </g>
</svg>