<?xml version="1.0" encoding="UTF-8"?>
<svg id="Layer_2" data-name="Layer 2" xmlns="http://www.w3.org/2000/svg" viewBox="0 0 1920 1104.77">
  <defs>
    <style>
      .cls-1 {
        fill: #4051aa;
      }

      .cls-2 {
        fill: #d5eef8;
      }

      .cls-3 {
        fill: #8cb6e5;
      }

      .cls-4 {
        fill: #5b92cf;
      }

      .cls-5 {
        fill: #739ed6;
      }

      .cls-6 {
        fill: #5261af;
      }
    </style>
  </defs>
  <g id="Arctic">
    <g>
      <path class="cls-4" d="M0,362.81V0h1920v362.81h-270.94l-51.56-29.06c-.27-2.43-2.39-3.86-3.75-5.62-10.43-13.57-24-24.51-35.6-37.09-.78-.9-1.65-1.3-2.84-1.35-5.76-.22-19.2,9.52-24.82,12.12-9.05-3.45-19.27-4.44-27.68-9.31l-14.89-65.27c-1.09-8.47.97-16.93.86-25.25-.17-12.71-9.55-37.81-13.17-51.98,22.5-2.43,45.41.14,68.01-.9,22.73-1.05,43.43-9.26,45.41-35.21,3.55-46.5-61.52-44.45-92.07-39.57-15.51,2.48-19.76,7.76-35.64.43-10.82-4.99-21.69-11.75-32.9-16.79-50.06-22.49-131.35-48.99-180.94-14.68-5.3,3.67-10.29,10.7-17,11.15-8.24.55-25.99-7.48-35-10.09-45.3-13.14-127.32-32.72-160.35,12.54-9.06,12.42-9.05,19.27-11.51,33.49-2.07,11.99-8.5,11.23-19.16,10.92-61.21-1.8-123.61-1.69-184.64,4.66-14.57,1.52-29.22,3.86-43.61,6.55-.36-5.37,0-25.9-2.39-29.01l-35.66-21.61c-22.54,4.52-47.6,5.38-69.79,10.74-13.13,3.17-26.82,11.33-40.27,14.56l-8.95-39.34-19.19-22.06c-13.25-1.68-26.59-.86-39.88-1.37-23.54-.9-54.92-4.67-77.76-2.84-27.95,2.25-58.47,11.66-86.75,14.5-9.23,2.37-63.68,44.66-64.49,48.89-.02,1.84,1.2,3.37,1.69,5.03,2.27,7.78,7.94,14.23,7.49,22.01-5.74,30.82-11.92,61.59-17.8,92.36-22.29,1.75-45.79,3.01-67.84,6.69-6.78,1.13-19.24,1.73-16.34,11.4,1.47,4.91,26.03,16.15,32.14,16.61l45.48,2.8c-2.26,11.54-4.57,23.13-7.1,34.62-18.07,18.82-29.72,43.81-44.03,65.65-20.37,7.88-41.51,14.65-62.3,21.6l-202.5-.94Z"/>
      <path class="cls-2" d="M318.75,498.75c27.01.9,54.77,2.66,81.99,3.79,6.71.28,14.14-.64,20.7-.07,10.5.92,61.37,16.37,70.14,21.73,6.44,3.93,20.06,21.52,26.85,27.99-.09,1.9-.88,2.77-2.58,3.52-3.32,1.47-31.17,7.89-34.43,7.78-5.57-.19-19.67-5.69-26.73-7.09-24.03-4.76-52.73-5.24-77.32-6.12-14.51-.52-29.12-.42-43.63-.89l125.62,17.81c.38.23-.88,1.4-.94,1.87l-89.06,50.16c20.87,4.39,40.01-7.05,58.85-13.34,3.31-1.1,19.48-5.89,21.77-5.88.17,0,1.46,1.03,3.17,1.01,37.78-.57,67.02-8.54,95.27-33.82,1.89-1.69,11.31-8.03,11.31-9.84,0-2.55-9.17-6.56-11.31-7.97-6.21-4.09-12.12-8.74-18.75-12.19.83-6.49,1.95-7.81,8.88-9.4,55.07-.13,110.07.41,165.06-1.81,16.59-.67,36.04-5.42,52.21-.73,10.84,3.15,15.78,24.96,24.15,32.56.05.33-.08.69,0,.94-2.63,2.37-14.46,8.53-15.73,10.54-.67,1.06.03,2.6-.21,3.52-2.49,9.67-4.81,19.57-11.72,27.18l-45.94,26.26c-1.8,2.94,1.94,8.65,1.42,12.18,1.65.74,3.02-.81,3.74-.94,12.47-2.29,24.53-6.14,37-8.42,12.56,8.62,25.64,15.19,39.87,20.6,3.49,3.03,8.89,5.1,13.12,7.5.58-4.82,2.41-18.61-.27-22.22-.27-.37-6.45-4.5-7.51-5.15-8.66-5.26-18.95-8.95-27.84-13.88,7.74-7.54,16.83-13.45,25.03-20.44,15.06-.11,30.25.81,45.28,1.69,18.48,1.07,36.78,1.13,54.71,6.48,3.52,14.2,7.67,43.26,27.18,43.14,7.31-.05,20.6-3.29,27.8-5.56,4.03-1.27,9.92-3.63,13.66-5.54.98-.5,1.78.5,1.34-1.95-15.14-1.25-31.41-4.26-45.33-10.45-5.2-2.31-9.85-5.35-14.66-8.3-1.99-6.92-4.4-14.5-5.62-21.56-.54-3.13-.44-18.35-2.45-19.78-16.95-6.52-33.77-6.01-51.47-6.48-1.49-.04-2.97-.88-4.2-.93-3.08-.13-11.77,3.18-13.12-2.81,1.42-3.96,5.66-6.49,8.93-9.35s12.36-10.83,15.87-11.31c71.88-.3,143.89.11,215.63,1.02,36.06.46,73.58-1.75,109.26,3.71,15.73,2.41,31,7.84,45.94,13.12-2.92,2.6-7.06,4.2-10.61,5.79-6.5,2.91-19.18,8.91-25.71,9.92-18.41,2.83-42.75,1.82-62.12,3.04-20.74,1.3-41.66,2.44-62.34,4.69-4.01.44-24.66,2.55-26.47,4-3.64,2.9-3.49,21.49-.67,25.01,5.37,6.69,17.93,6.22,25.73,5.68,14.08,1.84,28.47.63,42.69.9,24.86.47,49.99,1.62,75.01,1.02,40.98-.97,98.28-8.65,137.3.89-.59,1.84-2.31,1.79-3.74,2.36-19.12,7.58-40.04,16.02-58.47,24.96-8.28,4.02-24.87,12.01-31.87,16.88-.64.44-1.58.83-1.54,1.73,6.28.09,13.82-.33,19.69-2.8,26.07-4.85,51.56-12.4,77.33-18.57l101.74,15.76c11.65,3.95,41.1,10.17,53.01,9.41,2.67-.17,5.21-1.24,7.93-.99-13.76-14.25-35-23.56-53.98-28.98-21.53-6.14-43.62-5.64-65.08-11.33,9.75-2.91,17.4-6.96,27.77-8.32,26.01-3.42,54.62-4.62,80.98-6.68,51.85-4.05,114.16-11.06,165.51-8.48,44.06,2.22,85.11,15.45,131.68,15.04,28.31-.25,53.39-9.63,77.81-24.38,10.98-6.63,23.59-16.98,31.41-27.18.72-.94,1.82-1.19,1.4-2.81-13.49-.56-26.91-2.35-40.31-3.75-8.66-.91-25.6-.88-32.87-3.23-2.17-.7-14.27-11.28-17.25-13.69-1.45-1.17-4.4-2.65-4.26-4.65,4.26-2.97,11.73-5.45,16.57-8.28,6.08-3.55,13.83-8.21,19.07-12.81,2.15-1.88,7.38-8.63,8.89-8.93,32.03,2.3,63.99,4.11,96.1,3.76v178.12c-5.68,1.38-11.37,3.15-16.83,5.2-4.91,1.84-15.95,7.86-20.25,7.98s-4.57-2.64-7.61-4.58c-7.65-4.9-19.79-9.01-28.93-8.65-6.31.25-9.92,4.01-15.46,6.13-10.44,4-23.93,7.3-35.1,8.02-27.3,1.77-43.13-13.36-70.39-11.32-14.66,1.1-27.86,9.29-41.22,10.34-17.24,1.35-41.91,2.07-59.04.94-13.01-.86-22.95-4.62-33.55-11.93-15.5,2.98-35.68.2-50.64,3.69-5.74,1.34-4.71,8.46-13.27,9.22-2.81.25-16.03-.66-18.38-1.4-6.94-2.18-5.8-12.78-17.25-12.74-8.69.03-21.78,3.5-31.09,4.6-8.64,1.02-25.26.69-32.44,3.18-6.43,2.22-7.65,10.59-13.79,13.4l-39.91,3.3c-9.97-.28-28.52-18.46-38.87-21.2-5.72-1.51-23.9,5.72-30.51,7.98-15.89,5.45-31.76,12.9-47.54,18.08-11.71,3.85-13.8,5.53-25.02-.8-16.97-9.58-31.39-23.67-48.35-33.21-1.08,0-.47,19.47-.48,21.57,0,.41-.93,2.53-.94,4.69l-34,1.67c-13.65-6.15-25.84-15.61-39.5-21.33-25.63,6.34-50,20.61-74.84,28.35-18.84,5.87-22.28-.36-37.03-10.36-8.37-5.67-21.85-17.79-29.95-21.62-16.75-7.92-37.52,8.28-53.28,13.02-15.12-6.14-22.38-18.81-40.15-8.32-4.28,2.52-7.69,8.58-11.16,9.55-4.18,1.17-5.37-2.8-7.75-2.83-3.65-.04-16.64,7.71-21.52,9.09-3.87,1.1-5.71,1.33-9.64.16s-17.45-10.48-18.51-10.5c-4.21-.11-11.99,7.65-21.15,5.17-6.09-1.65-10.54-11.14-13.97-12.27-4.09-1.36-11.2-.54-15.05,1.47l.44-9.39c-16.23,2.44-30.62,11.47-45.91,16.92-9.08-.35-20.87-13.91-28.97-13.12-2.77.27-13.24,4.44-15.37,6.27s-2.01,3.24-3.45,4.99c-5.49,6.67-8.69-.52-12.95.11s-13.63,6.96-18.93,8.32c-4.91,1.26-7.16,1.32-12.02-.26-3.3-1.07-17.71-8.86-18.97-8.85-.66,0-7.59,4.13-12.33,4.3-13.6.49-20.75-12.69-27.96-13.13-8.63-.53-29.56,12.57-38.93,15.53-7.24,2.29-9.77,1.34-16.87.03-18.87-3.49-37.56-11.06-56.59-14.23-10.47,3.29-14.58,13.59-27.09,11.65-4.74-.74-11.68-5.53-16.08-5.34-3.47.14-15.41,6.27-20.46,7.7-14.03,3.98-14.61,2.91-26.99-3.51-10.73-5.56-17.74-12.6-30.46-13.6-6.66-.53-12.58.83-18.7.97-13.55.29-42.77-1.19-53.98,4.15-7.19,3.42-15.56,15.95-24.03,16.2-4.92.15-14.76-10.28-18.8-10.9-2.42-.37-4.17,3.18-8.2,3.66-13.96,1.64-29.83-2.34-44.06-.98-18.81-17.6-45.15-6.49-65.63,1.8l-44.17-14.84c-3.06-.37-9.96.66-12.52,2.31-2.83,1.82-3.78,8.4-7.1,8.91-6.4,1-21.51-8.5-28.57-9.43v-178.12c57.34.41,115.21-.78,171.76-10.59,12.99-2.25,29.47-7.91,41.53-9.09,14.79-1.45,36.15,1.48,51.52,1.91,17.99.5,35.97.3,53.94.9Z"/>
      <path class="cls-3" d="M0,738.75c7.36.07,16.74,7.84,23.89,7.56,5.01-.2,12.65-10.26,20.73-11.24,15.16-1.83,33.75,22.17,49.45,13.84,5.87-3.11,14.1-11.89,20.28-13.47,3.62-.92,14.39-.89,18.31-.44,7.12.81,10.76,8,16.69,11.43,10.78,6.24,18.9,1.47,30.19.76,4.92-.31,12.04-.43,16.9-.04,18.09,1.43,43.91,14.27,57.61-5.13,2.48-3.51,3.41-9.76,8.39-11.29,5.56-1.71,23.47-.35,30.56-.38,2.74-.01,5.18-1.06,8.36-.99,21.95.46,32.26,29.37,49.85,36.46,7.79,3.14,23.54,4.82,31.81,3.93,8.72-.93,23.55-16.72,33.2-19.31,5.83-1.56,9.25,2.52,14.63,3.23,18.12,2.39,29.6-16.18,43.56-13.56,13.04,2.45,27.08,10.19,40.83,11.66,15.59,1.67,33.95-11.36,49.14-15.34,11.07-2.9,9.02,3.27,15.99,7.4,4.72,2.8,53.82,12.86,61.45,13.55,8.34.75,13.58.39,21.18-2.97,4.47-1.98,10.91-7.02,15.48-7.96s10.1.19,14.78-.22c27.42-2.41,44.18-25.16,74.26-13.29,7.08,2.79,12.34,8.61,19.23,11.71l66.84,14.8c9.8-.25,21.17-11.19,30.44-12.8,9.26-1.61,15.1,2.35,26.91-2.11,24.9-9.39,34.2-24.95,63.04-7.13,5.57,3.44,11.24,12.17,12.02,12.59,3.64,1.95,10.96,3.33,15.23,5.16,16.15,6.94,22.7,18.57,41.15,10.18,25.45-11.57,34.32-30.41,67.19-29.46,14.06.41,15.99,8.87,26.61,13.7,7.53,3.43,43.42,3.38,51.47.72,1.83-.6,3.29-1.51,4.3-3.2,1.67-2.79.75-9.46,3.68-9.19,2.75.25,10.51,10.26,14.77,12.45,6.1,3.13,14.11,5,20.57,8.49,13.98,7.55,15.44,16.24,33.07,7.84,9.83-4.68,18.31-13.55,27.53-19.34,28-17.56,44.88-14.22,74.05-2.22,3.7,1.52,9.13,5.43,12.47,6.28,3.92,1.01,7.78-.12,11.53.65,2.82.58,6.72,3.95,9.89,5.11,11.91,4.37,19.43-.78,30.63-.63,9.58.13,15.34,6.71,25.99,3.48,10.31-3.12,15.86-13.75,23.85-19.27,2.34-1.62,12.37-6.62,14.86-6.78,6.12-.38,6.56,5.07,9.85,8.95,7.71,9.09,11.82,10.22,23.65,7.75,10.67-2.23,14.42-8.59,22.45-11.3,7.04-2.37,27.85-7.05,34.96-7.27,8.18-.26,9.99,5.23,15.97,9.42,24.78,17.33,46.55,7.75,73.27,2.98,14.98-2.67,30.7-6.96,45.74-7.69,6.14-.3,17.53-.7,23.25.26,6.75,1.14,19.22,9.83,26.78,12.6,30.3,11.08,37.03-.96,62.34-10.17,11.6-4.22,23.3-6.11,34.3.71,8.41,5.22,11.33,13.77,23.23,9,9.28-3.72,18.15-12.11,29.35-10.49v131.25c-3.49.83-6.77,2.82-9.68,4.85-3.83,2.66-16,14.65-18.98,14.83-6.74.41-20.89-15.32-27.53-18.33-13-5.88-31.61,6.64-43.64,10.85-10.16,3.56-25.73,1.75-36.44-.14-12.89-2.28-19.87-8.4-33.76-7.25-25.26,2.1-54.09,14.9-77.47,24.25-13.39-4-24.18-10.49-38.44-11.25-8.24-2.58-18.95-4.27-27.64-3.74-4.49.27-9.21,2.21-13.21,2.72-10.27,1.32-16.34-8.2-28.03-7.42-7.69.51-20.64,9.49-27.24,14.08-1.16.81-2.78.71-2.32,2.79-19.88-13.95-26.64-14.76-49.69-6.56-2.43-1.39-7.96-.35-10.67.11-10.53,1.79-24.6,7.32-34.79,6.44-14.37-1.24-31.38-13.84-44.04-13.11-7.33.42-16.96,4.94-23.28,8.62-2.17,1.27-9,7.14-10.31,7.13-5.37-.02-10.01-10.05-12.53-13.92-9.91-.19-19.82,1.49-29.59,3.1-7.16,1.18-13.09,4.47-20.66,3.27-4.19-.67-9.11-3.79-13.42-4.38-3.41-.47-6.67.89-7.89.85-4.79-.13-11.32-1.88-15.47-1.88h-14.06c-.45,0-1.43-1.02-3.48-.8-1.45.16-8.63,2.43-10.13,3.13-4.62,2.17-9.43,9.72-14.54,9.92-3.56.14-9.6-3.94-12.92-5.87-3.96-2.3-20.31-14.57-22.72-14.81-4.41-.44-18.51,8.6-22.93,11.24-2.17-1.86-7.25.28-9.63,1.15-3.24,1.18-14.23,7.97-15.37,8.04-4.55.26-6.87-10.95-13.02-11.94-2.31-.37-5.94-.21-8.36-.04-11.09.76-26.12,5.79-36.62,5.48-3.14-.09-16.96-6.58-24.44-7.26-2.65-.24-11.59-1.41-11.61,2.7-11.47-1.66-20.59-4.22-31.24,2.04-12.69,7.46-8.83,13.61-25.64,4.69-8.18-4.34-15.04-10.76-23.23-15.07-12.89,3.1-24.79,9.23-37.08,13.97-3.65-3.03-11.05-5.87-15.73-7.23-23.37-6.82-42.76,4.41-66.65-7.41-5.47-2.7-14.67-11.05-19.31-11.63-11.27-1.39-30.83,4.32-41.95,7.79-5.54,1.73-11.33,4.02-16.67,6.3-12.15-3.15-11.55-2.9-23.42,1.42-7.64,2.78-14.96,6.93-22.52,9.83l-17.06-5.91c-18.43-6.76-49.51-.04-65.74-9.26-4.75-2.69-16.05-13.61-19.9-13.85-5.09-.32-26.35,5.19-32.28,7.01-23.89,7.32-34.76,21.22-62.09,17.05-6.48-.99-16.69-5.28-21.88-5.39-7.5-.15-16.16,3.36-23.41,3.77-16.06.89-30.43-14.35-45.93-15.98-22.83,7.22-61.65,3.82-81.92,14.69-2.42,1.3-5.18,4.67-7.17,5.05-5.88,1.11-11.48-4.63-17.09-5.42-4.91-.68-16.56,3.98-21.77,5.9-11.7,4.31-32.13,16.26-43.64,15.48-10.7-.72-23.52-15.98-33.49-21.82-11.26-6.59-16.31-2.48-27.38-1.61-8.03.63-15.74-1.16-23.51-1.01-18.43.37-29.46,1.56-48.59-1.02-7.23-.98-25.46-5.99-30.97-5.49-9.59.87-19.63,16.49-27.39,20.49-6.28,3.24-18.16-2.69-24.42-5.34-12.27-5.21-26.26-14.8-38.24-18.95-2.03-.7-3.96-1.16-6.13-.91v-130.31ZM270.69,740.86c-1.72.45-6.79,4.89-8.64,6.35-6.23,4.96-15.47,16.47-24.18,15.71-5.2-.45-11.21-6.8-17.13-1.71-7.21,6.19,12.7,7.61,15.09,8.43,4.52,1.56,8.41,8.65,12.87,7.41,3.28-.91,14.23-14.48,20.62-16.95,5.24-2.02,42.74-3.84,21.3-14.32-4.7-2.3-15-6.21-19.93-4.92ZM1680.94,764.99c7.44-.3,13.86-4.18,21.35-5.35,8.28-1.3,25.53-1.05,33.25,1.85,6.64,2.5,12.87,12.37,21.39,4.04,8.25-8.06-6.99-17.66-13.86-19.07-12.36-2.53-39.53,7.54-51.51,12.75-3.36,1.46-7.87,3.42-10.62,5.78ZM563.19,843.97c-7.54,1.26-13.35,7.4-19.73,10.27-8.69,3.92-25.46,5.55-34.87,4.51-4.77-.53-23.48-9.26-19.08,4.08.83,2.53,5.44,1.24,7.73,1.63,15.44,2.69,28.44,23.76,43.73,12.59,6.86-5.01,14.57-18.23,20.88-21.31,3.45-1.68,11.02-1.79,9.88-7.57-.9-4.58-4.61-4.88-8.54-4.22ZM1617.19,879.38c1.22,1.23,20.55-5.64,24.18-6.29,5.53-.98,11.98-1.82,17.58-1.26,6.93.69,17.14,9.4,23.34,8.51,1.64-.23,13.52-9.78,16.53-11.67,6.79-4.25,15.68-9.51,23.83-9.73,3.36-.09,16.25,3.09,17.87.81,2.63-3.7-2.28-8.15-5.29-9.84-11.17-6.28-37.78-3.96-49.61.89-2.88,1.18-11.55,6.85-12.72,7.04-4.58.74-15.88-1.59-22.44-.95-7.75.75-29.59,9.71-32.8,16.88-.49,1.09-.86,5.23-.49,5.61Z"/>
      <path class="cls-1" d="M1501.88,435c27.17-.06,54.39.04,81.56,0l-65.97,13.13-.12,1.87c12.48-.4,25.06.5,37.54.03,40.26-1.51,80.48-6.43,120.86-7.58,57.75-1.64,115.8-2.24,173.44-2.81,23.6-.23,47.23.25,70.82.04v75.94c-32.11.34-64.06-1.46-96.1-3.76-1.52.3-6.75,7.05-8.89,8.93-5.24,4.6-12.99,9.25-19.07,12.81-4.84,2.82-12.3,5.3-16.57,8.28-.91.64-1.71.88-1.94,2.24-2.48,15.12-12.52,33.65-13.99,48.38-.92,9.18.68,19.72,0,29.06-46.57.41-87.62-12.82-131.68-15.04-51.35-2.58-113.65,4.42-165.51,8.48l6.78-32.6c4.85-2.03,29.12-2.18,30.56-6.47.82-2.44.34-8.04,1.1-10.62.31-1.05,1.83-2.32,2.33-3.76.83-2.39,5.35-13.18,5.05-14.43-.32-1.36-6.69-4.12-8.32-4.31-5.01-3.39-10.01-6.9-15-10.31-.19-4.2.26-8.49.03-12.69-.07-1.22-.97-2.44-.97-2.78v-21.56c0-1.01,2.04-4.38,1.88-6.09,86.89-1.56,173.44-2.76,260.17-5.62,9.24-.3,18.5.61,27.64-.96l-20.27-3.62-155.51-19.79c-35.43,2.57-71.03,3.61-106.4,5.61l6.56-30Z"/>
      <path class="cls-5" d="M0,718.12c8.54,1.58,19.98,10.88,28.61,10.39,6.28-.36,5.96-12.28,11.36-14.86,15.13,2.25,39.31,16.16,54.04,13.62,8.02-1.38,18.82-6.2,27.69-7.94,4.87-.96,11.79-2.7,16.62-2.17,8.75.95,14.04,12.49,20.82,13.87,5.33,1.08,34.39,1.06,40.04.16,4.82-.76,5.41-5.94,10.36-5.66,4.69.27,13.85,11.63,20.66,11.27,1.47-.08,8-4.61,9.48-5.89,2.88-2.48,8.64-11.42,10.66-12.31,2.36-1.04,18.13-2.07,22.02-2.35,14.91-1.07,46.18-3.11,59.94-.9,4.39.71,19.51,11.22,25.5,13.88,12.25,5.44,14.8,5.63,27.73,1.75,4.1-1.23,15.54-7.07,18.15-7.23,3.38-.21,14.15,6.19,19.11,7.09,8.95,1.63,16.72-11.99,25.82-12.74,19.97,3.04,42.55,13.26,62.11,15.72,18.67,2.34,27.36-11.51,43.28-15.29,15.18-3.6,21.7,16.87,36.47,13.01,3.45-.9,8.59-5.91,10.79-5.72,5.24.45,17.08,11.35,23.56,11.13,13.12-4.52,25.92-9.8,38.92-14.63,5.21-1.94,9.69-5.02,15.71-5.86,9.34-1.3,21.43,10.45,31.55,10.96,5.96-.97,43.72-18.63,45.57-16.8v9.37c5.56-.95,9.17-2.93,14.74-.2,4.46,2.19,8.63,11.13,12.18,12.19,8.1,2.42,15.57-4.87,21.33-4.45,2.08.15,10.58,6.26,13.94,7.63,9.59,3.9,10.92,2.8,20.02-.94,11.05-4.55,14.99-5.3,26.33-8.36,6.59-1.78,19.43-9.5,24.84-8.48,6.54,1.23,21.37,10.7,27.33,10.11,4.4-.44,14.83-6.72,19.6-8.62,7.42-2.96,14.99-5.9,22.64-8.25,15.12,9.57,29.01,21.44,44.27,30.76,27.75,16.94,35.56,5.13,61.93-5.24,14.48-5.7,29.12-11.07,43.87-16.07l38.62,21.26c12.01.93,23.92-.37,35.89-.72-.04-7.36.02-14.74.03-22.11,0-1.21-.98-2.15-.98-2.27,0-2.16.94-4.28.94-4.69,14.58,9.76,28.23,21.19,43.2,30.39,3.84,2.36,13.39,8.75,17.33,8.92,12.35.53,33.46-10.87,45.43-15.38,14.41-5.43,28.89-10.85,43.58-15.53l3.03.74c11.12,7.62,23.01,14.1,34.9,20.41,15.1.69,30.3-2.18,45.38-3.42,2.24-.73,2.55-7.98,2.46-10.2l76.44-10.37c4.42-.66,6.15,6.38,9.31,9.47,4.14,4.05,9.32,4.42,14.99,4.7,12.08.6,13.86-.88,22.78-8.25l49.44-5.87c2.57.24,3.11,3.16,4.69,4.71,5.83,5.74,13.31,8.81,21.53,9.4,15.52,1.12,41.8,1.24,57.21-.05,14.93-1.26,31.85-10.16,45.91-11.28,27.52-2.18,55.13,14.04,83.47,11.28,20.58-2.01,37.48-19.33,59.12-12.23,6.95,2.28,14.12,9.71,21.48,9.46,4.18-.14,15.17-7.12,21.35-8.72,4.41-1.14,8.2-2.19,12.9-1.63v20.62c-11.2-1.62-20.07,6.78-29.35,10.49-11.9,4.76-14.83-3.79-23.23-9-11-6.82-22.7-4.93-34.3-.71-25.31,9.21-32.05,21.25-62.34,10.17-7.56-2.77-20.03-11.46-26.78-12.6-5.72-.97-17.12-.56-23.25-.26-15.04.73-30.76,5.02-45.74,7.69-26.71,4.77-48.48,14.35-73.27-2.98-5.98-4.18-7.79-9.67-15.97-9.42-7.11.22-27.92,4.9-34.96,7.27-8.03,2.71-11.78,9.07-22.45,11.3-11.83,2.47-15.94,1.34-23.65-7.75-3.29-3.88-3.73-9.33-9.85-8.95-2.49.16-12.52,5.16-14.86,6.78-7.99,5.52-13.54,16.15-23.85,19.27-10.65,3.23-16.42-3.35-25.99-3.48-11.2-.15-18.72,5-30.63.63-3.17-1.16-7.07-4.53-9.89-5.11-3.76-.77-7.61.35-11.53-.65-3.34-.86-8.77-4.76-12.47-6.28-29.17-12-46.05-15.35-74.05,2.22-9.23,5.79-17.71,14.66-27.53,19.34-17.63,8.4-19.09-.29-33.07-7.84-6.47-3.49-14.48-5.36-20.57-8.49-4.25-2.19-12.02-12.2-14.77-12.45-2.93-.27-2.01,6.4-3.68,9.19-1.01,1.69-2.47,2.6-4.3,3.2-8.05,2.66-43.94,2.71-51.47-.72-10.62-4.83-12.55-13.3-26.61-13.7-32.87-.95-41.74,17.89-67.19,29.46-18.46,8.39-25-3.24-41.15-10.18-4.27-1.84-11.59-3.21-15.23-5.16-.78-.42-6.45-9.15-12.02-12.59-28.84-17.83-38.14-2.26-63.04,7.13-11.81,4.45-17.65.5-26.91,2.11-9.28,1.61-20.64,12.55-30.44,12.8l-66.84-14.8c-6.89-3.09-12.15-8.92-19.23-11.71-30.08-11.86-46.84,10.88-74.26,13.29-4.68.41-10.33-.69-14.78.22s-11,5.98-15.48,7.96c-7.6,3.36-12.84,3.72-21.18,2.97-7.63-.69-56.73-10.76-61.45-13.55-6.97-4.13-4.93-10.3-15.99-7.4-15.19,3.98-33.55,17.01-49.14,15.34-13.75-1.47-27.79-9.21-40.83-11.66-13.96-2.63-25.44,15.94-43.56,13.56-5.38-.71-8.8-4.79-14.63-3.23-9.64,2.59-24.47,18.37-33.2,19.31-8.27.88-24.02-.79-31.81-3.93-17.58-7.09-27.9-36-49.85-36.46-3.18-.07-5.62.98-8.36.99-7.09.03-24.99-1.33-30.56.38-4.99,1.53-5.92,7.78-8.39,11.29-13.71,19.4-39.52,6.57-57.61,5.13-4.86-.39-11.98-.27-16.9.04-11.29.71-19.41,5.48-30.19-.76-5.93-3.44-9.58-10.62-16.69-11.43-3.91-.45-14.69-.48-18.31.44-6.18,1.58-14.41,10.36-20.28,13.47-15.69,8.33-34.29-15.67-49.45-13.84-8.08.98-15.72,11.04-20.73,11.24-7.15.28-16.53-7.49-23.89-7.56v-20.62ZM1465.31,739.69h-19.22c-2.03,0-10.12,5.02-7.88,8.36,1.71,2.55,13.39.5,16.48-.7,1.25-.49,12.39-6.12,10.62-7.66ZM350.74,751.77c.35.61,11.05,6.5,12.33,6.88,11.14,3.33,15.83-7.47,9.03-11.84-1.88-1.2-8.52-3.47-10.64-3.33s-12.33,5.51-10.72,8.29Z"/>
      <path class="cls-4" d="M0,693.75c7.06.92,22.17,10.43,28.57,9.43,3.31-.52,4.27-7.09,7.1-8.91,2.56-1.65,9.46-2.68,12.52-2.31l44.17,14.84c20.48-8.3,46.82-19.4,65.63-1.8,14.23-1.36,30.1,2.62,44.06.98,4.03-.47,5.78-4.03,8.2-3.66,4.04.62,13.89,11.04,18.8,10.9,8.48-.25,16.84-12.78,24.03-16.2,11.21-5.34,40.43-3.86,53.98-4.15,6.12-.13,12.04-1.49,18.7-.97,12.72,1,19.73,8.04,30.46,13.6,12.38,6.42,12.95,7.49,26.99,3.51,5.05-1.43,16.99-7.55,20.46-7.7,4.4-.18,11.34,4.61,16.08,5.34,12.51,1.94,16.62-8.36,27.09-11.65,19.03,3.17,37.72,10.74,56.59,14.23,7.09,1.31,9.63,2.26,16.87-.03,9.37-2.96,30.3-16.06,38.93-15.53,7.21.44,14.36,13.62,27.96,13.13,4.74-.17,11.67-4.29,12.33-4.3,1.26,0,15.67,7.78,18.97,8.85,4.86,1.58,7.11,1.52,12.02.26,5.3-1.36,14.89-7.72,18.93-8.32,4.25-.64,7.46,6.55,12.95-.11,1.44-1.75,1.27-3.11,3.45-4.99s12.59-6,15.37-6.27c8.1-.79,19.89,12.77,28.97,13.12,15.29-5.45,29.67-14.48,45.91-16.92l-.44,9.39c3.85-2.01,10.96-2.82,15.05-1.47,3.43,1.14,7.88,10.62,13.97,12.27,9.16,2.49,16.94-5.27,21.15-5.17,1.06.03,14.61,9.34,18.51,10.5s5.77.94,9.64-.16c4.88-1.39,17.87-9.13,21.52-9.09,2.38.02,3.57,4,7.75,2.83,3.47-.97,6.88-7.03,11.16-9.55,17.77-10.49,25.03,2.18,40.15,8.32,15.76-4.74,36.54-20.94,53.28-13.02,8.1,3.83,21.58,15.94,29.95,21.62,14.75,10,18.18,16.23,37.03,10.36,24.84-7.74,49.21-22,74.84-28.35,13.66,5.72,25.84,15.17,39.5,21.33l34-1.67c0,.12.98,1.06.98,2.27,0,7.37-.08,14.75-.03,22.11-11.97.36-23.88,1.65-35.89.72l-38.62-21.26c-14.74,5-29.39,10.37-43.87,16.07-26.38,10.38-34.18,22.19-61.93,5.24-15.26-9.32-29.15-21.2-44.27-30.76-7.65,2.35-15.22,5.28-22.64,8.25-4.77,1.9-15.2,8.18-19.6,8.62-5.95.59-20.79-8.87-27.33-10.11-5.41-1.02-18.25,6.7-24.84,8.48-11.34,3.06-15.28,3.81-26.33,8.36-9.1,3.75-10.43,4.85-20.02.94-3.35-1.37-11.86-7.48-13.94-7.63-5.76-.42-13.24,6.87-21.33,4.45-3.54-1.06-7.72-10-12.18-12.19-5.57-2.73-9.17-.76-14.73.2v-9.37c-1.86-1.83-39.61,15.83-45.58,16.8-10.11-.5-22.21-12.26-31.55-10.96-6.02.84-10.5,3.93-15.71,5.86-13,4.83-25.8,10.11-38.92,14.63-6.48.22-18.32-10.68-23.56-11.13-2.2-.19-7.34,4.82-10.79,5.72-14.76,3.85-21.28-16.62-36.47-13.01-15.92,3.78-24.61,17.64-43.28,15.29-19.56-2.46-42.14-12.68-62.11-15.72-9.1.75-16.87,14.37-25.82,12.74-4.96-.9-15.74-7.3-19.11-7.09-2.6.16-14.05,6-18.15,7.23-12.93,3.88-15.48,3.69-27.73-1.75-5.99-2.66-21.1-13.17-25.5-13.88-13.76-2.22-45.03-.17-59.94.9-3.89.28-19.66,1.31-22.02,2.35-2.03.89-7.78,9.83-10.66,12.31-1.48,1.28-8.01,5.81-9.48,5.89-6.82.35-15.97-11.01-20.66-11.27-4.95-.28-5.54,4.9-10.36,5.66-5.65.9-34.72.92-40.04-.16-6.77-1.38-12.07-12.92-20.82-13.87-4.82-.52-11.75,1.22-16.62,2.17-8.87,1.74-19.67,6.56-27.69,7.94-14.73,2.54-38.91-11.37-54.04-13.62-5.39,2.58-5.07,14.51-11.36,14.86-8.63.49-20.07-8.81-28.61-10.39v-24.38Z"/>
      <path class="cls-4" d="M829.69,404.06c13.51.31,29.37.41,42.65,1.89,2.04.23,14.98,2.21,15.48,2.82,2.71,3.28-6.56,4.36-8.92,4.66-17.01,2.21-35.7,3.15-52.96,4.7-23.24,2.09-46.6,3.41-69.84,5.63-21.41,2.05-42.79,4.78-64.22,6.56-.28,2.44,0,1.49,1.37,1.89,17.97,5.3,36.59,9.02,54.87,13.11.17,1.36-2.46,1.69-3.36,1.78-32.75,3.47-74.64,2.68-107.72,1.01-17.39-.88-22.3-4.99-37.06-8.87-12.69-3.34-26.06-.58-38.84-.45-88.26.9-176.63-.19-264.89-.04-71.08.11-142.28.38-213.24.98-27.66.23-55.36-.25-83.01-.04v-20.62c92.57-.46,185.03-2.17,277.5-3.75,131.09-2.24,262.18-5.03,393.32-8.4,52.87-1.36,105.83-4.05,158.87-2.85Z"/>
      <path class="cls-1" d="M296.25,438.75c.38,2.3,2.49,5.65,4.03,7.23,2.37,2.44,7.67,4.33,9.32,8.96,1.4,3.93,3.36,12.13,4.25,16.38.41,1.95.24,3.91.22,5.87-11.04.51-22.21.55-33.27.95l-16.41,1.86c13.57,1.03,27.19.47,40.82.91,3.13.1,6.27.87,9.81.98.82,5.71,4.17,11,3.75,16.88-17.98-.6-35.95-.4-53.94-.9-15.36-.43-36.72-3.36-51.52-1.91-12.06,1.18-28.54,6.84-41.53,9.09-56.55,9.81-114.42,11-171.76,10.59v-75.94c27.65-.22,55.34.27,83.01.04,70.96-.6,142.16-.86,213.24-.98Z"/>
      <path class="cls-4" d="M1920,693.75v24.38c-4.7-.56-8.49.49-12.9,1.63-6.17,1.6-17.17,8.58-21.35,8.72-7.37.25-14.54-7.18-21.48-9.46-21.64-7.11-38.54,10.22-59.12,12.23-28.34,2.76-55.95-13.46-83.47-11.28-14.07,1.11-30.98,10.02-45.91,11.28-15.41,1.3-41.7,1.18-57.21.05-8.23-.59-15.7-3.66-21.53-9.4-1.58-1.55-2.12-4.47-4.69-4.71l-49.44,5.87c-8.91,7.37-10.7,8.85-22.78,8.25-5.67-.28-10.84-.65-14.99-4.7-3.16-3.09-4.89-10.13-9.31-9.47l-76.44,10.37c.09,2.22-.22,9.47-2.46,10.2-15.08,1.24-30.28,4.11-45.38,3.42-11.89-6.31-23.77-12.79-34.9-20.41l-3.03-.74c-14.69,4.68-29.16,10.11-43.58,15.53-11.97,4.51-33.08,15.91-45.43,15.38-3.95-.17-13.49-6.56-17.33-8.92-14.98-9.2-28.62-20.63-43.2-30.39.01-2.1-.6-21.57.48-21.57,16.95,9.55,31.37,23.63,48.35,33.21,11.22,6.33,13.31,4.65,25.02.8,15.78-5.19,31.65-12.64,47.54-18.08,6.61-2.26,24.79-9.5,30.51-7.98,10.35,2.74,28.9,20.92,38.87,21.2l39.91-3.3c6.14-2.8,7.37-11.17,13.79-13.4,7.19-2.49,23.81-2.16,32.44-3.18,9.31-1.1,22.4-4.57,31.09-4.6,11.45-.04,10.31,10.55,17.25,12.74,2.35.74,15.57,1.64,18.38,1.4,8.56-.75,7.54-7.88,13.27-9.22,14.96-3.49,35.13-.72,50.64-3.69,10.6,7.31,20.55,11.07,33.55,11.93,17.13,1.13,41.8.41,59.04-.94,13.37-1.04,26.56-9.24,41.22-10.34,27.26-2.04,43.09,13.1,70.39,11.32,11.17-.72,24.66-4.03,35.1-8.02,5.54-2.12,9.15-5.88,15.46-6.13,9.14-.36,21.27,3.75,28.93,8.65,3.04,1.95,3.25,4.71,7.61,4.58s15.34-6.14,20.25-7.98c5.47-2.05,11.15-3.82,16.83-5.2Z"/>
      <path class="cls-1" d="M1649.06,362.81h270.94v56.25c-114.86-1.67-230.01-.68-345-.94,7.82-8.11,17.03-16.43,22.5-26.25,22.28.31,44.66,1.65,67.07.9,42.66,4.76,84.7-7.57,126.99-11.22l-18.28-1.95c-53.21,2.55-106.45,3.5-159.84,3.84l24.27-13.7,8.54-6.93h2.81Z"/>
      <path class="cls-5" d="M720,891.56c-4.09,1.57-11.48,4.84-15.47,4.76-7.24-.14-15.41-7.56-22.43-6.6-17.86,6.95-35.71,14.67-54.2,19.9-15.65,4.43-17.68,3.29-32.56-2.62-11.85-4.71-25.18-14.04-38.05-14.53-11.82-.44-24.83,22.53-36.03,17.35-1.05-.48-2.03-2.32-3.44-3.11-5.51-3.11-14.15-6.7-20.49-6.53-6.29.17-13.36,6.07-18.96,7.1-9.82,1.81-30.61-13.14-40.99-16.7-13-4.45-24.32-4.96-37.3-.66-8.86,2.94-23.96,12.74-31.26,13.74-16.61,2.28-32.67-2.08-48.45-6.28-13.93,5.66-27.84,11.47-41.63,17.45-5.4,2.34-12.32,7.18-17.6,8.65-5.55,1.54-24.48,2.93-29.62,1.4-3.79-1.13-16.74-10.23-21.84-12.85-17.18-8.85-43.38-23.03-62.03-25.15-15.65-1.78-31.88-1.66-47.6-1.67l-37.79,21.35c-8.67.91-21.47-14.02-28.97-14.1-9.64-.1-14.51,11.92-18.02,12.97-5.25,1.57-9.97-2.49-15.28-1.68v-34.69c2.16-.25,4.1.2,6.13.91,11.98,4.15,25.97,13.74,38.24,18.95,6.26,2.66,18.14,8.58,24.42,5.34,7.76-4,17.8-19.62,27.39-20.49,5.51-.5,23.74,4.51,30.97,5.49,19.12,2.58,30.15,1.4,48.59,1.02,7.77-.16,15.48,1.63,23.51,1.01,11.07-.87,16.12-4.98,27.38,1.61,9.96,5.84,22.79,21.09,33.49,21.82,11.52.78,31.94-11.17,43.64-15.48,5.21-1.92,16.87-6.59,21.77-5.9,5.61.78,11.21,6.53,17.09,5.42,1.99-.38,4.75-3.75,7.17-5.05,20.27-10.87,59.08-7.47,81.92-14.69,15.5,1.63,29.87,16.87,45.93,15.98,7.25-.4,15.91-3.92,23.41-3.77,5.19.11,15.4,4.4,21.88,5.39,27.33,4.17,38.2-9.73,62.09-17.05,5.93-1.82,27.19-7.33,32.28-7.01,3.85.24,15.15,11.16,19.9,13.85,16.23,9.22,47.31,2.5,65.74,9.26l17.06,5.91ZM636.27,885.27c-2.55-3.12-12.59-7.91-16.78-7.57-1.63.13-21.48,6.78-23.29,7.72-7.44,3.89-3.44,9.78,2.86,12.24,9.38,3.66,22.4,4.57,31.9.96,4.6-1.75,8.63-9.28,5.31-13.34ZM235.31,907.5c2.19-2.13-9.2-10.71-11.2-11.76-4.48-2.37-15.89-4.85-15.06,2.83.39,3.62,11.75,6.6,15.16,7.38,1.57.36,10.59,2.04,11.1,1.55Z"/>
      <path class="cls-1" d="M202.5,363.75c-10.85,3.63-21.77,7.3-32.81,10.32-.25,1.56,2.27,1.01,3.31.97,4.48-.15,9.92-.64,14.5-.98-.34,2.79,6.31,3.67,8.43,4.22,22.11,5.81,44.36,11.14,66.47,16.97l3.31,2.32,11.79,17.74c-92.47,1.58-184.93,3.29-277.5,3.75v-56.25l202.5.94Z"/>
      <path class="cls-4" d="M1575,418.12c114.99.26,230.14-.73,345,.94v20.62c-23.59.22-47.22-.27-70.82-.04-57.64.57-115.69,1.18-173.44,2.81-40.38,1.14-80.6,6.06-120.86,7.58-12.47.47-25.05-.43-37.54-.03l.12-1.87,65.97-13.13c-27.17.03-54.39-.07-81.56,0-23.11.05-46.27-.1-69.38,0-2.04-1.62-1.57-4.79-4.69-4.69-.46-10.76-17.69-9.38-24.38-15-.54-2.2,1.22-2.13,2.77-2.39,5.97-.97,17.31,2.44,24.08,3.19,45.84,5.04,98.04,1.9,144.71,2.01Z"/>
      <path class="cls-5" d="M1920,870v34.69c-10.37,2.77-8.43,10.17-20.32,5.79-17.38-6.4-29.96-20.31-50.22-17.74-15.72,2-23.32,12.09-40.59,11.05-29.04-1.75-60.1-11.06-89.03-15.11-11.6,1.3-27.92,14.32-39.12,12.96-2.86-.35-5.52-1.77-8.22-2.58,23.37-9.36,52.21-22.15,77.47-24.25,13.89-1.16,20.87,4.96,33.76,7.25,10.71,1.9,26.28,3.7,36.44.14,12.03-4.21,30.64-16.72,43.64-10.85,6.64,3,20.79,18.74,27.53,18.33,2.97-.18,15.15-12.17,18.98-14.83,2.91-2.03,6.19-4.02,9.68-4.85Z"/>
      <path class="cls-3" d="M141.56,1008.75c.82,5.67.63,12.93.94,18.75l-69.13,25.09c-14.57,1.57-31.31-1.38-45.61.33-8.99,1.08-18.82,8.85-27.76,11.15v-20.62c4.65-1.07,8.96-5.69,13.65-6.51,19.18-3.36,41.01-2.21,60.46-5.16l65.58-27.7c1.07,1.75,1.56,2.55,1.87,4.69Z"/>
      <path class="cls-6" d="M142.5,1027.5c.01.22,1.01,1.51,1.05,3.21.03,1.33-.55,6.18-1.27,6.88-.57.56-12.7,5.04-14.78,5.84-21.06,8.16-43.96,14.46-65.62,21.56-.97-1.57-2.54-1.76-4.2-1.9-14.92-1.19-25.08.3-38.91,5.2-6.34,2.25-12.55,5.41-18.77,7.95v-12.19c8.94-2.3,18.77-10.07,27.76-11.15,14.3-1.71,31.04,1.25,45.61-.33l69.13-25.09Z"/>
      <path class="cls-3" d="M1920,1045.31v19.69l-17.73,8.99-27.27,25.7c-8.93,1.42-18.15,4.24-27.18,3.29,8.03-7.72,16.14-19.06,24.84-25.79,5.38-4.16,13.09-7.01,18.97-11.03,9.45-6.46,17.82-16.13,28.37-20.84Z"/>
      <path class="cls-1" d="M61.88,1065c-13.08,4.29-27.58,7.69-40.29,12.68-7.33,2.87-14.13,7.27-21.58,9.82v-11.25c6.22-2.54,12.43-5.7,18.77-7.95,13.83-4.9,23.98-6.38,38.91-5.2,1.66.13,3.23.33,4.2,1.9Z"/>
      <path class="cls-6" d="M1920,1065v11.25c-8.36,3-16.49,8.97-22.94,15.03-1.65,1.55-6.34,5.22-.49,4.66-7.21,1.35-14.31,2.6-21.56,3.75l27.27-25.7,17.73-8.99Z"/>
      <path class="cls-1" d="M1920,1076.25v12.19c-7.88,6.2-14.48,5.82-23.44,7.5-5.84.56-1.15-3.12.49-4.66,6.45-6.06,14.59-12.03,22.94-15.03Z"/>
      <path class="cls-3" d="M795.94,1070.62c-4.66-3.33-10.4-5.69-14.06-10.3,23.72,2.29,47.03,7.98,70.76,10.3,60.5-14.38,119.15-27.88,181.08-35.51,13.93-1.72,43.77-6.99,56.14-5.74,11.38,1.15,15.2,12.66,19.38,21.86,6.34,13.96,4.94,23.39,20.49,30.14,18.02,7.82,42.84,14.47,62.04,20.46,1.47.46,2.95.72,4.49.67-.86,1.55-5.36,1.8-6.99,1.9-11.95.77-25.86.08-38.01-.04l-25.95-10.15c-2.94-1.38-12.53-5.84-14.07-7.96-1.87-2.56-4.6-10.69-6.7-14.4-5.82-10.33-11.94-20.54-18.63-30.32-39.31,3.3-78.83,6.56-117.5,14.51-37.49,7.71-86.17,25.09-123.26,26.75-7.21.32-13.37-4.09-20.16-6.07-9.5-2.77-19.38-4.13-29.05-6.11Z"/>
      <path class="cls-3" d="M414.38,1009.69c-2.06,4.98-11.61,10.37-16.62,11.97-8,2.56-27.84.67-37.28.2-21.51-1.08-43.1-3.4-64.61-4.67-8.08,3.56-17.23,13.42-26.36,14.08-12.07.87-34.51-9.04-48.77-9.42-11.21-.29-24.83,3.16-36.05-.46l-78.76-48.27c-.68-.57-3.46-.15-2.81-2.81,3.75-.55,8.74-1.81,12.45-.74,2.9.84,9.8,7.89,14.04,9.39,3.57,1.27,7.82,1.1,11.67,2.4,7.32,2.46,17.09,9.18,24.95,12.55,6.95,2.97,16.93,5.16,22.87,8.07,2.09,1.02,3.05,3.48,5.44,3.94,8.18,1.57,21.77-.72,30.9.03,10.74.89,29.3,7.76,38.51,7.37,1.96-.08,10.82-5.33,13.99-6.46,23.11-8.26,51.96,2.78,75.96,2.91,12.34.07,25.98-.42,38.42-1.03,3.34-.16,6.96-1.93,10.33-1.93,4.32,0,8.72,2.42,11.72,2.88Z"/>
      <path class="cls-5" d="M1485.94,889.69c-30,10.66-58.87,24.81-89.01,35.21-8.76.78-20.02,2.58-28.69,1.41-1.78-.24-17.54-11.18-21.35-13.34-4.87-2.75-18.55-10.5-23.13-11.64-3.97-.99-7.42,3.4-11,4.1-8.76,1.73-25.46-14.31-33.99-17.62,1.22.03,4.48-1.32,7.89-.85,4.31.59,9.24,3.71,13.42,4.38,7.56,1.2,13.5-2.09,20.66-3.27,9.78-1.61,19.68-3.3,29.59-3.1,2.52,3.87,7.16,13.9,12.53,13.92,1.31,0,8.13-5.87,10.31-7.13,6.32-3.68,15.95-8.2,23.28-8.62,12.67-.73,29.67,11.87,44.04,13.11,10.2.88,24.26-4.65,34.79-6.44,2.71-.46,8.24-1.5,10.67-.11ZM1390.09,896.49c-15.44,2.12-28.75,18.36-2.2,14.68,3.45-.48,6.46-2.9,9.68-3.45,5.71-.96,19.25,2.46,13.76-7.65-2.98-5.49-15.5-4.37-21.24-3.58Z"/>
      <path class="cls-1" d="M400.31,1028.44c-20.52,14.75-23.82,12-48.32,13.09-51.84,2.3-103.71-.98-155.63-2.81l-68.87,4.73c2.08-.81,14.21-5.29,14.78-5.84.72-.7,1.3-5.55,1.27-6.88-.04-1.7-1.03-2.99-1.05-3.21-.31-5.82-.11-13.08-.94-18.75,2.65.2,5.7,2.36,7.94,3.78,3.67,2.31,20.29,15.37,21.79,15.71,7.25,1.63,20.58-.32,28.85.21,15.8,1.02,36.64,4,52.4,6.66,4.52.76,9.56,3.32,14.19,3.64,8.82.62,16.39-6.97,24.19-10.48,13.69-6.15,37.49,1.63,52.67,2.03,18.37-.56,35.04,4.97,52.63-1.73,1.2-.46,3.15-2.12,4.08-.13Z"/>
      <path class="cls-6" d="M795.94,1070.62c9.67,1.98,19.55,3.34,29.05,6.11,6.79,1.98,12.95,6.39,20.16,6.07,37.09-1.65,85.77-19.04,123.26-26.75,38.67-7.95,78.19-11.21,117.5-14.51,6.69,9.78,12.81,19.99,18.63,30.32,2.09,3.71,4.83,11.84,6.7,14.4,1.55,2.12,11.13,6.58,14.07,7.96l25.95,10.15c-1.86-.02-3.78.14-5.62,0-.25-.9-1.08-.89-1.88-.94-19.44-1.1-18.69,2.62-35.62-8.44-5.84-16.03-14.46-30.83-24.39-44.52-1.99-.9-4.83-.52-7.06-.48-1.8.03-3.76-.94-3.23,1.87-17.55-5.37-60.5,4.18-79.69,8.44-2.68-1.58-8.42-.35-11.59.13-45.45,7.01-91.73,21.88-136.16,33.61-7.68-.54-13.67-5.64-20.37-8.6-3.6-1.59-7.62-2.27-11.18-3.65-.72-.28-1.7-3.98-4.46-.87-4.71-3.39-9.36-6.95-14.06-10.31Z"/>
      <path class="cls-6" d="M414.38,1009.69c2.07.32,5.93-1.91,8.43.46-7.37,6.27-14.63,12.63-22.5,18.29-.93-1.99-2.89-.32-4.08.13-17.58,6.7-34.25,1.17-52.63,1.73-15.19-.4-38.99-8.18-52.67-2.03-7.81,3.51-15.37,11.09-24.19,10.48-4.63-.32-9.67-2.88-14.19-3.64-15.76-2.66-36.6-5.64-52.4-6.66-8.27-.53-21.61,1.42-28.85-.21-1.5-.34-18.12-13.4-21.79-15.71-2.24-1.41-5.3-3.58-7.94-3.78-.31-2.14-.81-2.94-1.87-4.69-5.06-8.27-25.41-23.86-33.75-30.94l78.76,48.27c11.22,3.62,24.83.17,36.05.46,14.25.37,36.69,10.29,48.77,9.42,9.13-.66,18.28-10.52,26.36-14.08,21.51,1.27,43.1,3.59,64.61,4.67,9.44.47,29.27,2.36,37.28-.2,5.01-1.61,14.56-6.99,16.62-11.97Z"/>
      <path class="cls-5" d="M926.25,892.5c-4.22,1.63-12.33,5.8-16.37,5.67-6.92-.22-13.85-7.54-20.49-9.18-17.1,5.23-32.66,17.32-50.75,18.55-5.77.39-18.11.74-23.52,0-5.94-.81-13.37-11.62-18.23-15.52-6.91-5.55-22.05-9.4-30.95-11.71,5.34-2.28,11.13-4.57,16.67-6.3,11.12-3.46,30.67-9.18,41.95-7.79,4.64.57,13.84,8.92,19.31,11.63,23.89,11.82,43.28.59,66.65,7.41,4.69,1.37,12.08,4.2,15.73,7.23ZM802.82,889.39c5.12,7.3,20.94,9.75,29.23,8.75,6.75-.82,11.36-9.42,7.86-14.48-1.42-2.05-10.9-3.65-13.52-3.44-2.88.23-4.13,2.65-7.5,2.95-3.56.31-23.63-4.55-16.08,6.22Z"/>
      <path class="cls-5" d="M1043.44,886.88c.01-4.11,8.96-2.93,11.61-2.7,7.48.67,21.3,7.16,24.44,7.26,10.5.31,25.53-4.72,36.62-5.48,2.42-.17,6.06-.33,8.36.04,6.16.99,8.47,12.2,13.02,11.94,1.14-.06,12.13-6.86,15.37-8.04,2.39-.87,7.46-3.01,9.63-1.15-3.58,2.14-9.82,4.75-12.65,7.51-3.48,3.39-3.66,8.9-7.08,11.67-2.6,2.12-13.92,5.29-17.32,5.27-7.77-.04-21.71-13.35-27.64-11.87-2.39.6-5.8,3.73-8.21,4.14-5.65.95-24.48-13.47-31.46-15.96-4.87-1.74-9.68-1.91-14.71-2.64Z"/>
      <path class="cls-1" d="M993.75,1060.31c-26.73,5.93-54.33,15.25-80.17,24.36-9.92,3.5-20.45,9.23-30.25,11.94-13.19,3.63-27.71,4.17-41.13,6.79l-2.14-.43c-9.93-7.46-19.98-14.79-30.05-22.04,2.76-3.12,3.75.59,4.46.87,3.55,1.38,7.57,2.06,11.18,3.65,6.7,2.96,12.69,8.06,20.37,8.6,44.42-11.72,90.71-26.59,136.16-33.61,3.16-.49,8.9-1.71,11.59-.13Z"/>
      <path class="cls-5" d="M1634.06,887.81c-8.92-.48-21.56-.22-30.39,1.02-8.07,1.13-11.77,7.32-22.17,5.13-11.09-2.34-6.15-6.57-20.53-.96-3.93,1.53-14.37,7.8-17.47,7.9-3.75.13-5.47-2.97-7.87-4.65-.47-2.09,1.15-1.99,2.32-2.79,6.59-4.59,19.54-13.57,27.24-14.08,11.7-.78,17.76,8.74,28.03,7.42,4-.51,8.72-2.45,13.21-2.72,8.7-.53,19.41,1.16,27.64,3.74Z"/>
      <path class="cls-1" d="M1108.12,1095c-10.81-7.05-16.29-11.05-22.23-23.24-3.57-7.33-3.62-17.18-12.46-19.88-.53-2.81,1.43-1.84,3.23-1.87,2.23-.04,5.08-.42,7.06.48,9.93,13.68,18.55,28.49,24.39,44.52Z"/>
      <path class="cls-3" d="M1145.62,1104.37c-.79-.06-1.62-.02-1.88-.94.79.05,1.63.04,1.88.94Z"/>
      <path class="cls-2" d="M332.81,90c-.49-1.66-1.71-3.19-1.69-5.03.8-4.23,55.26-46.51,64.49-48.89,28.28-2.84,58.79-12.25,86.75-14.5,22.83-1.84,54.22,1.93,77.76,2.84,13.29.51,26.62-.3,39.88,1.37l19.19,22.06,8.95,39.34c13.45-3.23,27.14-11.39,40.27-14.56,22.19-5.36,47.25-6.22,69.79-10.74l35.66,21.61c2.39,3.11,2.03,23.64,2.39,29.01s1.88,13.23,1.88,18.28v15.94c0,2.99,1.39,9.5,1.88,12.66,2.6,17.07,7.83,33.94,12.19,50.62,1.63,6.24,2.07,13.35,4.5,19.41,4.88,12.15,14.33,25.47,18.94,37.78,2.52,6.73,3.74,14.36,5.34,21.38,3.45,15.18,5.71,30.68,8.94,45.9,1.83,2.54,21.53,7.34,24.17,10.05,2.13,2.18,2.34,14.46,2.8,18.29.21,1.71.68,3.12.94,4.69.52,2.83-1.43,1.81-3.24,1.88-71.34,2.41-142.76,3.28-214.26,4.69-7.93-11.38-18.8-28.49-19.7-42.68-.41-6.51,6.35-12.34,8.03-20.08,6.36-29.38.6-85.59-2.4-116.76-.83-8.59-2.45-17.22-3.27-25.8-.74,5.1-1.82,10.34-2.34,15.48-4.16,41.63-4.52,86.34-10.43,127.38-.81,5.59-2.62,11.95-4.11,17.46-1.92,7.11-8.66,22.02-7.57,28.16,1,5.63,5.03,12.02,6.16,17.78-1.56,0-3.13,0-4.69,0-7.28,0-15.54-.79-22.5.94-80.16.24-160.41,3.79-240.43,5.66-10.49.25-12.65-.03-22.07-2.85l-14.53-41.25c-1.09-4.26-4.03-14.09-2.88-17.84.68-2.21,6.2-8.62,8.06-10.73,4.43-5.02,28.12-26.77,33.3-27.63,4.69-.77,9.28,2.46,11.47-1.67,3.18-6.01,4.79-24.23,5.71-31.78,2.35-19.12,3.04-38.43,5.25-57.56,8.13-4.16,13.66-1.4,21.56-7.5,15.62-12.06,27.35-32.29,42.68-44.98v73.59c0,3.4,12.27,40.75,14.53,45.47.52,1.09.94,2.58,2.33,2.81,1.78-41.11,4.59-82.18,7.57-123.22,6.24-14.61,14.6-28.37,20.73-43.02.9-2.16,3.6-7.28,2.25-9.13-25.48-5.74-51.1-11.02-76.94-15.01l-63.29,20.69Z"/>
      <path class="cls-3" d="M1417.5,75c.85,6.41-.78,13.1-.98,19.18-.27,8.22-.85,51.4,3.08,55.59,1.66,1.77,15.27,7.62,15.49,9.1-3.71,9.45-6.64,19.25-10.6,28.6-1.35,3.18-7.86,14.16-7.77,16.17.19,4.2,5.41,16.45,7.45,20.78,5.18,11.01,12.6,22.34,18.19,33.37,4.69,9.27,23.28,43.18,22.87,50.97-.22,4.26-6.5,29.39-5.54,30.61,7.64-3.8,20.69-10.2,24.57-18.08.77-1.55.69-3.56,1.49-5.07,4.72-8.96,10.1-16.35,17.06-23.72,8.42,4.87,18.63,5.86,27.68,9.31,5.62-2.6,19.06-12.34,24.82-12.12,1.11,5.54,1.05,29.29,3.73,32.36.46.53,11.87,5.88,12.71,6.04,3.37.63,8.39-.14,12.14.05,2.95.15,7.13,2.44,9.85-.01,1.36,1.77,3.48,3.2,3.75,5.62-6.63.58-13.48-1.49-19.94.22-8.17,2.17.16,8.23.97,12.65.91,5.01.36,11.01,2.09,16.19h-135c-12.62-10.15-26.41-19.71-35.83-33.07-3.4-17.75-2.08-36.16-4.01-54.12-4.59,12.57-13.1,25.79-16.85,38.47-3.32,11.22-3.46,12.74-8.47,23.4-3.52,7.49-5.1,17.47-7.96,25.32h-28.12c-1.59-10.35-2.68-25.73-5.58-35.21-3.41-11.15-16.32-26.45-21.6-37.47l-4.73-62.54c-2.22-1.16-13.59-11.04-14.5-11.04h-26.25c-3.69-3.07-5.43-8.66-7.97-12.19,2.91-3.83,3.24-9.67,4.69-14.06,4.09-12.46,9.62-24.85,13.12-37.5,4.64-16.74,5.7-34.44,9.6-51.34,26.26-7.87,54.36-11.69,80.6-19.24,8.79-2.53,24.22-10.44,31.62-11.51,4.95-.72,9.75,2.87,14.12,4.28Z"/>
      <path class="cls-3" d="M332.81,90l63.29-20.69c25.83,3.99,51.45,9.27,76.94,15.01,1.35,1.85-1.35,6.97-2.25,9.13-6.13,14.64-14.5,28.41-20.73,43.02-2.98,41.04-5.79,82.11-7.57,123.22-1.4-.24-1.81-1.72-2.33-2.81-2.27-4.72-14.53-42.07-14.53-45.47v-73.59c-15.33,12.68-27.06,32.91-42.68,44.98-7.9,6.1-13.43,3.34-21.56,7.5-2.21,19.13-2.9,38.44-5.25,57.56-.93,7.55-2.53,25.77-5.71,31.78-2.19,4.14-6.77.9-11.47,1.67-5.19.85-28.88,22.61-33.3,27.63-1.86,2.11-7.38,8.52-8.06,10.73-1.15,3.75,1.79,13.58,2.88,17.84l14.53,41.25c-40.38-12.11-86.19-7.75-127.5-4.69-4.58.34-10.02.83-14.5.98-1.04.04-3.56.59-3.31-.97,11.04-3.03,21.96-6.7,32.81-10.32,20.8-6.96,41.94-13.72,62.3-21.6,14.32-21.85,25.97-46.83,44.03-65.65,2.53-11.49,4.84-23.08,7.1-34.62,2.43-12.42,4.19-25.07,6.56-37.5,5.88-30.78,12.06-61.54,17.8-92.36.45-7.78-5.22-14.23-7.49-22.01Z"/>
      <path class="cls-2" d="M1475.62,150c3.61,14.17,13,39.27,13.17,51.98.11,8.32-1.95,16.78-.86,25.25l14.89,65.27c-6.96,7.38-12.33,14.77-17.06,23.72-.8,1.51-.72,3.52-1.49,5.07-3.88,7.88-16.93,14.28-24.57,18.08-.96-1.22,5.32-26.35,5.54-30.61.4-7.79-18.18-41.7-22.87-50.97-5.59-11.04-13.01-22.36-18.19-33.37-2.03-4.33-7.25-16.58-7.45-20.78-.09-2.01,6.43-12.99,7.77-16.17,3.95-9.35,6.89-19.15,10.6-28.6-.22-1.48-13.83-7.33-15.49-9.1-3.94-4.2-3.35-47.37-3.08-55.59.2-6.08,1.83-12.77.98-19.18.81.26,2.3-.03,3.72.46,17.06,5.79,29.97,13.92,42.65,26.77,3.95,15.93,7.7,31.88,11.76,47.77Z"/>
      <path class="cls-2" d="M1597.5,333.75l51.56,29.06h-68.44c-1.73-5.18-1.18-11.18-2.09-16.19-.8-4.43-9.14-10.48-.97-12.65,6.45-1.71,13.31.36,19.94-.22Z"/>
      <path class="cls-2" d="M1593.75,328.12c-2.72,2.45-6.9.16-9.85.01-3.74-.19-8.77.59-12.14-.05-.84-.16-12.25-5.51-12.71-6.04-2.69-3.07-2.62-26.82-3.73-32.36,1.19.05,2.06.45,2.84,1.35,11.6,12.58,25.17,23.52,35.6,37.09Z"/>
      <path class="cls-1" d="M1112.81,362.81c.31,0,.63,0,.94,0l29.11,29.48.89,5.2c-5.27,3.62-25.31,16.4-30.25,18.03-3.32,1.1-5.5.25-8.19.72-13.96,2.43-24.43,13.86-37.49,18.76-.25,1.57,1.77.88,2.81.93-.02,2.34,3.95,3.99,5.7,5.09,4.47,2.8,18.54,11.98,22.49,13.13,4.27,1.25,10.19.63,14.24,1.7,3,.79,26.01,14.9,30,17.61.86.58,5.54,4.32,5.8,4.72,1.32,2.02,1.56,5.07,1.46,7.45-63.03,3.63-125.89,7.29-188.9,10.32l-12.66,1.86c6.08-.16,12.23.24,18.32.05,62.82-1.96,125.88-1.94,188.87-2.85l17.81,52.5c-35.68-5.46-73.2-3.25-109.26-3.71-71.74-.91-143.75-1.32-215.63-1.02-3.52.48-12.71,8.54-15.87,11.31s-7.51,5.39-8.93,9.35c-.82,2.28-1.07,1.48-.31,4.5.45,1.78,4.84,10.12,5.93,11.44-1.24,5.51,2.47,14.16,6.56,17.81-15.03-.87-30.22-1.79-45.28-1.69-8.21,6.99-17.29,12.9-25.03,20.44-.16.15-1.58-.57-1.89.62-.51,1.96-.63,10.79.22,12.31.25.45,5.08,2.69,6.27,3.57,7.71,5.68,11.53,11.73,17.9,17.26-14.24-5.41-27.31-11.99-39.87-20.6-12.48,2.28-24.53,6.13-37,8.42,12.21-8.69,24.92-17.85,38.44-24.38,3.23-1.56,1.09-1.08,1.88-1.88.61-.62,1.21-.65,1.88-.94.52-.23,1.67.06,2.73-.52,12.5-6.85,24.36-15.99,36.25-23.86.79-1.26-2.81-8.16-3.35-10.31-.46-1.83.58-4.17-.49-6.55-.9-2-8.01-7.7-8.89-10.33-.08-.25.05-.61,0-.94-.3-1.9-.1-4.87.22-6.82,2.88-17.56,12.18-36.42,15.03-54.35,15.23-22.18,23.81-42.77,29.32-69.12.64-3.07,1.07-6.28,1.37-9.41,17.26-1.55,35.95-2.49,52.96-4.7,2.36-.31,11.63-1.38,8.92-4.66-.5-.61-13.44-2.59-15.48-2.82-13.27-1.47-29.14-1.58-42.65-1.89,2.22-3.71,24.37-8.34,25.16-9.53,1.42-6.5,1.25-13.46,2.07-19.95.45-3.58,1.72-2.05.89-7.08-.26-1.56-.73-2.97-.94-4.69,85.3.1,170.64-.14,255.94,0Z"/>
      <path class="cls-6" d="M825.94,418.12c-.31,3.12-.73,6.33-1.37,9.41-5.51,26.34-14.09,46.93-29.32,69.12-2.85,17.93-12.15,36.79-15.03,54.35-.32,1.94-.51,4.92-.22,6.82-8.37-7.6-13.31-29.41-24.15-32.56-16.17-4.7-35.62.06-52.21.73-54.99,2.22-109.99,1.69-165.06,1.81-6.94,1.58-8.05,2.91-8.88,9.4-.03.22-.91.75-.89,2.16.19,11.22,11.64,17.6,18.7,25.02,0,.52,1.04,1.92.94,2.81-28.25,25.27-57.49,33.24-95.27,33.82-1.71.03-3-1-3.17-1.01.72-3.17,1.9-6.26,2.81-9.38l18.99-.22,51.19-16.78c.46-.72.43-15.47.11-17.19-.69-3.69-3.61-3.24-4.66-4.24-6.79-6.47-20.42-24.06-26.85-27.99-8.77-5.36-59.64-20.82-70.14-21.73-6.56-.57-13.99.35-20.7.07-27.23-1.13-54.99-2.89-81.99-3.79.42-5.88-2.93-11.17-3.75-16.88,93.27,2.84,186.39,4.8,279.88,7.54l67.92-18.78c-9.4-1.7-19.04-.67-28.58-.96-105.19-3.21-214.86,2.69-320.17,7.51.02-1.96.19-3.92-.22-5.87-.89-4.26-2.86-12.45-4.25-16.38-1.65-4.63-6.95-6.52-9.32-8.96-1.54-1.58-3.64-4.93-4.03-7.23,88.26-.14,176.63.95,264.89.04,12.78-.13,26.15-2.89,38.84.45,14.76,3.88,19.68,8,37.06,8.87,33.09,1.67,74.98,2.46,107.72-1.01.9-.1,3.53-.42,3.36-1.78-18.28-4.09-36.9-7.81-54.87-13.11-1.36-.4-1.65.54-1.37-1.89,21.43-1.79,42.81-4.52,64.22-6.56,23.24-2.22,46.6-3.54,69.84-5.63Z"/>
      <path class="cls-6" d="M1489.69,489.38c.17,1.71-1.88,5.08-1.88,6.09v21.56c0,.34.91,1.56.97,2.78.22,4.2-.22,8.49-.03,12.69-4.59-3.14-9.29-5.74-13.57-9.4-3.17-2.71-12.3-13.49-15.05-14.02l-90.92-.03c-14.43,4.69-28.65,10.02-42.88,15.24-17.52,6.43-35.09,13.11-52.27,20.39-1.25.02-2.5-.02-3.75,0-1.8,1.84,10.29,13.06,12.69,14.06,19.17-1.29,38.42-2.04,57.62-2.81,3.64-.15,8.93-.94,11.72-.94h19.69c2.62,0,7.02-1.75,10.78-.94,1.96.42,7.62,5.84,10.02,7.32,7.89,4.86,16.14,9.72,25.6,10.49,15.49,1.26,38.54-.49,54.38-1.88,7.67-.67,15.06-2.43,22.5-3.75,2.71-.48,6.46-.28,9.38-.94-.76,2.58-.28,8.18-1.1,10.62-1.45,4.29-25.72,4.44-30.56,6.47l-6.78,32.6c-26.35,2.06-54.97,3.26-80.98,6.68-10.37,1.36-18.02,5.41-27.77,8.32-.41.12-1.26-.32-1.71.13-1.78,1.78-1.17,11.98-.07,14.77,20.87,1.64,40.39,10.36,59.91,16.97l-101.74-15.76c-25.76,6.17-51.26,13.72-77.33,18.57,2.1-.88,4.81-3.16,7.52-4.2,23.51-9.08,47.87-16.08,72.08-23.08l.1-15.85c-1.16-.18-2.73.26-3.76,0-39.02-9.54-96.32-1.87-137.3-.89-25.01.6-50.14-.55-75.01-1.02-14.22-.27-28.62.95-42.69-.9,20.71-1.45,44.58-6.96,65.62-9.38s42.25-2.63,63.15-5.76c11.22-1.68,22.46-4.26,33.27-7.51l7.57-32.13c-.32-1.26-5.83-2.79-7.42-3.36-14.94-5.28-30.21-10.72-45.94-13.12l-17.81-52.5c111.21-1.61,222.56-3.62,333.75-5.62Z"/>
      <path class="cls-5" d="M1219.69,560.62c1.6.57,7.11,2.1,7.42,3.36l-7.57,32.13c-10.82,3.25-22.05,5.83-33.27,7.51-20.9,3.13-42.28,3.37-63.15,5.76l-1.88-30c19.37-1.21,43.71-.2,62.12-3.04,6.53-1,19.21-7.01,25.71-9.92,3.56-1.59,7.7-3.19,10.61-5.79Z"/>
      <path class="cls-4" d="M1121.25,579.38l1.88,30c-21.04,2.41-44.92,7.92-65.62,9.38-7.8.55-20.36,1.01-25.73-5.68-2.83-3.52-2.98-22.11.67-25.01,1.81-1.45,22.47-3.56,26.47-4,20.68-2.26,41.6-3.39,62.34-4.69Z"/>
      <path class="cls-5" d="M518.44,552.19c1.05,1,3.97.56,4.66,4.24.32,1.72.36,16.46-.11,17.19l-51.19,16.78-18.99.22c2.08-7.12,4.76-14.37,5.62-21.56.06-.46,1.32-1.64.94-1.87l-125.62-17.81c14.51.46,29.12.37,43.63.89,24.59.88,53.28,1.36,77.32,6.12,7.06,1.4,21.17,6.89,26.73,7.09,3.26.11,31.1-6.31,34.43-7.78,1.7-.75,2.49-1.62,2.58-3.52Z"/>
      <path class="cls-5" d="M1779.38,541.88c-.14,2,2.81,3.48,4.26,4.65,2.98,2.4,15.07,12.98,17.25,13.69,7.27,2.35,24.2,2.32,32.87,3.23l-7.5,30.94c-20.91-1.39-41.82-2.33-62.81-1.88,1.47-14.73,11.52-33.26,13.99-48.38.23-1.36,1.03-1.61,1.94-2.24Z"/>
      <path class="cls-5" d="M1357.5,630c21.46,5.69,43.55,5.18,65.08,11.33,18.98,5.41,40.22,14.73,53.98,28.98-2.72-.25-5.26.81-7.93.99-11.91.76-41.35-5.47-53.01-9.41-19.51-6.61-39.03-15.33-59.91-16.97-1.1-2.79-1.71-12.99.07-14.77.45-.45,1.3-.01,1.71-.13Z"/>
      <path class="cls-6" d="M1826.25,594.38c3.99.26,7.72.47,11.72.98,1.76.22,3.81-1.19,3.28,1.83-24.43,14.75-49.51,24.13-77.81,24.38.68-9.34-.92-19.88,0-29.06,20.99-.46,41.9.49,62.81,1.88Z"/>
      <path class="cls-6" d="M839.06,582.19c14.31,2.51,34,3.07,47.24,6.67,3.97,1.08,5.52,3.21,9.01,4.58,1.23,7.06,3.64,14.64,5.62,21.56,1,3.48,3.53,14.97,6.17,16.8l38.83,9.45c-7.2,2.27-20.48,5.51-27.8,5.56-19.51.12-23.66-28.94-27.18-43.14-17.93-5.35-36.23-5.41-54.71-6.48-4.09-3.66-7.8-12.3-6.56-17.81,3.27,3.95,5.71,2.17,9.37,2.81Z"/>
      <path class="cls-4" d="M458.44,569.06c-.86,7.2-3.55,14.45-5.62,21.56-.91,3.11-2.1,6.21-2.81,9.38-2.29,0-18.47,4.78-21.77,5.88-18.84,6.28-37.98,17.73-58.85,13.34l89.06-50.16Z"/>
      <path class="cls-5" d="M1312.5,621.56c1.03.25,2.6-.19,3.76,0l-.1,15.85c-24.2,6.99-48.56,14-72.08,23.08-2.71,1.05-5.42,3.32-7.52,4.2-5.87,2.47-13.4,2.9-19.69,2.8-.04-.9.91-1.29,1.54-1.73,7.01-4.87,23.59-12.86,31.87-16.88,18.44-8.94,39.35-17.39,58.47-24.96,1.43-.57,3.15-.52,3.74-2.36Z"/>
      <path class="cls-4" d="M837.19,566.25c1.23.05,2.71.89,4.2.93,17.7.46,34.52-.05,51.47,6.48,2.02,1.43,1.91,16.66,2.45,19.78-3.49-1.37-5.04-3.5-9.01-4.58-13.24-3.6-32.93-4.16-47.24-6.67l-1.87-15.94Z"/>
      <path class="cls-4" d="M1833.75,563.44c13.4,1.41,26.82,3.19,40.31,3.75.42,1.63-.67,1.87-1.4,2.81-7.83,10.2-20.43,20.55-31.41,27.18.52-3.02-1.53-1.61-3.28-1.83-3.99-.51-7.72-.72-11.72-.98l7.5-30.94Z"/>
      <path class="cls-5" d="M764.06,572.81c2.93.39,3.65,4.8,5.64,7.02,1.09,1.22,1.91,2.32,3.74,2.35-.36,3.16,2,6.01.45,9.36-2.39,5.16-16.43,13.41-20.14,18.77-.66.29-1.27.31-1.88.94-1.69-.29-2.21.17-1.88,1.88-13.52,6.53-26.22,15.69-38.44,24.38-.72.13-2.1,1.68-3.74.94.52-3.53-3.22-9.25-1.42-12.18l45.94-26.26c6.92-7.61,9.23-17.51,11.72-27.18Z"/>
      <path class="cls-5" d="M765.94,615.94c8.89,4.94,19.18,8.62,27.84,13.88,1.06.64,7.24,4.78,7.51,5.15,2.68,3.61.85,17.4.27,22.22-4.23-2.4-9.63-4.47-13.12-7.5-6.37-5.53-10.19-11.58-17.9-17.26-1.19-.88-6.02-3.11-6.27-3.57-.86-1.53-.73-10.35-.22-12.31.31-1.19,1.73-.46,1.89-.62Z"/>
      <path class="cls-5" d="M900.94,615c4.81,2.95,9.46,5.99,14.66,8.3,13.92,6.19,30.19,9.2,45.33,10.45.45,2.45-.36,1.45-1.34,1.95-3.74,1.91-9.63,4.27-13.66,5.54l-38.83-9.45c-2.64-1.83-5.17-13.32-6.17-16.8Z"/>
      <path class="cls-4" d="M789.38,575.62c-4.13,1.33-15.33,1.24-15.94,6.56-1.83-.03-2.65-1.13-3.74-2.35-1.98-2.22-2.71-6.64-5.64-7.02.24-.92-.46-2.46.21-3.52,1.27-2.01,13.1-8.16,15.73-10.54.88,2.62,7.99,8.32,8.89,10.33,1.07,2.37.03,4.71.49,6.55Z"/>
      <path class="cls-5" d="M548.44,549.38c.95,4.84-.92,10.73-.94,15-7.06-7.43-18.52-13.8-18.7-25.02-.02-1.41.86-1.95.89-2.16,6.63,3.45,12.54,8.1,18.75,12.19Z"/>
      <path class="cls-5" d="M837.19,566.25l1.87,15.94c-3.67-.64-6.1,1.13-9.37-2.81-1.09-1.32-5.48-9.66-5.93-11.44-.76-3.02-.51-2.22.31-4.5,1.36,5.99,10.04,2.69,13.12,2.81Z"/>
      <path class="cls-4" d="M548.44,567.19c.1-.89-.94-2.29-.94-2.81.02-4.27,1.89-10.16.94-15,2.14,1.41,11.32,5.42,11.31,7.97,0,1.82-9.42,8.15-11.31,9.84Z"/>
      <path class="cls-5" d="M1617.19,879.38c-.38-.38,0-4.52.49-5.61,3.21-7.17,25.06-16.13,32.8-16.88,6.56-.64,17.86,1.69,22.44.95,1.17-.19,9.84-5.85,12.72-7.04,11.82-4.85,38.44-7.17,49.61-.89,3,1.69,7.92,6.15,5.29,9.84-1.63,2.28-14.52-.89-17.87-.81-8.16.21-17.04,5.48-23.83,9.73-3.01,1.88-14.9,11.43-16.53,11.67-6.2.89-16.41-7.82-23.34-8.51-5.6-.56-12.06.28-17.58,1.26-3.64.64-22.96,7.52-24.18,6.29Z"/>
      <path class="cls-5" d="M563.19,843.97c3.93-.66,7.64-.35,8.54,4.22,1.14,5.77-6.43,5.88-9.88,7.57-6.31,3.07-14.02,16.3-20.88,21.31-15.29,11.16-28.29-9.9-43.73-12.59-2.29-.4-6.9.89-7.73-1.63-4.4-13.34,14.31-4.61,19.08-4.08,9.41,1.04,26.19-.59,34.87-4.51,6.38-2.88,12.18-9.01,19.73-10.27Z"/>
      <path class="cls-5" d="M270.69,740.86c4.93-1.28,15.23,2.62,19.93,4.92,21.43,10.48-16.06,12.3-21.3,14.32-6.39,2.47-17.34,16.04-20.62,16.95-4.46,1.24-8.35-5.86-12.87-7.41-2.38-.82-22.3-2.25-15.09-8.43,5.92-5.08,11.93,1.26,17.13,1.71,8.72.76,17.95-10.75,24.18-15.71,1.84-1.47,6.92-5.91,8.64-6.35Z"/>
      <path class="cls-5" d="M1680.94,764.99c2.75-2.36,7.26-4.32,10.62-5.78,11.98-5.21,39.15-15.29,51.51-12.75,6.87,1.41,22.12,11.01,13.86,19.07-8.52,8.33-14.75-1.55-21.39-4.04-7.72-2.9-24.97-3.15-33.25-1.85-7.5,1.18-13.92,5.06-21.35,5.35Z"/>
      <path class="cls-6" d="M1501.88,435l-6.56,30c-114.75,6.5-230.05,14-345,20.62.1-2.38-.13-5.43-1.46-7.45-.26-.39-4.94-4.14-5.8-4.72-3.99-2.71-27.01-16.82-30-17.61-4.05-1.07-9.97-.45-14.24-1.7-3.95-1.15-18.02-10.33-22.49-13.13-1.75-1.09-5.72-2.75-5.7-5.09,7.43.33,15.05-.02,22.5,0,10.3.03,20.64-.01,30.94,0,12.8.01,25.64,0,38.44,0,56.23.02,112.52.12,168.75,0,33.7-.07,67.84-.79,101.25-.94,23.11-.1,46.27.05,69.38,0Z"/>
      <path class="cls-4" d="M1495.31,465c35.37-2,70.97-3.04,106.4-5.61l155.51,19.79,20.27,3.62c-9.14,1.57-18.4.65-27.64.96-86.72,2.85-173.28,4.05-260.17,5.62-111.19,2-222.54,4.02-333.75,5.62-62.99.91-126.05.9-188.87,2.85-6.09.19-12.23-.21-18.32-.05l12.66-1.86c63.01-3.03,125.87-6.69,188.9-10.32,114.95-6.63,230.25-14.12,345-20.62Z"/>
      <path class="cls-2" d="M1488.75,532.5c4.99,3.41,9.99,6.92,15,10.31-.59-.07-1.27-.02-1.88,0-5.94.17-14.22,2.29-20.62,2.81-6.29.51-15.46,1.88-21.09,1.88h-16.88c-7.25,0-16.21,2.46-23.91,1.88-12.22-.92-20.44-11.85-26.94-12.98-1.58-.28-7.15.66-9.62.8-14.33.82-29.08,2.8-43.12,3.75-21.47,1.46-44.16,3.42-65.62,3.75,17.18-7.28,34.74-13.96,52.27-20.39,14.24-5.22,28.45-10.56,42.88-15.24l90.92.03c2.74.52,11.88,11.31,15.05,14.02,4.28,3.66,8.98,6.26,13.57,9.4Z"/>
      <path class="cls-3" d="M1503.75,542.81c1.63.19,8,2.95,8.32,4.31.29,1.25-4.23,12.04-5.05,14.43-.5,1.44-2.02,2.71-2.33,3.76-2.91.66-6.66.46-9.38.94l6.56-23.44c.6-.02,1.29-.07,1.88,0Z"/>
      <path class="cls-3" d="M350.74,751.77c-1.61-2.78,8.54-8.14,10.72-8.29s8.77,2.12,10.64,3.33c6.8,4.36,2.11,15.17-9.03,11.84-1.28-.38-11.98-6.27-12.33-6.88Z"/>
      <path class="cls-3" d="M1465.31,739.69c1.77,1.54-9.37,7.18-10.62,7.66-3.09,1.2-14.77,3.24-16.48.7-2.24-3.33,5.85-8.36,7.88-8.36h19.22Z"/>
      <path class="cls-6" d="M857.81,367.5c.83,5.02-.44,3.49-.89,7.08-.82,6.5-.65,13.46-2.07,19.95-.79,1.19-22.95,5.82-25.16,9.53-53.04-1.2-106,1.49-158.87,2.85-131.14,3.37-262.23,6.16-393.32,8.4l-11.79-17.74-3.31-2.32c-22.11-5.83-44.36-11.15-66.47-16.97-2.12-.56-8.77-1.43-8.43-4.22,41.31-3.06,87.12-7.42,127.5,4.69,9.42,2.82,11.58,3.1,22.07,2.85,80.02-1.87,160.27-5.43,240.43-5.66,7.28-.02,15.53.8,22.5-.94,1.56,0,3.13,0,4.69,0,11.92,0,24.02-.71,35.62-.94,71.5-1.4,142.92-2.28,214.26-4.69,1.81-.06,3.76.96,3.24-1.88Z"/>
      <path class="cls-4" d="M314.06,477.19c105.31-4.82,214.97-10.71,320.17-7.51,9.54.29,19.18-.75,28.58.96l-67.92,18.78c-93.49-2.74-186.61-4.7-279.88-7.54-3.54-.11-6.67-.87-9.81-.98-13.63-.44-27.24.12-40.82-.91l16.41-1.86c11.07-.4,22.23-.44,33.27-.95Z"/>
      <path class="cls-6" d="M1372.5,362.81h273.75l-8.54,6.93-24.27,13.7c-52.65.33-105.34-.22-158-.03l-21.99,4.73,10.74,1.9c51.11.52,102.22,1.12,153.32,1.84-5.47,9.82-14.68,18.14-22.5,26.25-46.67-.1-98.87,3.04-144.71-2.01-6.77-.74-18.11-4.16-24.08-3.19-1.55.25-3.31.19-2.77,2.39l-54.22-18.91c-1.59-11.19-3.12-22.42-4.85-33.59h28.12Z"/>
      <path class="cls-4" d="M1613.44,383.44c53.4-.33,106.64-1.28,159.84-3.84l18.28,1.95c-42.29,3.65-84.32,15.98-126.99,11.22-22.41.75-44.79-.59-67.07-.9-51.1-.72-102.21-1.32-153.32-1.84l-10.74-1.9,21.99-4.73c52.66-.19,105.35.36,158,.03Z"/>
      <path class="cls-3" d="M636.27,885.27c3.31,4.06-.71,11.59-5.31,13.34-9.49,3.61-22.51,2.7-31.9-.96-6.3-2.46-10.3-8.35-2.86-12.24,1.81-.95,21.66-7.59,23.29-7.72,4.2-.34,14.24,4.45,16.78,7.57Z"/>
      <path class="cls-3" d="M235.31,907.5c-.51.49-9.53-1.19-11.1-1.55-3.41-.78-14.77-3.77-15.16-7.38-.83-7.68,10.58-5.2,15.06-2.83,1.99,1.05,13.39,9.63,11.2,11.76Z"/>
      <path class="cls-2" d="M1190.62,300c2.38,6.73,6.33,12.9,9.16,19.43l1.15,37.31,1.87,1.39c.69-.92,2.4-19.55,3.06-22.73.95-4.6,6.27-16.39,6.22-19.01-.03-1.7-8.79-18.17-10.23-22.47-8.55-25.65,8.35-57.73,12.23-83.2l17.51-17.65c1.35-.31,25.23,4.49,27.23,5.37.48.21,4.24,4.99,4.92,5.93,2.54,3.53,4.28,9.12,7.97,12.19h26.25c.91,0,12.28,9.88,14.5,11.04l4.73,62.54c5.27,11.02,18.19,26.31,21.6,37.47,2.9,9.48,3.98,24.86,5.58,35.21,1.72,11.17,3.25,22.4,4.85,33.59l54.22,18.91c6.69,5.62,23.92,4.24,24.38,15-.12,0-.67.89-2.01.74-26.94-2.97-54.79-10.83-81.9-13.95l-16.4,7.59,3.75,11.24c-56.23.12-112.52.02-168.75,0l18.69-38.96c-1.59-22.19,2.42-47.19.06-68.85,2.79.57,1.64-1.4,2.12-2.98,1.03-3.34,2.4-6.66,3.08-10.09,1.1-5.55-.84-10.6,4.17-15.05Z"/>
      <path class="cls-3" d="M1427.81,430.31c3.12-.1,2.65,3.06,4.69,4.69-33.41.15-67.55.86-101.25.94l-3.75-11.24,16.4-7.59c27.11,3.11,54.96,10.97,81.9,13.95,1.34.15,1.89-.74,2.01-.74Z"/>
      <path class="cls-3" d="M1390.09,896.49c5.74-.79,18.26-1.9,21.24,3.58,5.49,10.1-8.04,6.68-13.76,7.65-3.22.54-6.23,2.97-9.68,3.45-26.55,3.68-13.24-12.55,2.2-14.68Z"/>
      <path class="cls-3" d="M802.82,889.39c-7.55-10.77,12.52-5.9,16.08-6.22,3.36-.3,4.62-2.72,7.5-2.95,2.62-.21,12.1,1.38,13.52,3.44,3.5,5.06-1.11,13.66-7.86,14.48-8.29,1-24.12-1.46-29.23-8.75Z"/>
      <g>
        <path class="cls-5" d="M776.25,112.5c14.39-2.69,29.03-5.04,43.61-6.55,61.03-6.35,123.43-6.46,184.64-4.66,10.65.31,17.08,1.07,19.16-10.92,2.46-14.22,2.45-21.07,11.51-33.49,33.03-45.27,115.05-25.68,160.35-12.54,9.01,2.61,26.76,10.64,35,10.09,6.71-.45,11.7-7.48,17-11.15,49.59-34.31,130.89-7.81,180.94,14.68,11.21,5.04,22.08,11.8,32.9,16.79,15.88,7.33,20.12,2.05,35.64-.43,30.54-4.88,95.61-6.93,92.07,39.57-1.98,25.95-22.69,34.16-45.41,35.21-22.6,1.04-45.51-1.53-68.01.9-4.05-15.89-7.81-31.85-11.76-47.77-12.67-12.85-25.59-20.98-42.65-26.77-1.42-.48-2.91-.2-3.72-.46-4.37-1.41-9.17-5-14.12-4.28-7.4,1.07-22.82,8.98-31.62,11.51-26.24,7.55-54.34,11.37-80.6,19.24-3.91,16.9-4.97,34.6-9.6,51.34l-501.56,6.56c-.48-3.16-1.88-9.67-1.88-12.66v-15.94c0-5.05-1.52-12.92-1.88-18.28Z"/>
        <path class="cls-5" d="M322.5,204.38c-2.38,12.43-4.13,25.08-6.56,37.5l-45.48-2.8c-6.11-.46-30.67-11.7-32.14-16.61-2.9-9.67,9.55-10.27,16.34-11.4,22.05-3.67,45.55-4.94,67.84-6.69Z"/>
        <path class="cls-5" d="M1268.44,190.31c-1.44,4.39-1.77,10.23-4.69,14.06-.68-.94-4.44-5.72-4.92-5.93-2-.88-25.88-5.68-27.23-5.37l-17.51,17.65c-3.88,25.47-20.78,57.55-12.23,83.2,1.43,4.3,10.19,20.77,10.23,22.47.05,2.62-5.26,14.41-6.22,19.01-.66,3.18-2.37,21.81-3.06,22.73l-1.87-1.39-1.15-37.31c-2.84-6.53-6.79-12.7-9.16-19.43-1.17-3.32-2.02-3.91-1.88-7.94.59-16.73,7.39-36.52,9.27-53.58.18-1.68.17-3.36.11-5.04-2.12,1.62-7.21-.28-7.49-.01-.89.83-5.72,20.33-6.57,23.45l-54.39-2.43c-7.41,2.15,0,14.27-6.49,21.71-14.66,16.8-55.62,6.69-75.53,5.11-54.85-4.35-110.08-7.27-165-10.31-22.32-1.24-44.88-1.25-67.02-3.76-4.61-12.31-14.06-25.63-18.94-37.78-2.43-6.05-2.87-13.17-4.5-19.41,15.46.21,30.97-.27,46.44-.04,46.41.69,93.15,1.67,139.69,1.02,10.68-.15,51.44.53,58.3-1.7,2.78-.91,5.83-4.02,8.65-5.41,26.98-13.34,96.98-11.57,128.98-12.58,13.24-.42,27-1.72,40.24-1.95,17.94-.32,36.14-.36,53.94.98Z"/>
      </g>
      <path class="cls-4" d="M1184.06,256.88c-1.32,4.83-4.19,11.82-4.69,16.4-.62,5.65,1.1,31.8-.19,34.03l-20.89,11.44-45.47,44.06c-85.3-.14-170.64.1-255.94,0-.46-3.83-.67-16.11-2.8-18.29-2.65-2.71-22.35-7.51-24.17-10.05-3.22-15.22-5.49-30.72-8.94-45.9-1.59-7.02-2.82-14.66-5.34-21.38,22.15,2.51,44.7,2.52,67.02,3.76,54.92,3.05,110.15,5.97,165,10.31,19.92,1.58,60.88,11.69,75.53-5.11,6.48-7.43-.92-19.56,6.49-21.71l54.39,2.43Z"/>
      <path class="cls-4" d="M1281.56,152.81c-3.5,12.65-9.03,25.04-13.12,37.5-17.81-1.33-36.01-1.29-53.94-.98-13.24.23-26.99,1.54-40.24,1.95-32,1-102.01-.76-128.98,12.58-2.82,1.39-5.87,4.51-8.65,5.41-6.86,2.23-47.62,1.55-58.3,1.7-46.54.65-93.29-.33-139.69-1.02-15.47-.23-30.98.25-46.44.04-4.36-16.68-9.58-33.55-12.19-50.62l501.56-6.56Z"/>
      <path class="cls-3" d="M640.31,374.06c-11.61.23-23.7.93-35.62.94-1.13-5.76-5.16-12.15-6.16-17.78-1.09-6.13,5.65-21.05,7.57-28.16,1.49-5.51,3.3-11.86,4.11-17.46,5.91-41.04,6.27-85.75,10.43-127.38.51-5.14,1.6-10.38,2.34-15.48.83,8.58,2.44,17.21,3.27,25.8,3.01,31.17,8.77,87.38,2.4,116.76-1.68,7.74-8.44,13.57-8.03,20.08.89,14.19,11.77,31.3,19.7,42.68Z"/>
      <path class="cls-3" d="M600,375c-6.97,1.74-15.22.92-22.5.94,6.96-1.73,15.22-.93,22.5-.94Z"/>
      <path class="cls-2" d="M1445.62,362.81h-73.12c2.85-7.85,4.44-17.84,7.96-25.32,5.01-10.66,5.15-12.19,8.47-23.4,3.75-12.68,12.26-25.9,16.85-38.47,1.93,17.96.61,36.37,4.01,54.12,9.43,13.36,23.21,22.93,35.83,33.07Z"/>
      <path class="cls-3" d="M1184.06,256.88c.85-3.12,5.68-22.61,6.57-23.45.28-.26,5.36,1.63,7.49.01.06,1.68.07,3.36-.11,5.04-1.87,17.06-8.67,36.85-9.27,53.58-.14,4.03.71,4.62,1.88,7.94-5.01,4.44-3.07,9.5-4.17,15.05-.68,3.43-2.05,6.76-3.08,10.09-.49,1.58.66,3.55-2.12,2.98-.02-.21-1.02-4.1-1.87-3.75.13,5.92-3.68,12.08-4.47,17.56-2.07,14.36,1.31,37.55-6.61,50.58l-25.48,32.68c-3.59,1.98-7.94-6.97-11.29-4.79-.98.63-7.22,13.16-7.47,15.52-10.3-.01-20.64.03-30.94,0,3.21-7.01,9.67-12.47,12.19-19.69,2.69-.47,4.87.38,8.19-.72,4.93-1.63,24.98-14.41,30.25-18.03,1.73-1.19,3.86-1.98,4.9-4l11.03-30.68c-15.3-.03-30.64.02-45.93,0-.31,0-.63,0-.94,0l45.47-44.06,20.89-11.44c1.3-2.23-.43-28.39.19-34.03.5-4.58,3.37-11.57,4.69-16.4Z"/>
      <path class="cls-6" d="M1113.75,362.81c15.3.03,30.64-.02,45.93,0l-11.03,30.68c-1.04,2.02-3.17,2.81-4.9,4l-.89-5.2-29.11-29.48Z"/>
      <path class="cls-6" d="M789.38,575.62c.53,2.15,4.14,9.05,3.35,10.31-11.89,7.87-23.75,17-36.25,23.86-1.06.58-2.21.29-2.73.52,3.71-5.36,17.76-13.61,20.14-18.77,1.55-3.35-.82-6.2-.45-9.36.61-5.32,11.81-5.23,15.94-6.56Z"/>
      <path class="cls-5" d="M1105.31,416.25c-2.52,7.22-8.98,12.68-12.19,19.69-7.45-.02-15.07.33-22.5,0-1.04-.05-3.06.64-2.81-.93,13.06-4.9,23.53-16.33,37.49-18.76Z"/>
      <path class="cls-6" d="M751.88,611.25c-.78.8,1.36.32-1.88,1.88-.33-1.71.18-2.17,1.88-1.88Z"/>
      <path class="cls-3" d="M1481.25,545.62c1.18,8.19-6.52,16.41-8.44,24.38-15.84,1.39-38.89,3.13-54.38,1.88l.94-22.5c7.7.58,16.66-1.88,23.91-1.88h16.88c5.64,0,14.8-1.36,21.09-1.88Z"/>
      <path class="cls-5" d="M1339.69,540.94c1.93,4.57.54,10.09.94,15-19.19.77-38.44,1.52-57.62,2.81-2.4-1-14.5-12.22-12.69-14.06,1.24-.03,2.5.01,3.75,0,21.47-.33,44.15-2.29,65.62-3.75Z"/>
      <path class="cls-4" d="M1419.38,549.38l-.94,22.5c-9.47-.77-17.71-5.63-25.6-10.49-2.4-1.48-8.06-6.9-10.02-7.32v-16.88c2.47-.14,8.04-1.07,9.62-.8,6.5,1.14,14.72,12.06,26.94,12.98Z"/>
      <path class="cls-3" d="M1382.81,537.19v16.88c-3.76-.81-8.16.94-10.78.94h-19.69c-2.79,0-8.08.79-11.72.94-.4-4.91.99-10.43-.94-15,14.05-.95,28.79-2.93,43.12-3.75Z"/>
      <path class="cls-5" d="M1501.88,542.81l-6.56,23.44c-7.44,1.32-14.83,3.08-22.5,3.75,1.92-7.97,9.62-16.19,8.44-24.38,6.4-.52,14.69-2.64,20.62-2.81Z"/>
      <path class="cls-5" d="M1181.25,328.12c2.36,21.65-1.65,46.66-.06,68.85l-18.69,38.96c-12.8,0-25.64.01-38.44,0,.25-2.35,6.49-14.88,7.47-15.52,3.35-2.18,7.7,6.77,11.29,4.79l25.48-32.68c7.91-13.03,4.54-36.22,6.61-50.58.79-5.49,4.6-11.64,4.47-17.56.84-.36,1.84,3.54,1.87,3.75Z"/>
      <path class="cls-2" d="M351.99,1041.52c-51.84,2.3-103.71-.98-155.62-2.81l-68.87,4.73c-21.06,8.16-43.96,14.46-65.62,21.56-13.08,4.29-27.58,7.69-40.29,12.68-7.33,2.87-14.13,7.27-21.58,9.82v17.27h1920v-16.33c-7.88,6.2-14.48,5.82-23.44,7.5-7.21,1.35-14.31,2.6-21.56,3.75-8.93,1.42-18.15,4.24-27.18,3.29,8.03-7.72,16.14-19.06,24.84-25.79,5.38-4.16,13.09-7.01,18.97-11.03,9.45-6.46,17.82-16.12,28.37-20.84v-140.62c-10.37,2.77-8.43,10.17-20.32,5.79-17.38-6.4-29.96-20.31-50.22-17.74-15.72,2-23.32,12.09-40.59,11.05-29.04-1.75-60.1-11.06-89.03-15.11-11.6,1.3-27.92,14.32-39.12,12.96-2.86-.35-5.52-1.77-8.22-2.58-13.39-4-24.18-10.49-38.44-11.25-8.92-.48-21.56-.22-30.39,1.02-8.07,1.13-11.77,7.32-22.17,5.13-11.09-2.34-6.15-6.57-20.53-.96-3.93,1.53-14.37,7.8-17.47,7.9-3.75.13-5.47-2.97-7.87-4.65-19.88-13.95-26.64-14.76-49.69-6.56-30,10.66-58.87,24.81-89.01,35.21-8.76.78-20.02,2.58-28.69,1.41-1.78-.24-17.54-11.18-21.35-13.34-4.87-2.75-18.55-10.5-23.13-11.64-3.97-.99-7.42,3.4-11,4.1-8.76,1.73-25.46-14.31-33.99-17.62-4.79-.13-11.32-1.88-15.47-1.88h-14.06c-.45,0-1.43-1.02-3.48-.8-1.45.16-8.63,2.43-10.13,3.13-4.62,2.17-9.43,9.72-14.54,9.92-3.56.14-9.6-3.94-12.92-5.87-3.96-2.3-20.31-14.57-22.72-14.81-4.41-.44-18.51,8.6-22.93,11.24-3.58,2.14-9.82,4.75-12.65,7.51-3.48,3.39-3.66,8.9-7.08,11.67-2.6,2.12-13.92,5.29-17.32,5.27-7.77-.04-21.71-13.35-27.64-11.87-2.39.6-5.8,3.73-8.21,4.14-5.65.95-24.48-13.47-31.46-15.96-4.87-1.74-9.68-1.91-14.71-2.64-11.47-1.66-20.59-4.22-31.24,2.04-12.69,7.46-8.83,13.61-25.64,4.69-8.18-4.34-15.04-10.76-23.23-15.07-12.89,3.1-24.79,9.23-37.08,13.97-4.22,1.63-12.33,5.8-16.37,5.67-6.92-.22-13.85-7.54-20.49-9.18-17.1,5.23-32.66,17.32-50.75,18.55-5.77.39-18.11.74-23.52,0-5.94-.81-13.37-11.62-18.23-15.52-6.91-5.55-22.05-9.4-30.95-11.71-12.15-3.15-11.55-2.9-23.42,1.42-7.64,2.78-14.96,6.93-22.52,9.83-4.09,1.57-11.48,4.84-15.47,4.76-7.24-.14-15.41-7.56-22.43-6.6-17.86,6.95-35.71,14.67-54.2,19.9-15.65,4.43-17.68,3.29-32.56-2.62-11.85-4.71-25.18-14.04-38.05-14.53-11.82-.44-24.83,22.53-36.03,17.35-1.05-.48-2.03-2.32-3.44-3.11-5.51-3.11-14.15-6.7-20.49-6.53-6.29.17-13.36,6.07-18.96,7.1-9.82,1.81-30.61-13.14-40.99-16.7-13-4.45-24.32-4.96-37.3-.66-8.86,2.94-23.96,12.74-31.26,13.74-16.61,2.28-32.67-2.08-48.45-6.28-13.93,5.66-27.84,11.47-41.63,17.45-5.4,2.34-12.32,7.18-17.6,8.65-5.55,1.54-24.48,2.93-29.62,1.4-3.79-1.13-16.74-10.23-21.84-12.85-17.18-8.85-43.38-23.03-62.03-25.15-15.65-1.78-31.88-1.66-47.6-1.67l-37.79,21.35c-8.67.91-21.47-14.02-28.97-14.1-9.64-.1-14.51,11.92-18.02,12.97-5.25,1.57-9.97-2.49-15.28-1.68v139.69c4.65-1.07,8.96-5.69,13.65-6.51,19.18-3.36,41.01-2.21,60.46-5.16l65.58-27.7c-5.06-8.27-25.41-23.86-33.75-30.94-.68-.57-3.46-.15-2.81-2.81,3.75-.55,8.74-1.81,12.45-.74,2.9.84,9.8,7.89,14.04,9.39,3.57,1.27,7.82,1.1,11.67,2.4,7.32,2.46,17.09,9.18,24.95,12.55,6.95,2.97,16.93,5.16,22.87,8.07,2.09,1.02,3.05,3.48,5.44,3.94,8.18,1.57,21.77-.72,30.9.03,10.74.89,29.3,7.76,38.51,7.37,1.96-.08,10.82-5.33,13.99-6.46,23.11-8.26,51.96,2.78,75.96,2.91,12.34.07,25.98-.42,38.42-1.03,3.34-.16,6.96-1.93,10.33-1.93,4.32,0,8.72,2.42,11.72,2.88,2.07.32,5.93-1.91,8.43.46-7.37,6.27-14.63,12.63-22.5,18.29-20.52,14.75-23.82,12-48.32,13.09ZM852.64,1070.63c60.5-14.38,119.15-27.88,181.08-35.51,13.93-1.72,43.77-6.99,56.14-5.74,11.38,1.15,15.2,12.66,19.38,21.86,6.34,13.96,4.94,23.39,20.49,30.14,18.02,7.82,42.84,14.47,62.04,20.46,1.47.46,2.95.72,4.49.67-.86,1.55-5.36,1.8-6.99,1.9-11.95.77-25.86.08-38.01-.04-1.86-.02-3.78.14-5.62,0-.79-.06-1.62-.02-1.88-.94-19.44-1.1-18.69,2.62-35.62-8.44-10.81-7.05-16.29-11.05-22.23-23.24-3.57-7.33-3.62-17.18-12.46-19.88-17.55-5.37-60.5,4.18-79.69,8.44-26.73,5.93-54.33,15.25-80.17,24.36-9.92,3.5-20.45,9.23-30.25,11.94-13.19,3.63-27.71,4.17-41.13,6.79l-2.14-.43c-9.93-7.46-19.98-14.79-30.05-22.04-4.71-3.39-9.36-6.95-14.06-10.31-4.66-3.33-10.4-5.69-14.06-10.3,23.72,2.29,47.03,7.98,70.76,10.3Z"/>
    </g>
  </g>
</svg>