<?xml version="1.0" encoding="UTF-8"?>
<svg id="Layer_2" data-name="Layer 2" xmlns="http://www.w3.org/2000/svg" viewBox="0 0 1920 1087.93">
  <defs>
    <style>
      .cls-1 {
        fill: #3e2833;
      }

      .cls-2 {
        fill: #292a67;
      }

      .cls-3 {
        fill: #6f7efb;
      }

      .cls-4 {
        fill: #829cdf;
      }

      .cls-5 {
        fill: #fcecb1;
      }

      .cls-6 {
        fill: #7048bc;
      }

      .cls-7 {
        fill: #9f9afd;
      }

      .cls-8 {
        fill: #ca71ef;
      }

      .cls-9 {
        fill: #3c319f;
      }

      .cls-10 {
        fill: #675fc7;
      }

      .cls-11 {
        fill: #4a55b7;
      }

      .cls-12 {
        fill: #dfae83;
      }

      .cls-13 {
        fill: #fcb359;
      }

      .cls-14 {
        fill: #4c4de4;
      }
    </style>
  </defs>
  <g id="Cyber_Space" data-name="Cyber Space">
    <g>
      <path class="cls-2" d="M0,169.69V0h1920v167.81c-5.86-5.41-12.78-6.63-18.61-.32l-80.34,132.46c-2.91,5.02-8.63-2.84-11.22-5.56-6.05-6.37-23.12-27.9-29.52-30.48-3.83-1.54-7.22-1.97-11.31-1-9.63,2.27-25.43,26.88-34.12,33.4l-2.36.47-110.14-119.61c-23.92-22.55-58.87-22.74-83.01-.45l-151.42,164.52-5.11-5.16-66.56-82.5c-16.79-14.56-41.27-12.28-55.31,4.74l-165.61,205.69-2.76-.82-73.52-89.6c-9.99-8.17-21.54-9.54-33.76-6.08h-362.34s.47.94.47.94c.69,8.17,4.9,17.93,8.44,25.31.98,1.85,1.22,4.95,1.88,6.56-.86-.66-1.48-.91-2.27-1.91-26.32-33.46-49.23-75.48-76.51-107.28-17.66-20.59-39.78-16.7-55.65,3.35-11.91,15.05-22.09,32.41-33.93,47.63-2.21,2.45-5.32,2.54-7.86.51l-187.04-217.95c-62.89-50.98-93.5,13.8-130.32,52.54-1.42,1.49-1.99,2.44-4.24,2.8-5.14.81-33.47-1.23-34.69,0,.61,11.83-.8,24.39,0,36.13.18,2.67,2.32.98,3.76,1.38-13.08,15.23-26.14,32.44-39.83,46.89-.9.95-3.46,4.03-4.68,3.74L0,169.69ZM372.19,13.12h-36.56v36.56h36.56V13.12ZM1699.69,32.81h-36.56v36.56h36.56v-36.56ZM1114.69,106.88h-36.56v36.56h34.69v32.81h36.56v-37.5h-34.69v-31.88ZM625.31,257.81c-.1.35-1.51,1.22-1.77,2.5l.83,1.25h374.06c.12-.75-.88-1.58-.94-1.88-9.24-46.05-52.55-93.45-93.12-115.47-106.25-57.67-246.25-3.39-279.07,113.6ZM1839.38,202.5h-36.56v36.56h36.56v-36.56ZM618.75,352.5h384.38c6.2-24.97,3.96-51.53,0-76.87l-382.06-.07-1.66,1.19c-.65,4.51-1.83,9.02-2.39,13.53-2.55,20.64-1.99,41.78,1.74,62.21Z"/>
      <path class="cls-11" d="M0,192.19l54.9,89.94c6.69,7.76,11.48,2.78,16.83-2.74,42.67-44.08,80.04-98.01,122.43-142.89,17.39-16.53,43.45-18.51,62.64-3.77l197.55,228.08c4.79,2.47,10.18,2.3,14.45-1.23,13.99-17.57,25.74-37.56,39.5-55.19,7.24-9.27,11.44-14.59,24.59-12.74,8.24,1.16,11.78,7.72,16.32,13.68,33.96,44.63,64.06,92.58,98.12,137.2,16.62,13.19,27.62-27.3,45.85-15.85l156.18,113.82c2.98.8,5.23.85,8.08-.42.89-.4,5.76-5.01,6.65-6.01.57-.65.53-2.14,1.22-2.95,39.53-46.55,76.78-95.08,115.78-142.07,7.85-8.57,22.83-8.98,31.44-1.39l75.44,92.37c2.4,2.81,5.84,5.14,9.47,2.87l172.4-212.91c16.28-14.16,31.75-10.91,45.47,4.27,23.57,26.07,43.78,58.63,67.55,84.32,3.58,3.87,4.37,5.95,8.92,1.47,45.01-48.41,88.73-98.15,134.01-146.3,26.18-27.84,48.47-50.07,87.68-22.97l114.95,124.11c3.2,1.67,7.61,1.71,10.62-.39l28.24-30.82c7.81-5.61,11.54-.84,16.83,4.59,9.53,9.78,18.1,20.69,27.63,30.49,3.37,3.01,7.58,2.19,11.11-.14l83.64-136.67c7.61-6.39,8.77,4.73,13.53,8.37v80.62c-7.69-2.14-12.23-4.89-20.67-3.33-30.69,5.68-83.57,73.63-104,98.5-5.65,6.89-42.2,54.73-45.69,55.62s-10.57-9.65-13.36-12.53c-19.77-20.45-42.91-45.04-65.22-62.3-26.89-20.8-36.32-10.26-59.01,8.44-14.18,11.68-29.17,25.4-42.7,37.93-30.61,28.36-59.58,58.67-88.33,88.86l-6.1-.02c-22.44-15.74-46.08-32.83-71.15-44.16-23.37-10.55-27.46-8.12-48.07,5.1-37.57,24.1-81.72,63.63-109.74,98.38-1.23,1.52-2.51,3.13-2.84,5.13l-113.78.13-11.85,42.06h215.62l10.31-42.19c9.99,0,20.01,0,30,0l-10.31,42.19h216.56l10.31-42.19h30l-10.31,42.19h210.94l10.31-42.19h30l-10.31,42.18h69.38v21.57l-75.85.09-16.03,61.78c-7.81.09-23.4-1.28-30,.94l15.94-62.81h-210.94l-23.44,89.06c-9.67,0-19.39,0-29.06,0l22.5-89.06h-216.56l-15.94,61.88c-9.98-.15-20.02.05-30,0l15.94-61.88h-215.62l-15.94,61.88c-9.67,0-19.39,0-29.06,0l15-61.88h-201.56l-15.94,61.88c-6.12.11-14.43-.97-19.96,1.13-3.1,1.18-10.12,8.28-12.85,11.05l18.75-74.06h-202.5l-23.44,89.06c-9.67,0-19.39,0-29.06,0l22.5-89.06h-215.62l-15.94,61.88c-9.67-.13-19.39.04-29.06,0l15.94-61.88h-204.37l-15.94,61.88h-30l15.93-61.87H0v-21.57l144.34-.04,10.35-42.15c2.57.02,5.16-.04,7.97-.09,2.66-.05,6.71,2.99,7.03-1.78,6.28,1.75,8.59,1.66,15,1.88l-10.31,42.19h203.44l11.25-42.19c3.74-.05,7.52.04,11.26,0v-1.87c1,.19,1.7.91,1.87.94,1.13.21.89,0,.94,0,4.56.71,10.33.79,15,.94l-10.31,42.19h215.62l10.31-42.19c9.99,0,20.01,0,30,0l-10.31,42.19h202.5l11.25-42.18c-47.8-.03-95.64.02-143.43,0-.6-2.32-2.65-4.8-4.21-6.57-7.4-8.46-37.61-39.07-47.1-41.02-17.21-3.55-25.77,17.25-37.26,25.16-.83.57-1.28,1.33-2.37.47-28.78-41.03-56.05-83.33-88.15-121.91-8.29-9.96-32.99-39.55-44.02-43.17-14.95-4.91-29.02,12.61-38.48,22.49-12.55,13.11-23.7,27.6-35.58,41.3l-34.21,44.49c-28.33-29.09-56.75-59.48-88.18-85.27-7.22-5.92-23.07-19.7-31.85-20.65-12.3-1.33-25.79,9.13-35.84,15.72-15.51,10.17-30.12,21.89-45.29,32.55l-3,.31c-58.78-51.06-118.52-102.78-188.21-138.59v-79.69ZM1098.75,546.56h-201.09l-11.72,42.19h201.56l11.25-42.19Z"/>
      <path class="cls-8" d="M378.75,724.69h.94l16.87,21.56c-8.61.04-20.57-1.04-28.65-.05-1.03.13-2.08-.05-2.78.97l-32.33,122.83h214.22c2.08-2.75,2.77-6.88,3.76-10.3,9.4-32.42,18.4-66.65,26.71-99.38,9.67,0,19.39,0,29.06,0-9.92,34.7-17.47,70.18-27.9,104.76l-.23,4.93h202.5l29.06-109.69c.31,0,.63,0,.94,0,6.56-.09,13.21.42,19.74-.42,3.22-.99,8.52-8.26,11.2-10.83l-30.94,120.94h201.56l32.81-123.74h-199.68s18.75-21.57,18.75-21.57c.94,0,1.88,0,2.81,0,154.66.48,309.4,0,464.06,0h3.75l15.94,20.62c-.12,0-1.02.97-2.26.98-9.54.06-19.1-.17-28.63,0l-31.92,123.71h216.56l29.06-109.69c.31,0,.63,0,.94,0,9.36,0,18.76,0,28.12,0l-28.12,109.69h209.53l2.1-3.53c8.81-35.53,19.59-70.64,28.37-106.16,4.05-.13,8.7.93,12.15-1.45l31.92-33.24,101.25-.94v21.56l-112.46.04-31.95,122.29,144.41,1.41v18.75l-218.02-.05-6.98,1.93-165.34.13-10.91,40.18c-9.99.01-20.01,0-30,0l10.31-40.31h-216.09l-11.72,40.31c-9.99-.03-20.01.06-30,0l11.25-40.3h-86.25s-6.97-1.95-6.97-1.95h-413.57l-6.97,1.94-166.26-.04-10.93,40.36c-9.67.01-19.39,0-29.06,0l9.38-40.31h-214.22l-11.72,40.31c-9.67-.03-19.39.06-29.06,0l10.31-40.31c-28.48-1.01-57.88,1.34-86.25,0-2.49-.12-5.15-2.26-7.93-1.91l-203.01.04v-18.75l68.92-.92,32.36-121.42-101.28-1.41v-21.56h378.75ZM335.62,746.25h-204.38l-31.88,123.75h203.44l32.81-123.75ZM1290.94,746.25h-215.16l-33.28,123.75h214.22l34.22-123.75Z"/>
      <path class="cls-7" d="M210.94,890.62c9.85,10.46,18.45,22.65,28.58,32.83,3.38,3.39,6.1,6.89,11.24,7.51,10.32,1.24,25.19-.09,36.12-.02,9.67.06,19.39-.03,29.06,0,72.17.2,144.39.06,216.56,0,9.67,0,19.39.01,29.06,0,46.32-.05,92.67.22,139-.22,4.15-.59,6.26-4.23,9.15-6.78l29.04-33.31,6.97-1.94h413.57l6.97,1.94c-.02,1.84,1.27,2.61,2.32,3.77,9.22,10.13,18.64,22.45,28.13,31.88,2.52,2.5,4.75,4.25,8.44,4.69,10.31,1.24,25.19-.09,36.12-.02,9.99.06,20.01-.03,30,0,72.48.2,145.02.06,217.5,0,9.99,0,20.01.01,30,0,46.01-.05,92.05.22,138.07-.21l6.35-3.96,31.83-36.13,6.98-1.93,218.02.05v29.06c-52.79.21-105.64-.28-158.44,0-10.02.05-20.2.73-30,.94-.45,0-1.9-.97-3.24-.94-6,.16-12.14-.78-17.73,2-10.47,9.82-18.63,22.11-28.7,32.24-3.16,3.18-6.2,6.94-10.87,7.88-53.88.15-107.79,0-161.66.06-9.67,0-19.39,0-29.06,0-72.48.05-145.02.2-217.5,0-9.67-.03-19.39.04-29.06,0-13.29-.06-29.91,1.29-42.7.05-6.36-.62-8.94-4.22-13.09-8.47-8.68-8.88-17.25-21.93-26.19-30.06-1.74-1.58-3.63-2.78-5.88-3.49-38.83-.44-77.68-.16-116.5-.21-9.99-.01-20.01.01-30,0-67.16-.08-134.4-.36-201.56,0-9.96.05-20.06-.36-30,0-13.24.48-12.25,1.07-21.11,10.3-7.96,8.3-16.64,21.37-24.92,28.52-1.75,1.51-3.98,2.59-6.22,3.15-54.14.43-108.31.17-162.44.22-9.99,0-20.01,0-30,0-71.86.05-143.77.19-215.62,0-9.67-.03-19.39.05-29.06,0-13.07-.07-29.14,1.22-41.75.04-3.97-.37-6.27-1.22-9.24-3.88-10.21-9.13-21.89-28.8-32.39-36.05-1.81-1.25-3.31-1.71-5.46-2.04-34.75-.45-69.54-.25-104.28-.25-9.99,0-20.01,0-30,0H0v-29.06l203.01-.04c2.78-.35,5.44,1.8,7.93,1.91Z"/>
      <path class="cls-7" d="M121.88,672.19h30c68.1,0,136.27-.31,204.38,0,9.67.04,19.39-.13,29.06,0,5.12.07,11.59-.6,16.43-.02,8.36.99,16.84,19.14,22.95,24.86,1.28,1.2,2.42,2.13,4.27,2.29,55.13.13,110.29.01,165.41.06,9.67,0,19.39,0,29.06,0,63.59-.02,127.2,0,190.8.02,6.49-.76,12.03-10.6,16.39-15.02,2.73-2.78,9.75-9.87,12.85-11.05,5.53-2.1,13.84-1.03,19.96-1.13,67.4-1.19,135.08.04,202.5,0,9.67,0,19.39,0,29.06,0,71.85-.04,143.77-.34,215.62,0,9.98.05,20.02-.15,30,0,5.62.09,15.99-1.1,20.55,1.48,4.86,2.76,13.62,18.48,18.83,23.36,1.28,1.2,2.43,2.13,4.27,2.29,55.45.13,110.91.01,166.35.06,9.67,0,19.39,0,29.06,0,63.25-.04,126.54.07,189.8-.05,8.09-1.49,20.45-23.45,28.64-26.2,6.6-2.22,22.19-.85,30-.94,30.6-.34,61.27.25,91.88,0v20.62l-98.69.21c-2.3.67-4.1,1.96-5.87,3.51-8.53,7.48-18.1,22.05-26.67,28.64-2.11,1.63-4.23,3.11-7.03,3.28l-417.73-.44c-11.09-9.97-18.33-24.15-29.03-34.72l-467.35-.51c-2.31-.11-3.51,1.12-5.15,2.35-10.1,7.53-19.81,22.93-29.78,31.42l-5.3,1.95-415.39-.04c-3.34.01-5.39-2.55-7.49-4.7-8.12-8.3-14.97-20.77-22.93-29.57l-2.39-1.36-379.2-.02v-20.62h121.88Z"/>
      <path class="cls-4" d="M633.75,400.31c.34.26.59.67.94.94,1.75,4.05,4.26,9.12,6.69,12.51,4.76,6.63,8,10.45,17.02,8.8,1.57-.29,3-.51,2.54-2.56.31-.08.68.1.94,0,4.24-1.58,9.08-7.24,11.25-11.25.22-.14.71.14.94,0,1.31-.81.85-1.83.94-1.88.24-.13.68.12.94,0,5.17-2.48,9.19-3.66,15.05-2.39,5.48,1.18,15.85,10.47,21.51,13.64.24.13.71-.14.94,0,.52,3.51,7.24,7.07,10.31,7.5,6.04,5.2,12.47,10.09,18.75,15,16.22,12.68,34.95,25.35,52.5,37.5,5.03,3.48,17.37,15.23,22.5,15.94-.14,2.11,1.44,2.42,2.68,3.42,7.05,5.69,16.67,13.19,24.22,17.97,6.74,4.27,9.66,6.14,16.27-.25,6.2-6,10.93-15.15,15.9-21.13,4.63-5.58,9.43-11.29,14.06-16.88.12-.15,2.15-.41,3.32-1.81,6.73-8.09,18.69-26.39,25.68-32.26,1.24-1.04,2.67-.47,2.87-.63.57-.44-.93-1.76-.94-1.87-.11-1.48,8.55-11.24,10.31-14.06.38-.6.91-1.09.94-1.88,3.7-.71,5-3.74,6.56-6.56.13-.24-.13-.69,0-.94,3.14-.08,2.87-1.97,3.75-3.75.13-.26-.13-.7,0-.94,1.37-.09,2.5-.73,3.35-1.79,1.54-1.92,2.97-4.89,4.15-6.65.14-.22-.14-.72,0-.94,4.26-2.22,7.28-6.01,9.38-10.31.12-.24-.11-.66,0-.94,2.98-.16,2.95-1.7,3.75-3.75.11-.27-.11-.67,0-.94,3.14-.08,2.87-1.95,3.75-3.75.12-.25-.12-.68,0-.94,3.25.04,2.87-2.32,3.75-3.75.14-.23-.14-.72,0-.94,4.07-2.28,7.57-5.29,11.59-7.68,1.23-.73,3-.29,2.48-2.63,12.22-3.46,23.77-2.09,33.76,6.08l73.52,89.6,2.76.82,165.61-205.69c14.03-17.02,38.52-19.29,55.31-4.74l66.56,82.5,5.11,5.16,151.42-164.52c24.13-22.28,59.08-22.1,83.01.45l110.14,119.61,2.36-.47c8.7-6.52,24.49-31.13,34.12-33.4,4.09-.96,7.48-.54,11.31,1,6.41,2.58,23.48,24.11,29.52,30.48,2.59,2.73,8.31,10.58,11.22,5.56l80.34-132.46c5.82-6.3,12.75-5.08,18.61.32v22.5c-4.75-3.63-5.92-14.76-13.53-8.37l-83.64,136.67c-3.53,2.32-7.74,3.14-11.11.14-9.53-9.8-18.1-20.71-27.63-30.49-5.29-5.43-9.02-10.2-16.83-4.59l-28.24,30.82c-3.01,2.1-7.42,2.06-10.62.39l-114.95-124.11c-39.21-27.1-61.5-4.87-87.68,22.97-45.29,48.15-89,97.88-134.01,146.3-4.55,4.49-5.33,2.41-8.92-1.47-23.77-25.69-43.98-58.25-67.55-84.32-13.72-15.17-29.19-18.43-45.47-4.27l-172.4,212.91c-3.63,2.27-7.07-.06-9.47-2.87l-75.44-92.37c-8.61-7.59-23.59-7.18-31.44,1.39-39,46.99-76.25,95.52-115.78,142.07-.69.81-.65,2.3-1.22,2.95-.88,1-5.75,5.61-6.65,6.01-2.85,1.27-5.09,1.22-8.08.42l-156.18-113.82c-18.22-11.46-29.23,29.03-45.85,15.85-34.06-44.62-64.15-92.57-98.12-137.2-4.54-5.96-8.08-12.53-16.32-13.68-13.15-1.84-17.35,3.47-24.59,12.74-13.76,17.62-25.51,37.62-39.5,55.19-4.27,3.54-9.67,3.71-14.45,1.23l-197.55-228.08c-19.19-14.75-45.25-12.76-62.64,3.77-42.39,44.88-79.76,98.8-122.43,142.89-5.35,5.52-10.14,10.51-16.83,2.74L0,192.19v-22.5l60.49,98.44c1.23.29,3.78-2.79,4.68-3.74,13.69-14.45,26.76-31.66,39.83-46.89,9.52-11.09,20.03-21.77,29.07-33.28,1.02-1.3,1.75-2.54,1.87-4.22,2.24-.35,2.82-1.31,4.24-2.8,36.82-38.73,67.43-103.52,130.32-52.54l187.04,217.95c2.54,2.03,5.65,1.94,7.86-.51,11.84-15.22,22.02-32.58,33.93-47.63,15.87-20.06,37.99-23.95,55.65-3.35,27.28,31.81,50.19,73.82,76.51,107.28.79,1,1.41,1.24,2.27,1.91Z"/>
      <path class="cls-9" d="M0,692.81l379.2.02,2.39,1.36c7.95,8.8,14.8,21.27,22.93,29.57,2.1,2.15,4.15,4.71,7.49,4.7l415.39.04,5.3-1.95c9.97-8.48,19.68-23.89,29.78-31.42,1.65-1.23,2.85-2.45,5.15-2.35l467.35.51c10.7,10.57,17.94,24.75,29.03,34.72l417.73.44c2.8-.17,4.92-1.65,7.03-3.28,8.57-6.6,18.14-21.16,26.67-28.64,1.77-1.55,3.57-2.84,5.87-3.51l98.69-.21v13.12l-100.89.87c-1.28.06-1.74,1.59-2.23,1.95-9.51,6.97-18.91,22.46-28.1,29.55-2.11,1.63-4.24,3.11-7.03,3.28h-415.35c-5.64-.66-11.31-10.56-14.97-15.08-.7-.87-1.98-1.34-2.36-1.82-3.65-4.53-6.95-11.15-11.23-15.49-.94-.95-1.8-1.98-2.89-2.77-1.16-.78-2.47-.38-3.7-.49-9.25-.82-20.47.06-30,0-71.79-.48-143.79-.05-215.62,0-9.99,0-20.01,0-30,0-62.65.04-125.33-.01-187.99-.02-6.88.81-13.8,12.34-18.26,16.9-3.7,3.78-14.29,15.06-17.85,17.3-1.67,1.05-3.03,1.65-5.07,1.49l-417.46-.75c-2.88-1.17-11.66-12.9-14.3-16.17-4.66-5.76-8.74-12.18-13.53-17.88-1.56-1.36-3.44-.74-5.22-.87-9.52-.67-20.3.06-30,0-68.03-.43-136.66,0-204.37,0-9.66,0-19.77,0-29.06,0H0v-13.12Z"/>
      <path class="cls-9" d="M1920,917.81v115.31h-188.43s30-115.31,30-115.31c52.79-.28,105.64.21,158.44,0Z"/>
      <path class="cls-14" d="M1863.75,312.19c-6.39,12.02-15.28,31.38-20.13,44.08-.69,1.81-1.58,3.57-1.43,5.6,26.16-.69,52.33.45,77.81,6.57v14.06c-28.07-5.66-56.64-8.08-85.34-6.12l-33.74,75.01c0,1.34,16.82,2.17,19.12,2.48,25.12,3.37,49.67,9.05,74.06,15.74l25.9-72.11v43.12l-11.32,34.1,11.32,4.34v15c-4.36-1.34-9.68-4.46-14.04-5.27-1.01-.19-1.64-.56-2.36.54l-17.34,57.23h-15l18.71-62.76c-30.13-9.93-61.67-15.07-93.28-17.94l-2.41.64-27.91,71.34c-.23,2.44,11.68,5.9,13.95,7.79-10.8,0-22.56.94-33.75.94-26.75-12.25-55.41-20.08-83.92-27.28-.83-.02-1.62.11-2.34.55-1.66,1.01-10.31,23.01-11.24,26.73-5.02,0-10.91-.94-15-.94l11.8-28.1-.56-2.36c-26.84-7.31-55.13-9.33-80.97-20.04l-33.4,51.43c-5.92,0-11.89,0-17.81,0l36.57-56.76-1.52-2.19-32.23-18.86c3.41-3.48,6.89-6.86,10.31-10.31,6.85,3.75,13.1,8.64,20,12.35,1.92,1.03,10.57,5.89,11.88,5.06l44.86-80.91c.7-2.7-3.25-4.31-5.49-4.94,3.64-3.28,7.8-6.34,11.25-9.38l5.22.07c5.86-7.27,12.61-14.08,19.15-20.7,1.09-1.1,3.45-4.25,5.29-5.5,9.25-6.28,12.04-2.34,19.09,2.68l-33.71,33.18c19.23,14.94,39.55,28.87,60.44,41.56l25.77-26.93c3.55,3.68,6.82,7.54,10.31,11.25l-22.05,21.57c-.47.67-.63,1.42-.4,2.22.33,1.11,11.98,6.84,14.03,7.6,14.11,5.25,46.52,1.85,63.3,2.32,3.42.1,6.99,1.82,10.61.84l31.97-71.63c.26-1.6.05-1.42-1.39-1.4-3.93.07-8.36,1.79-12.64.97,3.71-4.83,10.4-11.23,13.12-15,2.39-.02,7.18-.26,8.9-1.88,2.8-2.63,7.02-16.38,8.91-20.62,8.18-9.13,16.25-18.41,25.3-26.74,1.16-1.06,1.93-2.35,3.76-2.33ZM1571.25,482.8c25.79,9.3,53.32,12.5,79.96,18.64l25.87-56.61-62.11-41.65-43.72,79.63ZM1779.37,465c-3.73.63-7.21-.77-10.74-.98-17.27-1.02-43.38,3.01-58.89-2.04-4.33-1.41-18.21-9.77-20.71-9.24l-22.12,52.01,87.08,27.68,25.38-67.42Z"/>
      <path class="cls-14" d="M66.56,332.81c-14.82,13.13-36.67,22.05-43.13,42.17,24.61,6.77,46.01,20.6,68.03,32.85l30.41-32.83c3.5,2.87,7.5,6.23,11.25,9.38l-29.05,31.41,68.85,41.75,13.64-30.97c7.49.63,10.53-1.83,16.87-4.69-1.14,2.63-1.91,7.01-3.31,10.28-4.46,10.43-8.86,20.91-14.13,30.96l.03,1.87c22.53,12.81,45.65,25.12,69.96,34.25,12.11-18.61,22.54-38.39,30.87-59l-71.23-27.74c4.57-3.34,9.7-6.26,14.06-9.38l63.21,23.5,8.04-25.37c4.06,3.46,7.47,6.93,11.25,10.31,1.03,3.72-7.18,18.76-5.59,20.59l39.34,11.29c6.23,6.2,14.23,12.14,18.75,19.69-8.2-3.39-20.38-5.11-29.26-7.77-11.37-3.41-22.62-7.39-33.95-10.9l-31.08,60.88c25.23,10.9,51.57,19.91,78.31,26.19l28.17-56.2c2.51,2.54,5.4,4.96,7.99,7.49,1.15,1.12,1.78,3.28,2.32,3.76-2.86,6.99-6.24,14-9.82,20.65-2.05,3.79-16.72,26.8-14.56,29.04,12.65,1.94,24.98,6.04,37.5,8.44v1.87c-3.73.04-7.51-.05-11.25,0-15.6.2-31.27-.01-46.87,0l-80.03-28.2c-2.76.56-2.62,24.48-2.47,28.2-4.68-.01-9.39.02-14.06,0-.56-11.71.45-23.22,2.42-34.72l-69.32-33.79c-3.68,8.57-12.27,18.72-15.35,27.04-3.62,9.78-2.29,24.73-3.87,35.25.53,1.54,8.08,3.76,10.19,4.35-.32,4.78-4.37,1.74-7.03,1.78-2.81.05-5.4.11-7.97.09-7.36-.05-15.45.78-22.5-.94l-69.83-26.26-3.29,27.2c-4.68,0-9.39,0-14.06,0l3.61-32.67L0,494.06v-15l51.55,20.63c3.22-16.15,6.82-33.49,12.44-48.98,4.37-12.05,10.53-20.5,17.45-31.05-18.73-13.5-40.09-23.96-62.09-31.4L0,437.81v-42.19l4.7-11.71-4.7-.48v-15l10.17,1.73c6.29-22.17,28.9-32.01,44.2-46.73,4.23,2.91,8.19,6.5,12.19,9.38ZM94.39,427.58c-12.41,12.35-17.5,28.08-22.13,44.52-1.54,5.47-7.85,28.77-6.51,32.61l79.12,30.42c2.34-.41,1.16-9.98,1.38-12.47.53-6.04,1.58-16.33,3.45-21.87,1.72-5.11,17.21-27.53,15.83-30.17l-71.15-43.04Z"/>
      <polygon class="cls-10" points="1920 746.25 1920 870 1775.59 868.59 1807.54 746.29 1920 746.25"/>
      <path class="cls-3" d="M0,271.88c69.7,35.8,129.43,87.53,188.21,138.59l3-.31c15.18-10.66,29.78-22.38,45.29-32.55,10.05-6.59,23.54-17.05,35.84-15.72,8.78.95,24.63,14.72,31.85,20.65,31.43,25.78,59.85,56.17,88.18,85.27l34.21-44.49c11.88-13.69,23.03-28.19,35.58-41.3,9.46-9.88,23.53-27.4,38.48-22.49,11.03,3.62,35.73,33.2,44.02,43.17,32.1,38.58,59.38,80.88,88.15,121.91,1.09.86,1.54.1,2.37-.47,11.49-7.9,20.05-28.71,37.26-25.16,9.48,1.96,39.7,32.57,47.1,41.02,1.56,1.78,3.61,4.26,4.21,6.57-6.86,0-13.76,0-20.62,0-3.77-5.81-9.78-11.69-14.99-16.42-3.4-3.08-17.6-15.32-21.11-15.54-2.9-.18-4.04.87-6.11,2.41-7.57,5.62-18.98,25.42-27.72,25.75-4.19.16-7.63-2.7-10.15-5.65-7.82-9.16-16.68-24.96-23.99-35.54-2.78-4.02-5.98-7.75-8.44-11.25-6.27-8.94-12.51-23.38-21.56-30-4.75-10.65-13.49-19.09-20.62-28.12-2.88-3.65-5.44-7.63-8.44-11.25s-6.35-6.83-9.38-10.31c-8.79-10.12-17.56-21.62-28.11-30.48-8.86-7.44-8.47-6.34-16.9.94-6.54,5.65-12.36,13.3-17.8,19.23-3.64,3.97-6.97,8.34-10.31,12.19-13.81,15.93-27.45,31.87-40.31,48.75-3.24,4.26-6.23,9.89-9.37,14.06-4.34,5.75-12.15,18.88-20.62,11.25-.54-.48-1.17-2.64-2.32-3.76-2.59-2.53-5.48-4.95-7.99-7.49-3.49-3.52-7.99-10.45-12.19-12.19-4.52-7.55-12.52-13.48-18.75-19.69-11.16-11.1-22.22-21.56-33.75-31.88-3.78-3.38-7.19-6.85-11.25-10.31-7.93-6.77-16.19-14.93-25.02-20.45-2.56-1.6-3.9-3.2-7.3-3.06-5.12.22-32.24,19.25-38.27,23.49-.84.59-.57,1.83-.66,1.89-4.37,3.11-9.49,6.03-14.06,9.38-3.13,2.29-10.76,6.09-12.19,9.38-6.35,2.86-9.39,5.32-16.87,4.69-9.39-.8-19.96-13.93-27.17-20.17-8.64-7.47-17.52-14.68-26.26-22.02-3.75-3.15-7.75-6.5-11.25-9.38-18.51-15.18-36-28.33-55.31-42.19-4-2.87-7.95-6.46-12.19-9.38-17.57-12.1-35.44-23.84-54.38-33.75v-17.81Z"/>
      <path class="cls-3" d="M1920,270.94v18.75c-8.9-4.29-13.46-8.57-23.44-4.22-8.19,3.57-28.81,19.19-32.81,26.72-1.84-.02-2.61,1.26-3.76,2.33-9.05,8.32-17.12,17.61-25.3,26.74-6.79,7.58-12.06,14.54-17.81,22.5-2.73,3.77-9.42,10.17-13.12,15-13.83,18.02-26.99,36.56-39.91,55.24-6.26,5.92-14.77,8.48-22.63,4.02-4.85-2.75-16.14-16.71-20.9-21.76-3.49-3.71-6.76-7.57-10.31-11.25-16.19-16.8-33.46-34.24-52.5-47.81-7.05-5.02-9.83-8.96-19.09-2.68-1.84,1.25-4.2,4.4-5.29,5.5-7.84,4.83-15.98,11.64-23.02,17.81-1.14,1-1.23,2.7-1.36,2.82-3.45,3.03-7.61,6.09-11.25,9.38-24.87,22.42-47.71,44.68-71.25,68.44-3.42,3.45-6.9,6.83-10.31,10.31-6.78,6.9-24.54,28.27-32.57,29.78-12.98,2.44-17.44-3.98-26.94-10.16-1.24-.8-3.03-.69-3.31-.87-2.73-1.81-8.5-5.45-11.25-7.5-15.1-11.25-29.79-20.81-47.81-28.12-6.59-2.68-8.73-6.55-16.87-3.28-11.42,4.59-31.82,21.45-42.19,29.53-8.76,6.82-16.17,13.2-24.38,20.62-5.35,4.84-12.71,9.2-15.94,15.94-4.76,1.29-7.92,5.44-11.27,8.88-6.82,6.99-13.13,14.79-19.66,22.06-6.22,0-13.76.93-20.62.94.33-2,1.61-3.61,2.84-5.13,28.02-34.75,72.17-74.28,109.74-98.38,20.61-13.22,24.7-15.66,48.07-5.1,25.07,11.33,48.71,28.42,71.15,44.16l6.1.02c28.75-30.19,57.72-60.5,88.33-88.86,13.53-12.53,28.52-26.25,42.7-37.93,22.69-18.7,32.12-29.24,59.01-8.44,22.31,17.26,45.45,41.85,65.22,62.3,2.79,2.88,9.82,13.44,13.36,12.53s40.03-48.73,45.69-55.62c20.42-24.88,73.31-92.82,104-98.5,8.44-1.56,12.98,1.18,20.67,3.33Z"/>
      <polygon class="cls-10" points="0 746.25 101.28 747.66 68.92 869.08 0 870 0 746.25"/>
      <polygon class="cls-9" points="0 610.31 137.81 610.32 121.88 672.19 0 672.19 0 610.31"/>
      <path class="cls-2" d="M1920,382.5v15l-25.9,72.11c-24.39-6.7-48.95-12.37-74.06-15.74-2.3-.31-19.11-1.14-19.12-2.48l33.74-75.01c28.7-1.96,57.27.46,85.34,6.12Z"/>
      <path class="cls-9" d="M154.69,546.56l-10.35,42.15-144.34.04v-42.19h45c4.68,0,9.39,0,14.06,0,22.63,0,45.38.49,68.01.03,1.78-.04,3.65.41,5.12-.97,7.05,1.72,15.14.89,22.5.94Z"/>
      <path class="cls-2" d="M0,437.81l19.34-49.56c22,7.44,43.36,17.9,62.09,31.4-6.91,10.56-13.07,19-17.45,31.05-5.62,15.49-9.21,32.83-12.44,48.98L0,479.06v-41.25Z"/>
      <path class="cls-9" d="M1920,610.31v61.88c-30.6.25-61.27-.34-91.88,0l16.03-61.78,75.85-.09Z"/>
      <path class="cls-9" d="M1920,1053.75v26.25h-200.62c.3-3.34,5.85-25.98,7.18-26.29l193.45.04Z"/>
      <polygon class="cls-9" points="55.31 917.81 25.42 1032.58 0 1033.12 0 917.81 55.31 917.81"/>
      <path class="cls-2" d="M1920,289.69v78.75c-25.48-6.11-51.65-7.26-77.81-6.57-.16-2.02.73-3.79,1.43-5.6,4.85-12.7,13.74-32.07,20.13-44.08,4-7.53,24.63-23.15,32.81-26.72,9.98-4.35,14.54-.07,23.44,4.22Z"/>
      <path class="cls-9" d="M1871.25,546.56h48.75v42.19h-69.38s10.31-42.19,10.31-42.19c3.43,0,6.89,0,10.31,0Z"/>
      <path class="cls-2" d="M54.38,323.44c-15.3,14.72-37.91,24.56-44.2,46.73l-10.17-1.73v-78.75c18.93,9.91,36.8,21.65,54.38,33.75Z"/>
      <polygon class="cls-2" points="0 494.06 48.61 513.89 45 546.56 0 546.56 0 494.06"/>
      <polygon class="cls-11" points="112.5 705.94 107.2 723.79 0 723.75 0 705.94 112.5 705.94"/>
      <path class="cls-11" d="M1920,705.94v18.75l-101.25.94-4.69-.94c-1.16-1.04,5.11-13.26,2.82-15.93.49-.36.95-1.89,2.23-1.95l100.89-.87Z"/>
      <path class="cls-2" d="M1920,494.06v52.5h-33.75l17.34-57.23c.72-1.1,1.36-.73,2.36-.54,4.36.8,9.69,3.93,14.04,5.27Z"/>
      <path class="cls-6" d="M141.56,705.94l-3.75,17.81h202.97c3.13-5.09,3.77-11.99,5.16-17.81,9.7.06,20.48-.67,30,0l-3.75,17.81,6.56.94H0v-.94l107.2.04,5.3-17.86c9.29,0,19.4,0,29.06,0Z"/>
      <polygon class="cls-9" points="0 1053.75 19.68 1053.75 13.12 1080 0 1080 0 1053.75"/>
      <polygon class="cls-2" points="1920 479.06 1908.68 474.72 1920 440.62 1920 479.06"/>
      <polygon class="cls-2" points="0 383.44 4.7 383.92 0 395.62 0 383.44"/>
      <polygon class="cls-5" points="1114.69 106.88 1114.69 138.75 1149.38 138.75 1149.38 176.25 1112.81 176.25 1112.81 143.44 1078.12 143.44 1078.12 106.88 1114.69 106.88"/>
      <rect class="cls-5" x="335.62" y="13.12" width="36.56" height="36.56"/>
      <rect class="cls-5" x="1663.12" y="32.81" width="36.56" height="36.56"/>
      <rect class="cls-5" x="1802.81" y="202.5" width="36.56" height="36.56"/>
      <path class="cls-12" d="M618.75,352.5c-3.73-20.43-4.29-41.57-1.74-62.21.56-4.51,1.74-9.03,2.39-13.53l1.66-1.19,382.06.07c3.97,25.34,6.21,51.89,0,76.87h-384.38ZM1002.19,351.56c.08-1.31-.27-2.91.05-4.15,4.49-17.09,3.69-46.44.05-63.92-.45-2.15.85-5.99-1.64-6.8l-379.12.3c-2.65,3.28-1.34,7.58-1.91,11.21-1.63,10.39-2.15,20.41-2.79,31.04l2.86,32.32h382.5Z"/>
      <path class="cls-5" d="M135.94,180c-.12,1.68-.85,2.92-1.87,4.22-9.04,11.51-19.54,22.19-29.07,33.28-1.44-.4-3.58,1.29-3.76-1.38-.8-11.74.61-24.3,0-36.13,1.23-1.23,29.56.82,34.69,0Z"/>
      <path class="cls-12" d="M985.31,367.5c.52,2.34-1.25,1.9-2.48,2.63-4.02,2.39-7.51,5.4-11.59,7.68l8.9-9.38h-356.72s-.47-.94-.47-.94h362.34Z"/>
      <path class="cls-12" d="M625.31,257.81l2.3,2.81c120.95-3.21,244.08,4.26,364.78.04,1.78-.06,3.55.09,5.11-.98.06.29,1.06,1.12.94,1.88h-374.06l-.83-1.25c.26-1.27,1.67-2.14,1.77-2.5Z"/>
      <path class="cls-12" d="M660.94,420c.45,2.05-.97,2.28-2.54,2.56-9.02,1.65-12.26-2.18-17.02-8.8-2.43-3.38-4.94-8.46-6.69-12.51-.15-.35-.82-.65-.94-.94-.65-1.62-.89-4.71-1.88-6.56,2.64,5.51,12.63,23.62,17.29,26.3,3.45,1.98,8.15.84,11.77-.05Z"/>
      <path class="cls-9" d="M1579.69,699.38l23.44-89.06h210.94l-15.94,62.81c-8.19,2.75-20.55,24.72-28.64,26.2-63.26.11-126.55,0-189.8.05Z"/>
      <path class="cls-9" d="M1340.62,672.19l15.94-61.88h216.56l-22.5,89.06c-55.44-.04-110.9.08-166.35-.06-1.84-.16-2.99-1.09-4.27-2.29-5.22-4.88-13.97-20.6-18.83-23.36-4.55-2.58-14.93-1.4-20.55-1.48Z"/>
      <path class="cls-9" d="M385.31,672.19l15.94-61.88h215.62l-22.5,89.06c-55.12-.04-110.28.08-165.41-.06-1.85-.16-2.99-1.09-4.27-2.29-6.12-5.72-14.59-23.87-22.95-24.86-4.84-.57-11.31.09-16.43.02Z"/>
      <path class="cls-9" d="M623.44,699.38l23.44-89.06h202.5l-18.75,74.06c-4.35,4.42-9.9,14.26-16.39,15.02-63.6-.02-127.22-.05-190.8-.02Z"/>
      <path class="cls-9" d="M1095,672.19l15.94-61.88h215.62l-15.94,61.88c-71.85-.34-143.77-.04-215.62,0Z"/>
      <path class="cls-9" d="M151.88,672.19l15.94-61.88h204.37l-15.94,61.88c-68.1-.31-136.27,0-204.38,0Z"/>
      <path class="cls-9" d="M863.44,672.19l15.94-61.88h201.56l-15,61.88c-67.42.04-135.1-1.19-202.5,0Z"/>
      <path class="cls-9" d="M1461.56,545.62c16.85,0,34.43.94,51.56.94,5.92,0,11.89,0,17.81,0,19.67,0,39.39,0,59.06,0l-10.31,42.19h-216.56l10.31-42.19c7.48,0,15.61-.94,22.5-.94,21.49,0,44.13,0,65.62,0Z"/>
      <path class="cls-9" d="M1300.31,545.62c4.42,0,10.62.94,15.94.94,9.05,0,18.14,0,27.19,0l-10.31,42.19h-215.62l11.85-42.06,113.78-.13c6.87,0,14.41-.93,20.62-.94,11.82-.01,24.66,0,36.56,0Z"/>
      <path class="cls-9" d="M554.06,545.62c8.11.01,16.92.93,25.31.94,18.11.02,36.26,0,54.38,0l-10.31,42.19h-215.62l10.31-42.19c13.07.41,26.29-.07,39.38,0,5.05.03,10.81-.95,15-.94,26.85.1,54.74-.04,81.56,0Z"/>
      <path class="cls-9" d="M1649.06,546.56h97.5c11.19,0,22.95-.94,33.75-.94,16.54,0,33.81.93,50.62.94l-10.31,42.19h-210.94l10.31-42.19c4.74,0,10.17-.94,14.06-.94,4.09,0,9.98.94,15,.94Z"/>
      <path class="cls-9" d="M245.62,546.56c4.68.02,9.39-.01,14.06,0,27.48.08,55.02.02,82.5,0,15.6-.01,31.27.2,46.87,0l-11.25,42.19h-203.44l10.31-42.19c20.17.69,40.72-.07,60.94,0Z"/>
      <path class="cls-9" d="M703.12,546.56c6.86,0,13.76,0,20.62,0,47.8.03,95.64-.02,143.43,0l-11.25,42.18h-202.5l10.31-42.19c13.11,0,26.26,0,39.38,0Z"/>
      <polygon class="cls-9" points="1098.75 546.56 1087.5 588.75 885.94 588.75 897.66 546.56 1098.75 546.56"/>
      <path class="cls-2" d="M1780.31,545.62c-2.28-1.89-14.18-5.35-13.95-7.79l27.91-71.34,2.41-.64c31.61,2.87,63.16,8.02,93.28,17.94l-18.71,62.76c-3.43,0-6.89,0-10.31,0h-30c-16.82,0-34.08-.94-50.62-.94Z"/>
      <path class="cls-2" d="M457.5,546.56c-13.08-.07-26.31.41-39.38,0-4.67-.15-10.44-.23-15-.94h-.94c-.17-.03-.87-.74-1.87-.94-12.52-2.4-24.86-6.5-37.5-8.44-2.17-2.24,12.51-25.25,14.56-29.04,3.59-6.64,6.96-13.66,9.82-20.65,8.47,7.63,16.29-5.5,20.62-11.25l63.34,19.67c1.29,2.01-2.57,6.33-3.51,8.75-5.3,13.58-7.96,28.48-10.13,42.83Z"/>
      <path class="cls-2" d="M245.62,546.56c-20.21-.07-40.77.69-60.94,0-6.41-.22-8.72-.13-15-1.88-2.1-.58-9.66-2.81-10.19-4.35,1.58-10.52.25-25.47,3.87-35.25,3.08-8.32,11.68-18.47,15.35-27.04l69.32,33.79c-1.98,11.5-2.98,23.01-2.42,34.72Z"/>
      <path class="cls-2" d="M1634.06,545.62c-3.89,0-9.33.94-14.06.94h-30c-19.67,0-39.39,0-59.06,0l33.4-51.43c25.84,10.71,54.12,12.73,80.97,20.04l.56,2.36-11.8,28.1Z"/>
      <path class="cls-2" d="M703.12,546.56c-13.11,0-26.26,0-39.38,0-9.99,0-20.01,0-30,0-18.11,0-36.26.02-54.38,0-.85-2.33-5.19-3.19-6.14-4.69-1.77-2.82,7.93-16.89,10.06-19.98,4.86-7.05,10.8-13.36,15.76-20.33,7.31,10.59,16.16,26.39,23.99,35.54,2.52,2.95,5.96,5.81,10.15,5.65,8.74-.33,20.14-20.12,27.72-25.75,2.08-1.54,3.21-2.59,6.11-2.41,3.51.22,17.71,12.45,21.11,15.54,5.21,4.72,11.21,10.61,14.99,16.42Z"/>
      <path class="cls-2" d="M1316.25,546.56l16.05-32.24c.47-1.02,1.02-1.38,2.14-1.46,2-.14,10.78,1.98,13.26,2.72,17.09,5.07,34.68,15.46,51.99,20.68l-3.75,9.36c-6.89,0-15.02.93-22.5.94-9.99,0-20.01,0-30,0-9.05,0-18.14,0-27.19,0Z"/>
      <path class="cls-14" d="M402.19,545.62h.94s.19.21-.94,0Z"/>
      <polygon class="cls-10" points="1290.94 746.25 1256.72 870 1042.5 870 1075.78 746.25 1290.94 746.25"/>
      <polygon class="cls-10" points="335.62 746.25 302.81 870 99.38 870 131.25 746.25 335.62 746.25"/>
      <path class="cls-10" d="M845.62,746.25h199.68s-32.81,123.75-32.81,123.75h-201.56l30.94-120.94c1.16-1.11,1.79-2.43,3.75-2.81Z"/>
      <path class="cls-10" d="M1533.75,760.31l-29.06,109.69h-216.56l31.92-123.71c9.53-.17,19.09.06,28.63,0,1.24,0,2.14-.98,2.26-.98.31,0,.63,0,.94,0,1.66,3.52,9.26,14.33,12.68,14.98,56.4.07,112.81-.03,169.2.02Z"/>
      <path class="cls-10" d="M396.56,746.25c.31,0,.63,0,.94,0,3.23,4.63,7.63,13.39,13.57,14.08,55.47,0,110.96-.06,166.43-.02-8.31,32.74-17.31,66.96-26.71,99.38-.99,3.43-1.68,7.56-3.76,10.3h-214.22l32.33-122.83c.69-1.03,1.74-.85,2.78-.97,8.08-.99,20.04.09,28.65.05Z"/>
      <path class="cls-10" d="M1774.69,760.31c-8.78,35.52-19.56,70.63-28.37,106.16l-2.1,3.53h-209.53l28.12-109.69c.31,0,.63,0,.94,0,69.65.04,141.56,2.24,210.94,0Z"/>
      <path class="cls-10" d="M810,760.31l-29.06,109.69h-202.5l.23-4.93c10.43-34.58,17.97-70.06,27.9-104.76,67.77.04,135.68.77,203.44,0Z"/>
      <path class="cls-10" d="M1271.25,930.94l11.72-40.31h216.09l-10.31,40.31c-72.48.06-145.02.2-217.5,0Z"/>
      <path class="cls-10" d="M315.94,930.94l11.72-40.31h214.22l-9.38,40.31c-72.17.06-144.39.2-216.56,0Z"/>
      <path class="cls-10" d="M738.75,890.62l-29.04,33.31c-2.9,2.55-5,6.19-9.15,6.78-46.32.44-92.68.17-139,.22l10.93-40.36,166.26.04Z"/>
      <path class="cls-10" d="M1695,890.62l-31.83,36.13-6.35,3.96c-46.01.43-92.06.16-138.07.21l10.91-40.18,165.34-.13Z"/>
      <path class="cls-11" d="M1055.62,705.94c-1.33,4.05-1.96,12.99-3.9,16.26-.57.97-.91,1.56-2.18,1.57l-182.35.93c-.94,0-1.88,0-2.81,0-3.9-.02-7.86.15-11.76,0-1.81-.07-3.76.96-3.24-1.88,4.46-4.55,11.38-16.09,18.26-16.9,62.66,0,125.34.06,187.99.02Z"/>
      <path class="cls-6" d="M849.38,722.81c-.52,2.84,1.43,1.8,3.24,1.88,3.9.15,7.86-.02,11.76,0l-18.75,21.56c-1.96.39-2.59,1.7-3.75,2.81-2.68,2.57-7.98,9.84-11.2,10.83-6.53.84-13.18.33-19.74.42l2.81-14.06h-203.44c.11,5.04-2.42,9.43-3.75,14.06-9.67,0-19.39,0-29.06,0,.46-1.8,3.32-13.55,2.81-14.06-60.92.19-121.89-.26-182.81,0-.31,0-.63,0-.94,0l-16.87-21.56h15c2.64,3.27,11.42,15,14.3,16.17l417.46.75c2.04.15,3.4-.44,5.07-1.49,3.57-2.25,14.15-13.53,17.85-17.3Z"/>
      <path class="cls-6" d="M1816.88,708.75c2.29,2.68-3.98,14.9-2.82,15.93l4.69.94-31.92,33.24c-3.45,2.38-8.09,1.32-12.15,1.45,1.14-4.59,2.57-9.29,2.81-14.06h-210l-3.75,14.06c-.31,0-.63,0-.94,0-9.36,0-18.76,0-28.12,0l2.81-14.06c-59.84.03-119.71-.08-179.57.04-2.32,0-4.48-.99-6.05-.98-.31,0-.63,0-.94,0l-15.94-20.62h14.06c.38.47,1.65.94,2.36,1.82,3.65,4.52,9.33,14.42,14.97,15.08h415.35c2.8-.17,4.92-1.65,7.03-3.28,9.19-7.09,18.59-22.58,28.1-29.55Z"/>
      <path class="cls-11" d="M606.56,760.31c1.33-4.63,3.86-9.02,3.75-14.06h203.44l-2.81,14.06c-.31,0-.63,0-.94,0-67.76.77-135.67.04-203.44,0Z"/>
      <path class="cls-10" d="M1166.25,890.62h86.25s-11.25,40.31-11.25,40.31c-10.92-.07-25.8,1.26-36.12.02-3.69-.44-5.92-2.19-8.44-4.69-9.49-9.42-18.91-21.75-28.13-31.88-1.06-1.16-2.35-1.93-2.32-3.77Z"/>
      <path class="cls-10" d="M210.94,890.62c28.37,1.34,57.77-1.01,86.25,0l-10.31,40.31c-10.93-.07-25.79,1.26-36.12.02-5.14-.62-7.87-4.12-11.24-7.51-10.13-10.17-18.73-22.37-28.58-32.83Z"/>
      <path class="cls-11" d="M1351.88,745.31c1.57,0,3.73.99,6.05.98,59.86-.12,119.73,0,179.57-.04l-2.81,14.06c-.31,0-.63,0-.94,0-56.39-.05-112.8.05-169.2-.02-3.41-.65-11.02-11.45-12.68-14.98Z"/>
      <path class="cls-6" d="M1085.62,705.94l-3.75,17.81h215.62l3.75-17.81c9.53.06,20.75-.82,30,0-.97,5.85-3.93,11.28-3.8,17.29l3.8,1.46c-154.67,0-309.4.48-464.06,0l182.35-.93c1.27,0,1.61-.6,2.18-1.57,1.94-3.27,2.56-12.21,3.9-16.26,9.99,0,20.01,0,30,0Z"/>
      <path class="cls-11" d="M394.69,724.69h-15.94l-6.56-.94,3.75-17.81c1.78.12,3.66-.49,5.22.87,4.79,5.7,8.87,12.12,13.53,17.88Z"/>
      <path class="cls-11" d="M1349.06,724.69h-17.81l-3.8-1.46c-.12-6.01,2.83-11.45,3.8-17.29,1.23.11,2.54-.29,3.7.49,1.09.79,1.95,1.83,2.89,2.77,4.28,4.34,7.58,10.96,11.23,15.49Z"/>
      <path class="cls-9" d="M999.38,917.81l-31.41,115.31h-200.16l30-115.31c67.16-.36,134.4-.08,201.56,0Z"/>
      <path class="cls-9" d="M1233.75,960l-20.16,73.12h-214.22l30-115.31c38.82.06,77.68-.22,116.5.21,2.25.71,4.15,1.91,5.88,3.49,8.94,8.13,17.52,21.18,26.19,30.06,4.15,4.25,6.73,7.86,13.09,8.47,12.79,1.24,29.42-.11,42.7-.05Z"/>
      <path class="cls-9" d="M278.44,960l-20.16,73.12H55.31l30-115.31c34.75,0,69.53-.21,104.28.25,2.15.34,3.64.79,5.46,2.04,10.5,7.25,22.18,26.91,32.39,36.05,2.97,2.66,5.27,3.51,9.24,3.88,12.62,1.19,28.68-.11,41.75-.04Z"/>
      <path class="cls-9" d="M1731.56,918.75l-29.06,114.38h-211.88l18.75-73.12c53.87-.05,107.78.09,161.66-.06,4.67-.94,7.71-4.71,10.87-7.88,10.07-10.13,18.22-22.42,28.7-32.24,5.59-2.78,11.73-1.85,17.73-2,1.33-.03,2.79.95,3.24.94Z"/>
      <path class="cls-9" d="M767.81,917.81l-31.41,115.31h-202.03l18.75-73.12c54.13-.05,108.3.22,162.44-.22,2.24-.56,4.47-1.65,6.22-3.15,8.28-7.15,16.96-20.22,24.92-28.52,8.86-9.23,7.87-9.82,21.11-10.3Z"/>
      <path class="cls-9" d="M1480.31,960l-20.16,73.12h-216.09l18.75-73.12c72.48.2,145.02.05,217.5,0Z"/>
      <path class="cls-9" d="M523.12,960l-18.75,73.12h-214.69l17.81-73.12c71.86.19,143.77.05,215.62,0Z"/>
      <path class="cls-9" d="M754.69,1080l6.56-26.25h201.56l-6.56,26.25c-67.17-.09-134.39-.04-201.56,0Z"/>
      <path class="cls-2" d="M931.88,426.56c-1.77,2.82-10.42,12.59-10.31,14.06h-179.06c-6.28-4.91-12.71-9.8-18.75-15,67.63.65,135.34-.86,202.98-.02,1.59.02,4.17-.6,5.14.95Z"/>
      <path class="cls-2" d="M890.62,477.19c-4.63,5.59-9.43,11.3-14.06,16.88h-59.06c-5.13-.71-17.47-12.46-22.5-15.94l95.62-.94Z"/>
      <path class="cls-12" d="M745.31,440.62h176.25c0,.1,1.51,1.42.94,1.87-.21.16-1.64-.41-2.87.63-6.99,5.86-18.96,24.16-25.68,32.26-1.17,1.4-3.2,1.67-3.32,1.81l-95.62.94c-17.55-12.15-36.28-24.82-52.5-37.5h2.81ZM917.81,441.56h-169.69c14.1,12.26,29.9,23.2,45.51,33.71l97.73-.16,26.45-33.55Z"/>
      <path class="cls-12" d="M713.44,418.12c2.63,1.57,5.37,2.85,7.54,5.12,71.17.57,142.89,1.38,213.99-.41,1.31-.8.9-5.05,4.41-4.71-1.56,2.82-2.86,5.85-6.56,6.56h-205.78s-3.28.94-3.28.94c-3.07-.43-9.79-3.99-10.31-7.5Z"/>
      <path class="cls-1" d="M932.81,424.69c-.03.79-.56,1.27-.94,1.88-.97-1.55-3.56-.93-5.14-.95-67.64-.84-135.35.66-202.98.02l3.28-.94h205.78Z"/>
      <path class="cls-12" d="M712.5,418.12c-5.66-3.17-16.03-12.47-21.51-13.64-5.87-1.26-9.88-.09-15.05,2.39-.64-2.1,5.16-4.24,6.3-4.48,10.64-2.2,19.69,6.35,27.57,12.33,1.28.97,2.82,1.26,2.7,3.4Z"/>
      <path class="cls-12" d="M661.88,420c1.83-4.61,7.25-8.61,11.25-11.25-2.17,4.01-7.01,9.67-11.25,11.25Z"/>
      <path class="cls-12" d="M960,392.81c-2.09,4.31-5.12,8.09-9.38,10.31,2.27-3.38,5.48-8.91,9.38-10.31Z"/>
      <path class="cls-12" d="M950.62,404.06c-1.18,1.76-2.62,4.73-4.15,6.65-.85,1.06-1.98,1.7-3.35,1.79,1.55-2.81,4.75-7.77,7.5-8.44Z"/>
      <path class="cls-12" d="M963.75,388.12c-.8,2.05-.77,3.59-3.75,3.75.8-2.04.76-3.59,3.75-3.75Z"/>
      <path class="cls-12" d="M967.5,383.44c-.88,1.8-.61,3.67-3.75,3.75.8-2.05.77-3.59,3.75-3.75Z"/>
      <path class="cls-12" d="M971.25,378.75c-.88,1.43-.5,3.79-3.75,3.75.85-1.8,1.31-3.83,3.75-3.75Z"/>
      <path class="cls-12" d="M943.12,413.44c-.88,1.78-.61,3.67-3.75,3.75.93-1.74,1.22-3.84,3.75-3.75Z"/>
      <path class="cls-12" d="M674.06,408.75l.94-1.88c-.09.05.38,1.07-.94,1.88Z"/>
      <path class="cls-13" d="M634.69,401.25c-.35-.27-.6-.67-.94-.94.12.29.79.59.94.94Z"/>
      <path class="cls-11" d="M1301.25,705.94l-3.75,17.81h-215.62l3.75-17.81c71.84-.05,143.84-.48,215.62,0Z"/>
      <path class="cls-11" d="M345.94,705.94c-1.38,5.83-2.03,12.73-5.16,17.81h-202.97l3.75-17.81c67.71,0,136.34-.43,204.37,0Z"/>
      <path class="cls-2" d="M1571.25,482.8l43.72-79.63,62.11,41.65-25.87,56.61c-26.64-6.14-54.17-9.33-79.96-18.64Z"/>
      <path class="cls-2" d="M1513.12,546.56c-17.13,0-34.71-.94-51.56-.94l-40.25-16.5c7.76-14.04,18.68-26.11,29.49-37.86,1.06-1.16,2.35-1.93,2.33-3.76.28.18,2.07.07,3.31.87,9.5,6.17,13.96,12.6,26.94,10.16,8.02-1.51,25.79-22.87,32.57-29.78l32.23,18.86,1.52,2.19-36.57,56.76Z"/>
      <path class="cls-2" d="M1779.37,465l-25.38,67.42-87.08-27.68,22.12-52.01c2.49-.53,16.38,7.83,20.71,9.24,15.51,5.05,41.62,1.03,58.89,2.04,3.53.21,7.01,1.61,10.74.98Z"/>
      <path class="cls-2" d="M1710,405l-25.77,26.93c-20.89-12.68-41.22-26.62-60.44-41.56l33.71-33.18c19.04,13.58,36.31,31.02,52.5,47.81Z"/>
      <path class="cls-2" d="M1803.75,378.75c4.28.82,8.7-.9,12.64-.97,1.44-.02,1.65-.2,1.39,1.4l-31.97,71.63c-3.63.98-7.19-.75-10.61-.84-16.79-.47-49.2,2.93-63.3-2.32-2.04-.76-13.7-6.49-14.03-7.6-.24-.8-.07-1.55.4-2.22l22.05-21.57c4.75,5.05,16.04,19.01,20.9,21.76,7.86,4.46,16.37,1.9,22.63-4.02,12.93-18.69,26.09-37.22,39.91-55.24Z"/>
      <path class="cls-2" d="M1526.25,458.44c23.54-23.76,46.38-46.02,71.25-68.44,2.24.63,6.18,2.24,5.49,4.94l-44.86,80.91c-1.31.83-9.96-4.03-11.88-5.06-6.89-3.71-13.14-8.6-20-12.35Z"/>
      <path class="cls-2" d="M1746.56,546.56h-97.5c.93-3.72,9.57-25.71,11.24-26.73.72-.44,1.5-.57,2.34-.55,28.51,7.19,57.17,15.02,83.92,27.28Z"/>
      <path class="cls-2" d="M1816.88,363.75c5.75-7.96,11.02-14.92,17.81-22.5-1.89,4.24-6.11,17.99-8.91,20.62-1.72,1.62-6.51,1.86-8.9,1.88Z"/>
      <path class="cls-2" d="M1633.12,360c-6.55,6.61-13.29,13.42-19.15,20.7l-5.22-.07c.13-.12.21-1.82,1.36-2.82,7.04-6.16,15.18-12.97,23.02-17.81Z"/>
      <path class="cls-2" d="M94.39,427.58l71.15,43.04c1.38,2.64-14.11,25.06-15.83,30.17-1.87,5.54-2.91,15.83-3.45,21.87-.22,2.49.96,12.07-1.38,12.47l-79.12-30.42c-1.34-3.85,4.97-27.14,6.51-32.61,4.62-16.44,9.71-32.17,22.13-44.52Z"/>
      <path class="cls-2" d="M364.69,463.12c4.19,1.73,8.7,8.66,12.19,12.19l-28.17,56.2c-26.73-6.28-53.08-15.29-78.31-26.19l31.08-60.88c11.34,3.51,22.58,7.5,33.95,10.9,8.88,2.66,21.06,4.38,29.26,7.77Z"/>
      <path class="cls-2" d="M203.44,421.88c1.42-3.28,9.06-7.09,12.19-9.38l71.23,27.74c-8.33,20.61-18.76,40.39-30.87,59-24.3-9.12-47.43-21.44-69.96-34.25l-.03-1.87c5.27-10.06,9.67-20.54,14.13-30.96,1.4-3.27,2.17-7.66,3.31-10.28Z"/>
      <path class="cls-2" d="M121.88,375l-30.41,32.83c-22.02-12.25-43.42-26.08-68.03-32.85,6.45-20.12,28.31-29.04,43.13-42.17,19.31,13.85,36.8,27.01,55.31,42.19Z"/>
      <path class="cls-2" d="M186.56,426.56l-13.64,30.97-68.85-41.75,29.05-31.41c8.74,7.34,17.62,14.55,26.26,22.02,7.22,6.24,17.79,19.37,27.17,20.17Z"/>
      <path class="cls-2" d="M300.94,401.25l-8.04,25.37-63.21-23.5c.08-.06-.18-1.3.66-1.89,6.03-4.24,33.15-23.27,38.27-23.49,3.4-.15,4.74,1.45,7.3,3.06,8.83,5.52,17.1,13.68,25.02,20.45Z"/>
      <path class="cls-2" d="M259.69,546.56c-.15-3.72-.29-27.64,2.47-28.2l80.03,28.2c-27.48.02-55.02.08-82.5,0Z"/>
      <path class="cls-2" d="M132.19,545.62c-1.46,1.38-3.34.93-5.12.97-22.63.46-45.38-.03-68.01-.03l3.29-27.2,69.83,26.26Z"/>
      <path class="cls-2" d="M345.94,443.44l-39.34-11.29c-1.59-1.83,6.62-16.86,5.59-20.59,11.53,10.32,22.59,20.77,33.75,31.88Z"/>
      <path class="cls-14" d="M467.81,400.31l54.93,19.7,1.17-.14c1.73-3.21,3.58-7.21,6.71-9.25,3.02,3.48,6.39,6.71,9.38,10.31l-3.35,5.65,11.79,5.6c7.14,9.04,15.87,17.48,20.62,28.12-6.23-4.55-18.17-10.89-25.29-14.55-5.25-2.7-10.56-5.49-16.29-7.09l-34.34,50.18,66.97,43.64c8.72-15.1,18.83-29.25,30.52-42.18,2.46,3.5,5.66,7.23,8.44,11.25-4.97,6.97-10.9,13.28-15.76,20.33-2.13,3.09-11.83,17.16-10.06,19.98.95,1.51,5.28,2.37,6.14,4.69-8.39-.01-17.2-.93-25.31-.94l-68.81-43.99c-4.42,1.04-13.72,37.87-12.75,43.99-4.19-.02-9.95.97-15,.94,2.17-14.36,4.83-29.25,10.13-42.83.94-2.42,4.8-6.74,3.51-8.75l-63.34-19.67c3.14-4.17,6.13-9.81,9.37-14.06-.48,2.26,1.05,2.03,2.53,2.58,12.11,4.5,26.77,7.26,39.43,11.24,3.97,1.25,17.72,7.28,20.35,6.86.77-.12,1.42-.34,1.9-1l33.28-48.73-57.19-19.7c3.34-3.85,6.67-8.21,10.31-12.19Z"/>
      <path class="cls-2" d="M569.06,460.31c9.06,6.62,15.29,21.06,21.56,30-11.7,12.93-21.8,27.08-30.52,42.18l-66.97-43.64,34.34-50.18c5.73,1.6,11.04,4.39,16.29,7.09,7.13,3.66,19.06,10,25.29,14.55Z"/>
      <path class="cls-2" d="M457.5,412.5l57.19,19.7-33.28,48.73c-.47.66-1.13.88-1.9,1-2.63.41-16.38-5.62-20.35-6.86-12.66-3.98-27.33-6.74-39.43-11.24-1.49-.55-3.01-.32-2.53-2.58,12.86-16.88,26.5-32.82,40.31-48.75Z"/>
      <path class="cls-2" d="M530.62,410.62c-3.13,2.04-4.98,6.05-6.71,9.25l-1.17.14-54.93-19.7c5.44-5.94,11.26-13.59,17.8-19.23,8.43-7.28,8.04-8.38,16.9-.94,10.55,8.86,19.32,20.36,28.11,30.48Z"/>
      <path class="cls-2" d="M548.44,432.19l-11.79-5.6,3.35-5.65c2.99,3.62,5.56,7.6,8.44,11.25Z"/>
      <path class="cls-14" d="M1394.06,451.88c-20.75,12.91-45.04,22.65-53.44,47.8,23.3,4.92,44.41,17.03,66.94,24.46,9.37-16.18,21.66-30.49,34.31-44.14,2.75,2.05,8.52,5.69,11.25,7.5.02,1.84-1.26,2.61-2.33,3.76-10.81,11.75-21.73,23.82-29.49,37.86l40.25,16.5c-21.5,0-44.13,0-65.62,0l3.75-9.36c-17.31-5.23-34.9-15.61-51.99-20.68-2.48-.74-11.26-2.86-13.26-2.72-1.12.08-1.68.43-2.14,1.46l-16.05,32.24c-5.32,0-11.52-.94-15.94-.94l16.87-32.8c-1.35-.99-19.57,1.07-22.5,1.87,3.23-6.74,10.59-11.1,15.94-15.94l14.85-.15c2.75-5.75,5.84-11.35,8.73-17.05.38-.75,2.44-3.16.79-3.43,10.37-8.07,30.77-24.94,42.19-29.53,8.14-3.27,10.28.6,16.87,3.28Z"/>
      <path class="cls-2" d="M1441.88,480c-12.64,13.65-24.94,27.96-34.31,44.14-22.53-7.43-43.64-19.53-66.94-24.46,8.4-25.16,32.69-34.89,53.44-47.8,18.02,7.32,32.72,16.88,47.81,28.12Z"/>
      <path class="cls-2" d="M1294.69,514.69c2.92-.79,21.15-2.85,22.5-1.87l-16.87,32.8c-11.9,0-24.74-.01-36.56,0,6.53-7.26,12.84-15.07,19.66-22.06,3.36-3.44,6.51-7.59,11.27-8.88Z"/>
      <path class="cls-2" d="M1335,478.12c1.65.27-.41,2.68-.79,3.43-2.89,5.7-5.98,11.29-8.73,17.05l-14.85.15c8.21-7.43,15.61-13.8,24.38-20.62Z"/>
      <path class="cls-2" d="M554.06,545.62c-26.82-.04-54.71.1-81.56,0-.97-6.12,8.33-42.95,12.75-43.99l68.81,43.99Z"/>
      <path class="cls-11" d="M397.5,746.25c60.92-.26,121.89.19,182.81,0,.51.51-2.36,12.26-2.81,14.06-55.46-.04-110.95.01-166.43.02-5.94-.69-10.35-9.45-13.57-14.08Z"/>
      <path class="cls-11" d="M1563.75,760.31l3.75-14.06h210c-.24,4.77-1.68,9.47-2.81,14.06-69.38,2.24-141.28.04-210.94,0Z"/>
      <g>
        <path class="cls-13" d="M997.5,259.69c-1.56,1.07-3.33.91-5.11.98-120.7,4.22-243.83-3.25-364.78-.04l-2.3-2.81c32.82-116.99,172.82-171.27,279.07-113.6,40.57,22.02,83.88,69.42,93.12,115.47Z"/>
        <path class="cls-13" d="M623.44,368.44h356.72s-8.9,9.38-8.9,9.38c-.14.22.14.71,0,.94-2.44-.08-2.9,1.95-3.75,3.75-.12.26.12.69,0,.94-2.98.16-2.95,1.7-3.75,3.75-.11.27.11.67,0,.94-2.99.16-2.95,1.71-3.75,3.75-.11.28.12.69,0,.94-3.89,1.4-7.1,6.94-9.38,10.31-.14.22.14.72,0,.94-2.75.67-5.95,5.63-7.5,8.44-.13.24.13.68,0,.94-2.53-.09-2.82,2.01-3.75,3.75-.13.24.13.7,0,.94-3.51-.34-3.11,3.91-4.41,4.71-71.1,1.79-142.81.98-213.99.41-2.16-2.27-4.91-3.56-7.54-5.12-.23-.14-.7.13-.94,0,.13-2.14-1.42-2.43-2.7-3.4-7.87-5.98-16.92-14.52-27.57-12.33-1.14.24-6.94,2.38-6.3,4.48-.26.12-.7-.13-.94,0l-.94,1.88c-.23.14-.72-.14-.94,0-4,2.64-9.42,6.64-11.25,11.25-.26.1-.63-.08-.94,0-3.62.89-8.32,2.03-11.77.05-4.66-2.68-14.65-20.8-17.29-26.3-3.54-7.38-7.74-17.15-8.44-25.31Z"/>
        <path class="cls-13" d="M876.56,494.06c-4.97,5.98-9.7,15.14-15.9,21.13-6.61,6.39-9.53,4.53-16.27.25-7.54-4.78-17.16-12.29-24.22-17.97-1.24-1-2.82-1.31-2.68-3.42h59.06Z"/>
        <path class="cls-13" d="M1002.19,351.56h-382.5l-2.86-32.32c.64-10.63,1.16-20.65,2.79-31.04.57-3.63-.74-7.93,1.91-11.21l379.12-.3c2.49.82,1.19,4.65,1.64,6.8,3.64,17.48,4.44,46.82-.05,63.92-.32,1.23.03,2.84-.05,4.15Z"/>
        <path class="cls-13" d="M917.81,441.56l-26.45,33.55-97.73.16c-15.61-10.51-31.41-21.45-45.51-33.71h169.69Z"/>
      </g>
      <path class="cls-9" d="M126.6,1084.12h119.06l7.46-30.37H50.16c-3.35,8.18-5.6,17.38-7.03,26.25,25.69,0,51.43-.18,77.13.21,2.27.85,4.36,2.23,6.35,3.91Z"/>
      <polygon class="cls-9" points="490.35 1084.12 497.81 1053.75 283.12 1053.75 275.13 1084.12 490.35 1084.12"/>
      <path class="cls-9" d="M1079.08,1082.32c.74.55,1.47,1.16,2.2,1.8h119.16l7.99-30.37h-215.63l-6.56,26.25c29.76.06,59.56-.21,89.33.2,1.48.24,2.38,1.3,3.5,2.13Z"/>
      <path class="cls-11" d="M1731.57,1033.12l30-115.31c-10.02.05-20.2.73-30,.94l-29.06,114.38h-211.88l18.75-73.12c-9.67,0-19.39,0-29.06,0l-20.16,73.12h-216.09l18.75-73.12c-9.67-.03-19.39.04-29.06,0l-20.16,73.12h-214.22l30-115.31c-9.99-.01-20.01.01-30,0l-31.41,115.31h-200.16l30-115.31c-9.96.05-20.06-.36-30,0l-31.41,115.31h-202.03l18.75-73.12c-9.99,0-20.01,0-30,0l-18.75,73.12h-214.69l17.81-73.12c-9.67-.03-19.39.05-29.06,0l-20.16,73.12H55.31l30-115.31h-30l-29.89,114.77-25.42.54v20.62h19.68s-6.56,26.25-6.56,26.25h30c1.43-8.87,3.68-18.07,7.03-26.25h202.97l-7.46,30.37h29.47l7.99-30.37h214.69l-7.46,30.37h30.61l8.26-30.37h202.03l-5.62,26.25c9.67,0,19.39,0,29.06,0l6.56-26.25h201.56l-6.56,26.25c9.99.01,20.01-.02,30,0l6.56-26.25h215.63l-7.99,30.37h30l7.99-30.37h216.56l-7.46,30.37h29.87l7.59-30.37h210.94l-6.56,26.25c9.99,0,20.01,0,30,0,.3-3.34,5.85-25.98,7.18-26.29l193.45.04v-20.62h-188.43Z"/>
      <path class="cls-9" d="M554.52,1085.93c2.75-3.17,5.38-5.53,7.57-5.87,54.51-.13,109.04,0,163.54-.05l5.62-26.25h-202.03l-8.75,32.18h34.05Z"/>
      <polygon class="cls-9" points="1446.61 1087.93 1455 1053.75 1238.44 1053.75 1229.44 1087.93 1446.61 1087.93"/>
      <path class="cls-9" d="M1485,1053.75l-8.54,34.18h31.3c3.27-4.05,6.65-7.41,9.65-7.87,57.32-.14,114.66-.02,171.97-.06l6.56-26.25h-210.94Z"/>
    </g>
  </g>
</svg>