<?xml version="1.0" encoding="UTF-8"?>
<svg id="Layer_2" data-name="Layer 2" xmlns="http://www.w3.org/2000/svg" viewBox="0 0 152.27 139.87">
  <defs>
    <style>
      .cls-1 {
        fill: #020202;
      }

      .cls-2 {
        fill: #050505;
      }

      .cls-3 {
        fill: #f5f5f5;
      }

      .cls-4 {
        fill: #5c6064;
      }
    </style>
  </defs>
  <g id="Cat">
    <g>
      <path class="cls-3" d="M112.7,130.83c-9.35,10.51-28.43,6.74-28.87-8.67-.05-1.83,1.89-5.28-.64-6.73-5.45,12.73-20.41,29.03-35.77,23.24-7.15-2.7-9.71-10.62-7.7-17.61.87-3.03,3.11-5.37,4.3-8.2-4.91,3.27-7.87,7.64-14.47,7.72-18.37.22-18.29-23.71-5.73-32.09l9.93-6.43c-3.82-.38-8.81-2.27-12-4.37-1.68-1.11-4.77-4.88-5.79-5.16-1.37-.38-2.5.42-3.6.31-5.57-.58-10.33-4.24-11.08-10.02-.3-2.32.61-3.92.43-6.11-.37-4.3-2.95-5.66-.99-11.23,2.27-6.45,7.89-4.99,9-6.4.26-.33,1.83-6.73,2.21-8.06,2.22-7.64,1.4-13.77,3.53-20.86C18.61-.28,27.13-2.17,36.13,3c1.91,1.1,5.6,4.84,6.45,5.11,1.31.41,10.7,1.55,12.06,1.48,2.51-.14,3.84-3.79,6.13-5.47,17.82-13.06,26.52,15.05,28.66,27.73.5,2.93.28,8.31.95,10.61.32,1.11,2.62,2.55,3.44,4.26,1.01,2.1.44,4.77,2.52,5.18,5.06.99,17.93-1.41,21.82-5.14,8.81-8.44-3.39-14.33-8-20.23-14.51-18.55,6.99-36.12,26.89-20.47,18.49,14.55,19.56,41,6.35,59.52-1.11,1.55-6.69,7.38-6.79,7.89-.2,1.05.62,5.26.41,7.55-.63,7.1-5.91,15.73-3.18,22.59.95,2.39,4.09,4.62,5.47,6.73,8.59,13.17-1.55,33.91-18.39,28.66-3.3-1.03-7.39-4.75-8.21-8.16ZM58.68,13.24c-1.4.83-6.56-.96-8.55-1.14-2.6-.24-6.62.52-8.84-.14-1.17-.35-2.8-2.79-4-3.7C25.71-.54,19.66,3.59,18.38,17.56c-.26,2.87.37,6.17-.05,8.93-.68,4.5-5.3,10.51-4.45,15.77-6.65-1.09-12.67,5.33-7.39,10.94.46.49,1.55.55,1.6.62.55.77-4.09,4.39-1.4,9.42,1.29,2.42,3.55,3.33,6.25,3.42,1.72.06,3.93-.91,4.98-.71.32.06,3.14,3.92,4.28,4.87,2.63,2.18,6.5,4.03,9.78,4.99,6.54,1.91,14.35.54,4.69,8.82-3.17,2.71-6.79,3.73-9.91,6.14-7.4,5.73-11.46,19.65-.23,23.22,8.42,2.68,9.24-3.71,14.5-6.37,1.22-.62,12.17-4.87,12.62-4.38.18,2.85-.8,6.53-2.21,9.02-1.53,2.71-4.34,3.54-6.03,6.17-4.15,6.49-1.21,13.79,6.27,15.33,9.86,2.03,19.29-8.29,24.19-15.67,1.54-2.32,6.3-12.34,7.74-12.79,3.79-1.2,2.73,1.95,3.72,5.01.58,1.78,2.15,4.55,2.22,6.15.11,2.69-1.65,2.97-.57,6.96,2.57,9.49,15.24,9.7,20.49,2.61,1.36-1.83,2.72-8.26,5.43-4.14,2.17,3.3.28,7.17,5.67,10.37,9.04,5.37,17.35-3.49,17.18-12.66-.16-8.68-8.07-11.41-8.97-18.02-1.32-9.68,3.51-15.43,3.8-23.72.09-2.6-1.11-5.35-.66-7.68.11-.57,6.23-6.51,7.34-8.07,9.87-13.96,11.79-31.6,1.92-46.1-5.01-7.37-18-17.27-26.9-10.97-6.8,4.81-4.31,12.9.34,18.28,5.21,6.02,11.78,7.53,10.92,17.37-1.26,14.42-24.58,15.66-35.33,13.77.16-2.81.93-4.72-.73-7.3-1.53-2.38-4.18-2.14-4.38-2.36-.25-.28.66-5.74.61-7.35-.33-9.65-8.66-44.22-23.51-29.62-.99.97-3.28,5.25-3.56,5.41Z"/>
      <path class="cls-2" d="M58.68,13.24c.28-.16,2.58-4.45,3.56-5.41,14.85-14.6,23.18,19.98,23.51,29.62.05,1.6-.85,7.07-.61,7.35.2.22,2.85-.02,4.38,2.36,1.66,2.57.88,4.49.73,7.3,10.74,1.89,34.07.65,35.33-13.77.86-9.84-5.71-11.35-10.92-17.37-4.65-5.38-7.14-13.47-.34-18.28,8.9-6.3,21.89,3.6,26.9,10.97,9.86,14.5,7.94,32.15-1.92,46.1-1.11,1.56-7.22,7.51-7.34,8.07-.45,2.32.75,5.07.66,7.68-.29,8.29-5.13,14.04-3.8,23.72.9,6.61,8.81,9.34,8.97,18.02.17,9.17-8.14,18.03-17.18,12.66-5.39-3.2-3.5-7.08-5.67-10.37-2.71-4.12-4.07,2.3-5.43,4.14-5.25,7.09-17.92,6.88-20.49-2.61-1.08-3.98.67-4.27.57-6.96-.06-1.6-1.64-4.36-2.22-6.15-.99-3.06.07-6.21-3.72-5.01-1.44.46-6.21,10.48-7.74,12.79-4.9,7.39-14.33,17.71-24.19,15.67-7.48-1.54-10.43-8.84-6.27-15.33,1.68-2.63,4.5-3.46,6.03-6.17,1.41-2.49,2.39-6.17,2.21-9.02-.46-.49-11.4,3.76-12.62,4.38-5.27,2.67-6.09,9.05-14.5,6.37-11.23-3.57-7.17-17.49.23-23.22,3.11-2.41,6.74-3.42,9.91-6.14,9.66-8.28,1.85-6.91-4.69-8.82-3.28-.96-7.15-2.8-9.78-4.99-1.14-.95-3.97-4.8-4.28-4.87-1.05-.21-3.26.77-4.98.71-2.71-.09-4.96-1-6.25-3.42-2.69-5.03,1.95-8.65,1.4-9.42-.05-.07-1.14-.13-1.6-.62-5.28-5.61.74-12.03,7.39-10.94-.85-5.26,3.77-11.27,4.45-15.77.42-2.77-.21-6.07.05-8.93,1.28-13.96,7.34-18.09,18.9-9.3,1.2.91,2.83,3.35,4,3.7,2.22.66,6.24-.1,8.84.14,1.99.18,7.15,1.97,8.55,1.14ZM36.66,69.85c3.1.37,6.77-.27,9.95,0-1.03,8,.83,10.78-5.83,16.31-4.97,4.13-12.84,5.88-15.21,12.38-.86,2.36-1.68,5.66.46,7.61,4.79,4.38,8.06-2.44,11.67-4.46,3.67-2.06,10-3.04,13-4.97,1.19-.76,2.2-3.02,2.67-3.13.31-.08,5.22,3.29,5.43,3.54,2.36,2.82-2.59,16.52-5.1,19.1-.91.94-2.23.98-3.26,2.06-3.31,3.48-1.98,8.19,2.99,8.65,9.38.87,19.15-14.56,23.05-21.76.68-1.26,1.71-5.1,2.38-5.64,1.13-.91,10.48-2.64,12.34-2.74.68,2.56.14,5.23.5,7.87.42,3.09,3.64,8.35,3.64,9.79,0,1.73-2.05,3.01-1.77,4.98.85,5.84,9.07,5.5,11.99,1.34,1.56-2.22,1.72-5.62,1.4-8.27-.3-2.44-2.88-6.02-1.32-8.27,1.2-1.73,2.73,2.97,3.6,4.08,2.25,2.86,6.25,6.18,9.47,7.88.78.41,2.28.42,2.36.51.31.33-1.83,5.52,1.25,8.69,5.29,5.44,14.19-4.56,8.27-13.41-2.88-4.3-5.5-5.23-6.79-11.18-2.3-10.57,3.34-15.72,3.65-24.32.08-2.27-1.89-9.5-1.77-10.09.11-.56,6.92-6.25,8.21-7.8,10.15-12.16,12.16-32.36,1-44.6-3.45-3.79-13.78-11.18-18.32-6.1-5.25,5.89,6.72,13.6,9.97,17.66,5.98,7.48,6.25,15.14.3,22.78-8.48,10.86-30.18,12.31-42.14,7.51-2.93-1.17-7.72-2.81-6.62-6.53,8.35,2.17,11.44-2.31,1.28-2.57,1.53-10.23.79-20.83-3.3-30.39-6.3-14.76-9.62-8.29-15.7,2.11-6.04-4.81-16.16-1.67-21.63-3.29-2.66-.79-8.59-11.32-13.04-7.63-2.5,2.07-1.69,14.94-2.22,18.32-.35,2.21-2.72,5.85-3.49,8.7-.93,3.4-1.42,7.39-1.6,10.92-1.52.27-8.61-.78-8.98.97-.57,2.7,7.98,1.99,8.86,3,.21.25.93,4.67.81,5.23-.34,1.58-8.44.55-8.42,3.31.02,4.43,9.45-.29,10.26.34.1.08.32,1.51.77,2.13,3.54,4.86,8.81,8.68,15,9.41Z"/>
      <path class="cls-4" d="M36.66,69.85c-6.19-.73-11.45-4.56-15-9.41-.45-.61-.67-2.05-.77-2.13-.81-.63-10.24,4.1-10.26-.34-.01-2.76,8.08-1.73,8.42-3.31.12-.56-.59-4.99-.81-5.23-.88-1.01-9.43-.31-8.86-3,.37-1.75,7.46-.7,8.98-.97.18-3.53.67-7.52,1.6-10.92.78-2.85,3.15-6.49,3.49-8.7.53-3.37-.28-16.24,2.22-18.32,4.45-3.68,10.37,6.84,13.04,7.63,5.46,1.62,15.58-1.51,21.63,3.29,6.07-10.4,9.39-16.87,15.7-2.11,4.09,9.57,4.83,20.16,3.3,30.39,10.16.26,7.07,4.75-1.28,2.57-1.1,3.72,3.69,5.36,6.62,6.53,11.96,4.8,33.66,3.35,42.14-7.51,5.96-7.63,5.68-15.3-.3-22.78-3.24-4.06-15.22-11.77-9.97-17.66,4.54-5.09,14.86,2.31,18.32,6.1,11.16,12.25,9.16,32.44-1,44.6-1.29,1.55-8.1,7.25-8.21,7.8-.12.59,1.85,7.82,1.77,10.09-.3,8.6-5.94,13.75-3.65,24.32,1.29,5.95,3.92,6.88,6.79,11.18,5.92,8.84-2.98,18.84-8.27,13.41-3.08-3.17-.94-8.36-1.25-8.69-.08-.09-1.58-.1-2.36-.51-3.22-1.7-7.21-5.02-9.47-7.88-.87-1.1-2.4-5.81-3.6-4.08-1.56,2.25,1.03,5.84,1.32,8.27.32,2.65.16,6.04-1.4,8.27-2.92,4.16-11.13,4.5-11.99-1.34-.29-1.97,1.77-3.25,1.77-4.98,0-1.44-3.22-6.7-3.64-9.79-.36-2.63.19-5.3-.5-7.87-1.86.1-11.21,1.84-12.34,2.74-.68.54-1.7,4.38-2.38,5.64-3.91,7.2-13.67,22.63-23.05,21.76-4.97-.46-6.29-5.17-2.99-8.65,1.03-1.08,2.35-1.11,3.26-2.06,2.51-2.59,7.45-16.28,5.1-19.1-.21-.25-5.11-3.61-5.43-3.54-.47.11-1.48,2.37-2.67,3.13-3.01,1.93-9.33,2.91-13,4.97-3.61,2.03-6.89,8.84-11.67,4.46-2.14-1.95-1.32-5.25-.46-7.61,2.37-6.5,10.24-8.25,15.21-12.38,6.66-5.54,4.8-8.31,5.83-16.31-3.18-.27-6.84.37-9.95,0ZM30.39,39.16c-5.59,1.14-5.01,12.1,1.71,11.43,6.06-.6,5.5-12.9-1.71-11.43ZM61.93,46.07c0-3.4-2.76-6.16-6.16-6.16s-6.16,2.76-6.16,6.16,2.76,6.16,6.16,6.16,6.16-2.76,6.16-6.16ZM40.83,58.95c9.77-3.1-2.62-8.8-3.79-4.06-.49,1.97,4.96,4.49,1.21,6.29-1.31.63-3.45-.42-3.2,1.27,1.45,2.14,3.7.13,5.28.47,1.49.31,4.4,3.13,4.98-.78-2.67.41-4.27-.38-4.49-3.2Z"/>
      <circle class="cls-1" cx="55.77" cy="46.07" r="6.16"/>
      <path class="cls-1" d="M30.39,39.16c7.21-1.47,7.77,10.83,1.71,11.43-6.72.66-7.3-10.3-1.71-11.43Z"/>
      <path class="cls-2" d="M40.83,58.95c.22,2.82,1.82,3.61,4.49,3.2-.58,3.91-3.49,1.09-4.98.78-1.58-.34-3.84,1.67-5.28-.47-.25-1.7,1.89-.64,3.2-1.27,3.75-1.8-1.7-4.32-1.21-6.29,1.17-4.74,13.56.96,3.79,4.06Z"/>
    </g>
  </g>
</svg>