<?xml version="1.0" encoding="UTF-8"?>
<svg id="Layer_2" data-name="Layer 2" xmlns="http://www.w3.org/2000/svg" viewBox="0 0 65 65">
  <defs>
    <style>
      .cls-1 {
        fill: #feac33;
      }

      .cls-2 {
        fill: #e48301;
      }

      .cls-3 {
        fill: #fde9c5;
      }

      .cls-4 {
        fill: #fbc849;
      }
    </style>
  </defs>
  <g id="Coin">
    <g>
      <circle cx="32.5" cy="32.5" r="32.5"/>
      <path class="cls-3" d="M58.38,35.4c2.33,2.28-4.21,14.95-8.12,15.99-7.33,1.95,1.61-7.42,2.61-9.28.87-1.62,1.49-5.16,2.17-5.97s3.03-1.04,3.34-.73Z"/>
      <path class="cls-3" d="M28.01,10.2c-.56.83-5.39,1.39-4.43-1.83.77-2.58,6.07-.57,4.43,1.83Z"/>
      <path class="cls-3" d="M16.17,16.88c-2.2.63-4.86,8.48-7.4,6.66s3.96-8.98,5.53-10.38c7.74-6.89,11.36-3.6,2.61,2.98-.48.22-.52.26-.74.74Z"/>
      <path class="cls-4" d="M28.6,4.5C66.96.05,71.77,56.38,36.46,60.5-1.85,64.97-6.89,8.62,28.6,4.5ZM28.01,10.2c1.64-2.4-3.66-4.41-4.43-1.83-.96,3.22,3.87,2.66,4.43,1.83ZM16.91,16.14c8.75-6.57,5.13-9.87-2.61-2.98-1.57,1.4-8.07,8.57-5.53,10.38s5.2-6.04,7.4-6.66c-.15.33.19,1.25-.14,1.74-1.56,2.36-3.13,3.43-4.11,6.98-6.98,25.49,28.94,37.24,39.7,15.26,7.97-16.28-6.35-32.81-23.64-29.57-4.13.78-6.03,2.59-8.89,4.44-.93.6-1.82.24-2.18.41ZM58.38,35.4c-.31-.3-2.66-.09-3.34.73s-1.3,4.35-2.17,5.97c-1,1.86-9.94,11.24-2.61,9.28,3.92-1.04,10.45-13.71,8.12-15.99Z"/>
      <path class="cls-1" d="M16.91,16.14c.36-.16,1.25.19,2.18-.41,2.87-1.85,4.76-3.67,8.89-4.44,17.29-3.24,31.62,13.28,23.64,29.57-10.76,21.98-46.68,10.23-39.7-15.26.97-3.55,2.54-4.62,4.11-6.98.33-.5-.01-1.41.14-1.74.22-.48.26-.52.74-.74ZM28.76,29.47c-1.53,1.67-4.54,2.55-5.92,3.7,2.72-4.21.83-11.01-3.77-7.1-4.02,3.42-1.23,10.45,3.03,7.84-7.68,13.61,26.91,17.16,20.74,0,3.41,1.63,5.7-1.22,5.04-4.63-1.29-6.62-8.98-5.87-6.52,2.41-.38-.23-4.08-.96-4.44-1.49,3.08-3.21,3.93-4.75,2.14-9.17-3.95-9.81-9.54,3.89-2.89,8.44-2.4-.16-5.05.24-7.41,0,2.27-2.47,4.24-7.53,2.28-10.61-3.55-5.59-10.66,9.77-2.28,10.61Z"/>
      <path class="cls-2" d="M28.76,29.47c-8.38-.84-1.27-16.2,2.28-10.61,1.96,3.08,0,8.14-2.28,10.61,2.36.24,5-.16,7.41,0-6.65-4.55-1.06-18.24,2.89-8.44,1.78,4.42.94,5.96-2.14,9.17.37.53,4.06,1.27,4.44,1.49.24.81.18.8.74,1.48.21.25.45.6.74.74,6.17,17.16-28.42,13.61-20.74,0,.35-.21.52-.4.74-.74,1.39-1.15,4.39-2.03,5.92-3.7Z"/>
      <path class="cls-2" d="M22.83,33.18c-.29.24-.53.37-.74.74-4.26,2.61-7.05-4.41-3.03-7.84,4.6-3.91,6.49,2.89,3.77,7.1Z"/>
      <path class="cls-2" d="M42.83,33.92c-.08-.22-.55-.47-.74-.74-.18-.25.13-.96-.74-1.48-2.46-8.28,5.23-9.03,6.52-2.41.66,3.41-1.63,6.26-5.04,4.63Z"/>
    </g>
  </g>
</svg>