<?xml version="1.0" encoding="UTF-8"?>
<svg id="Layer_2" data-name="Layer 2" xmlns="http://www.w3.org/2000/svg" viewBox="0 0 152.18 126.93">
  <defs>
    <style>
      .cls-1 {
        fill: #aaabb5;
      }

      .cls-2 {
        fill: #dddcdd;
      }

      .cls-3 {
        fill: #060606;
      }

      .cls-4 {
        fill: #4c4c4c;
      }

      .cls-5 {
        fill: #faa9a6;
      }

      .cls-6 {
        fill: #4e4f4e;
      }

      .cls-7 {
        fill: #1b1b1b;
      }

      .cls-8 {
        fill: #f5f5f5;
      }
    </style>
  </defs>
  <g id="Cow">
    <g>
      <path class="cls-8" d="M55.64,7.5c.17.13,2.93-.73,4.13-.69,9.1.3,15.41,6.12,15.09,15.45,22.34-2.15,50.67,4.1,59.99,26.97,1.51,3.7,2.86,11.72,4.91,14.35,2.97,3.81,6.65,2.41,9.66,10.24,6.15,16.01,2.71,32.17-17.44,22.9,1.74,11.71.54,29.59-15.09,29.57-3.28,0-7.15-2.15-9.61-2.31-2.26-.15-4.97,1.17-8.28.9-7.27-.58-12.82-5.32-12.55-12.98.11-3.04,2.45-6.77,1.89-9.72-.35-1.87-3.18-3.43-3.83-.62-2.59,11.14-3.2,25.6-18.96,25.37-3.78-.05-6.42-2.24-9.04-2.6-4.93-.68-8.83,2.14-14.84-1.17-9.59-5.28-4.12-15.29-2.93-23.09.79-5.16,2.15-13.46,2.15-18.44,0-4.02-3.88-9.97-3.96-14.38l-16.78.41c-14.03-1.3-26.01-18.1-17.07-30.86,2.08-2.97,4.4-3.27,6.9-5.3,5.99-4.87,4.48-12.97,12.29-18.51,1.78-1.27,6.47-2.72,7.49-3.74.54-.55.67-1.89,1.44-2.72,5.57-6.01,13.89-9.15,21.15-3.8,2.14,1.57,3.05,4.58,3.28,4.76ZM52.43,11.32c-1.27-8.94-9.8-10.25-16.04-4.74-1.83,1.61-2.49,4.38-3.41,5.25-.8.76-5.95,2.23-7.76,3.48-6.65,4.57-5.52,12.58-10.76,17.48-2.2,2.06-5.68,3.07-7.64,5.84-3.93,5.56-2.28,11.31,1.66,16.31,6.25,7.92,14.56,6.71,23.72,6.5,2.3-.05,4.96-1.61,7.08-.07,1.15.83,5.81,14.41,6.06,16.39.58,4.64-1.23,16.61-2.02,21.76-.96,6.24-6.18,14.59,1.12,18.29,6.78,3.42,10.43-1.05,12.62-.47,1.8.47,3.87,3.58,7.86,3.79,15.17.83,14.66-21.91,17.01-32.09,4.83-1.26,3.47,3.41,5.77,5.4,1.26,1.09,4.87,1.49,5.05,1.69.26.3.13,6.77,0,7.89-.56,4.69-3.32,6.25-.29,11.34,2.02,3.4,6.98,4.32,10.67,3.53,1.34-.29,3.1-1.65,4.14-1.62.94.03,2.45,1.53,3.8,1.94,8.37,2.57,14.15.62,16.12-8.35,1.95-8.89-.14-16.52-2.28-25.06.29-.32,6.55,3.95,7.45,4.41,1.42.73,7.92,3.68,9.01,3.74,9.73.51,5.71-15.04,3.54-20.14-2.9-6.84-7.67-5.72-9.15-7.68-1.65-2.19-4.29-13.98-5.87-17.72-5.5-12.99-23.2-21.86-36.76-22.93-7.97-.63-16.13.74-24.06-.65,1.43-4.77,2.14-8.73-2.25-12.19-4.94-3.89-8.92-2.18-14.4-1.32Z"/>
      <path class="cls-3" d="M52.43,11.32c5.49-.86,9.46-2.57,14.4,1.32,4.39,3.46,3.67,7.41,2.25,12.19,7.93,1.39,16.09.03,24.06.65,13.56,1.07,31.26,9.93,36.76,22.93,1.58,3.74,4.23,15.53,5.87,17.72,1.48,1.97,6.25.85,9.15,7.68,2.17,5.1,6.19,20.65-3.54,20.14-1.09-.06-7.59-3.02-9.01-3.74-.9-.46-7.17-4.73-7.45-4.41,2.13,8.54,4.23,16.17,2.28,25.06-1.97,8.97-7.74,10.93-16.12,8.35-1.35-.42-2.86-1.91-3.8-1.94-1.04-.03-2.8,1.33-4.14,1.62-3.69.79-8.65-.13-10.67-3.53-3.03-5.09-.27-6.65.29-11.34.13-1.12.26-7.59,0-7.89-.17-.2-3.78-.6-5.05-1.69-2.31-1.99-.95-6.66-5.77-5.4-2.36,10.18-1.84,32.92-17.01,32.09-3.99-.22-6.06-3.32-7.86-3.79-2.18-.57-5.84,3.9-12.62.47-7.31-3.69-2.08-12.05-1.12-18.29.79-5.15,2.6-17.12,2.02-21.76-.25-1.98-4.91-15.56-6.06-16.39-2.12-1.53-4.78.02-7.08.07-9.16.21-17.47,1.42-23.72-6.5-3.94-5-5.6-10.76-1.66-16.31,1.96-2.77,5.45-3.78,7.64-5.84,5.24-4.91,4.11-12.91,10.76-17.48,1.81-1.24,6.96-2.72,7.76-3.48.92-.87,1.58-3.64,3.41-5.25,6.24-5.51,14.77-4.2,16.04,4.74ZM15.81,37.03c-2.33-.24-3.24,1.06-4.49,2.57-3.59,4.35-.97,8.14,2.57,11.55,4.02,3.88,4.25,2.96,9.63,3.21.21,0,.43,0,.64,0,.43.02.86,0,1.28,0,3.88.04,9.23-.82,12.44-.62,4.28.27,6.29,3.52,7.77,7.05,1.08,2.58,4.56,12.4,4.83,14.75.46,4.09-.76,12.54-1.37,16.93-.81,5.85-2.71,11.53-3.53,17.08-.55,3.71,7.85,3.28,9.95.26,1.99-2.86,4.15-17.96,5.55-22.72.31-1.06-.13-2.28,1.58-1.92.47,2.54.73,7.34.67,9.98-.08,3.21-3.07,16.45-1.31,17.95,1.73,1.47,6.22.92,8.05-.3,4.97-3.3,5.41-24.79,8.08-30.75,3.88.27,8.88-1.25,12.11,1.2-.1.22.38,4.62.57,4.86.9,1.11,3,1.3,3.92.28,3.64,3.08,3.65,9.32,3.14,13.73-.38,3.28-3.66,7.87.23,9.53,9.82,4.18,9.92-10.37,12.03-16.2,1.34,1.96,2.37,2.44,2.59,5.47.43,6.02-6.02,12.32,4.19,12.52,3.44.07,4.65-1.83,5.27-4.98,2.25-11.51-2.73-17.12-2.46-25.53.21-6.41,3.36-14.15,3.25-20.85,1.46-.26,1.02.08,1.43.82,1.22,2.23,1.66,5.59,3.7,7.52-.21.22-1.22,3.98-1.16,4.66.26,2.68,3.66,6.22,5.84,7.66,1.54,1.02,9.83,5.77,9.95,2.27.03-.97-2.1-10.54-2.59-11.56-1.21-2.52-4.76-4.43-7.56-4.32-3.26-6.66-4.39-14.47-7.39-21.17-3.9-8.7-13.46-13.98-22.13-16.7-2.98-.93-6.56-2.57-9.95-2.57h-21.18c-1.44,0-6.93-1.4-8.66-1.93-1.64-.5-3.01-1.08-4.49-1.93,6.18-3.06,9.75-11.98.41-11.52-1.69.08-9.33,2.86-10.68,3.81-1.1.32-1.76-1.22-1.93-1.28,2.86-5.29-.07-12.71-6.4-8.01-2.17,1.61-2.72,5.6-3.88,6.39-1.04.7-4.55,1.27-6.21,2.14-6.48,3.39-5.97,8.88-9.31,14.44-1.63,2.71-3.63,3.72-5.01,6.23Z"/>
      <path class="cls-2" d="M46.62,15.85c.16.06.82,1.6,1.93,1.28-.56.4-2.26,2.89-2.44,3.67-1.55,6.67,8.66,6.04,12.71,4.03,1.48.84,2.85,1.43,4.49,1.93.94,3.78,3.05,7.19,3.24,11.21.38,8.12-6.75,13.36-.67,21.83,5.54,7.72,20.51,7.78,27.81,2.79,5.94-4.06,4.51-9.35,6.91-14.91,2.75-6.39,11.22-6.56,2.51-16.43,8.67,2.72,18.24,7.99,22.13,16.7,3,6.7,4.13,14.51,7.39,21.17-.79.03-4.21.99-4.49,1.28-2.04-1.93-2.48-5.3-3.7-7.52-.41-.75.03-1.08-1.43-.82.11,6.7-3.04,14.44-3.25,20.85-.28,8.41,4.7,14.02,2.46,25.53-.62,3.16-1.83,5.05-5.27,4.98-10.21-.21-3.76-6.5-4.19-12.52-.22-3.03-1.25-3.51-2.59-5.47-.87-1.28-2.57-3.99-3.85-3.85l-4.49-10.64c-3.04.46-6.4.11-9.33.96-.12.04-2.17,1.21-2.23,1.33-3.23-2.44-8.23-.93-12.11-1.2-2.67,5.96-3.12,27.45-8.08,30.75-1.84,1.22-6.33,1.77-8.05.3-1.75-1.49,1.23-14.74,1.31-17.95.07-2.64-.19-7.44-.67-9.98-1.14-6.11-3.97-3.76-8.15-6.29-1.97-1.19-2.15-3.02-4.04-3.34-.27-2.35-3.75-12.17-4.83-14.75-1.48-3.53-3.49-6.78-7.77-7.05-3.21-.2-8.56.66-12.44.62-.3-1.62,4.55-4.42,3.21-5.77-1.21-1.21-4.18,2.81-5.57,3.06-2.62.47-3.75-.21-5.98-.49-.04-2.22,2.18-.7,3.86-2.88,4.99-6.45-6.51-5.9-9.64-8.68,1.25-1.51,2.16-2.81,4.49-2.57,2.6.27,3.23,2.43,7.01.26,4.12-2.36,2.94-8.06,7.15-10.82,5.24-3.43,15.55-.44,12.16-11.26.2-.17,3.93.43,4.49.64ZM47.25,31.25c-2.87,1.58-3.57-.66-5.58-1.15-2.84-.69-5.75-.3-6.47,2.89-1.92,8.58,3.51,6,8.44,3.31l3.61-5.05ZM56.07,32.66c-7.2,1.61-10.17,14.8-2.66,15.9,10.2,1.49,12.87-18.18,2.66-15.9ZM115.71,68.25c4.86-4.66,5.94-28.24-3.34-22.91-3.66,2.1-2.89,7.59-3.78,10.97-1.01,3.82-4.05,7.04-1.9,10.83,1.88,3.3,6.37,3.66,9.02,1.12ZM58.64,60.25c-7.12,1.44-.81,12.17,4.49,13.27,6.62,1.37,3.38-14.87-4.49-13.27ZM99.66,74.67c5.42-5.37-2.6-16.08-9.68-5.51-5.86,8.75,6.03,9.12,9.68,5.51Z"/>
      <path class="cls-4" d="M103.1,31.25c8.72,9.87.24,10.04-2.51,16.43-2.4,5.56-.97,10.86-6.91,14.91-7.3,4.99-22.27,4.93-27.81-2.79-6.08-8.48,1.05-13.72.67-21.83-.19-4.02-2.3-7.43-3.24-11.21,1.74.52,7.23,1.93,8.66,1.93h21.18c3.39,0,6.96,1.63,9.95,2.57Z"/>
      <path class="cls-1" d="M50.47,75.54c1.9.32,2.07,2.15,4.04,3.34,4.18,2.53,7.01.17,8.15,6.29-1.71-.37-1.27.85-1.58,1.92-1.4,4.76-3.56,19.86-5.55,22.72-2.1,3.02-10.5,3.46-9.95-.26.81-5.55,2.72-11.23,3.53-17.08.6-4.39,1.83-12.83,1.37-16.93Z"/>
      <path class="cls-4" d="M46.62,15.85c-.56-.21-4.29-.81-4.49-.64,3.39,10.82-6.92,7.82-12.16,11.26-4.21,2.76-3.02,8.46-7.15,10.82-3.78,2.16-4.41,0-7.01-.26,1.38-2.51,3.38-3.51,5.01-6.23,3.34-5.56,2.82-11.05,9.31-14.44,1.66-.87,5.17-1.44,6.21-2.14,1.16-.78,1.71-4.77,3.88-6.39,6.33-4.7,9.26,2.71,6.4,8.01Z"/>
      <path class="cls-1" d="M94.75,88.37c.17-.19.15-1.8.94-1.87.31-.03,5.8,1.74,6,1.98,1.04,1.2-1.03,4.23,3.02,3.77.84-.09,1.47-.66,1.59-.67,1.28-.14,2.98,2.57,3.85,3.85-2.11,5.83-2.21,20.38-12.03,16.2-3.9-1.66-.61-6.24-.23-9.53.51-4.41.5-10.65-3.14-13.73Z"/>
      <path class="cls-4" d="M132.62,69.12c2.79-.11,6.34,1.79,7.56,4.32.49,1.02,2.62,10.59,2.59,11.56-.13,3.5-8.41-1.25-9.95-2.27-2.18-1.44-5.58-4.98-5.84-7.66-.07-.68.95-4.45,1.16-4.66.28-.29,3.7-1.25,4.49-1.28Z"/>
      <path class="cls-4" d="M58.81,24.83c-4.05,2.01-14.25,2.64-12.71-4.03.18-.78,1.88-3.27,2.44-3.67,1.35-.96,8.99-3.73,10.68-3.81,9.34-.46,5.77,8.45-.41,11.52Z"/>
      <path class="cls-5" d="M106.3,91.58c-.12.01-.75.58-1.59.67-4.05.46-1.98-2.57-3.02-3.77-.21-.24-5.69-2.01-6-1.98-.79.07-.77,1.68-.94,1.87-.92,1.02-3.02.83-3.92-.28-.19-.24-.67-4.63-.57-4.86.05-.12,2.1-1.3,2.23-1.33,2.93-.86,6.3-.5,9.33-.96l4.49,10.64Z"/>
      <path class="cls-5" d="M11.32,39.6c3.12,2.78,14.63,2.23,9.64,8.68-1.68,2.17-3.9.66-3.86,2.88-1.04-.13-2.16.09-3.21,0-3.53-3.41-6.16-7.2-2.57-11.55Z"/>
      <path class="cls-6" d="M17.09,51.15c2.23.28,3.36.97,5.98.49,1.38-.25,4.36-4.27,5.57-3.06,1.34,1.35-3.51,4.15-3.21,5.77-.43,0-.86.02-1.28,0l-.32-.63-.32.63c-5.38-.24-5.61.67-9.63-3.21,1.05.09,2.17-.13,3.21,0Z"/>
      <path class="cls-1" d="M24.15,54.36c-.21,0-.43,0-.64,0l.32-.63.32.63Z"/>
      <path class="cls-6" d="M115.71,68.25c-2.65,2.54-7.14,2.19-9.02-1.12-2.15-3.78.89-7,1.9-10.83.89-3.39.12-8.87,3.78-10.97,9.29-5.33,8.2,18.25,3.34,22.91Z"/>
      <path class="cls-6" d="M56.07,32.66c10.21-2.29,7.54,17.38-2.66,15.9-7.5-1.09-4.54-14.28,2.66-15.9Z"/>
      <path class="cls-6" d="M99.66,74.67c-3.65,3.62-15.54,3.25-9.68-5.51,7.08-10.57,15.09.13,9.68,5.51Z"/>
      <path class="cls-6" d="M58.64,60.25c7.87-1.6,11.11,14.64,4.49,13.27-5.31-1.1-11.61-11.83-4.49-13.27Z"/>
      <path class="cls-7" d="M47.25,31.25l-3.61,5.05c-4.93,2.69-10.36,5.27-8.44-3.31.72-3.19,3.63-3.58,6.47-2.89,2.01.49,2.71,2.73,5.58,1.15Z"/>
    </g>
  </g>
</svg>