<?xml version="1.0" encoding="UTF-8"?>
<svg id="Layer_2" data-name="Layer 2" xmlns="http://www.w3.org/2000/svg" viewBox="0 0 138.07 138.97">
  <defs>
    <style>
      .cls-1 {
        fill: #d8d9da;
      }

      .cls-2 {
        fill: #fcfcfc;
      }

      .cls-3 {
        fill: #292728;
      }
    </style>
  </defs>
  <g id="Cursor">
    <g>
      <path class="cls-2" d="M4.06,34.69C-1.62,24.27-2.46,9.86,8.92,3.05c13.33-7.99,27.93,1.25,38.16,10.13,1.67,1.45,6.2,7.45,6.69,7.57,2.08.48,5.95-1.16,8.79-1.14,3.47.03,7.55,1.78,11.01,1.87,10.76.3,15.93-3.14,26.81,3.4,3.91,2.35,5.41,5.69,8.69,7.81,3.31,6.28,5.9,12.17,8,19,1.24,4.03,2.02,7.93,3,12,.67,2.78.64,7.05,2.1,9.4,1.28,2.07,7.76,5.23,10.42,8.58,5.95,7.48,6.97,18.23,3.48,27.02-.51,1.29-5.93,9.68-7,11-.73.9-7.23,7.41-8,8-1.42,1.08-8.03,4.55-10.01,5.49-8.75,4.14-18.59,6.65-28.49,5.52-6.32-.72-12.78-4.96-16.5-10-1.93-2.62-4.48-10.2-4.96-10.54-.97-.7-19.53-4.55-23.25-5.75-21.4-6.92-48.27-21.65-31.79-47.71,5.08-2.81,8.76-7.82,15.99-7.01.56-1.88-.79-1.67-.99-1.99-4.3-6.84-12.92-13.53-17-21ZM117.25,74.5c-.56-.86-2.01-13-2.68-15.82-3.91-16.33-10.08-35.14-29.99-36.04-3.8-.17-6.91,1.17-10.01,1.12-7.27-.11-14.21-2.34-21.79-.21C43.86,13.25,17.35-9.51,6.86,9.99c-5.94,11.04,2.65,21.86,9.23,30.18,3.28,4.15,14.58,14.53,15.96,18.05.68,1.73-.43,1.35-1.47,1.49-8.62,1.14-16.1-1.21-21.97,8.04-12.34,19.45,15.36,32.45,29.67,37.24,4.3,1.44,26.68,5.81,27.61,6.89.39.45.49,3.85,1.12,5.37,16.54,40.02,94.04-13.17,55.4-40.39-1.25-.88-4.86-1.91-5.15-2.35Z"/>
      <path class="cls-3" d="M117.25,74.5c.29.44,3.9,1.47,5.15,2.35,38.64,27.22-38.86,80.41-55.4,40.39-.63-1.52-.73-4.92-1.12-5.37-.93-1.08-23.31-5.45-27.61-6.89-14.3-4.79-42.01-17.78-29.67-37.24,5.87-9.26,13.35-6.91,21.97-8.04,1.04-.14,2.15.24,1.47-1.49-1.38-3.52-12.68-13.9-15.96-18.05C9.51,31.85.92,21.02,6.86,9.99c10.49-19.5,37.01,3.27,45.93,13.56,7.57-2.12,14.52.1,21.79.21,3.11.05,6.21-1.29,10.01-1.12,19.9.89,26.08,19.7,29.99,36.04.67,2.82,2.12,14.96,2.68,15.82ZM62.06,40.69c-.54,1.31,1.12,2.71-2.89,1.89C54.09,29.98,34.14,5.62,19.58,6.63c-6.05.42-9.12,5.74-8.45,11.46,1.25,10.66,38,44.09,33.93,48.6-9.57-1.96-28.19-7.34-31.99,5-3.76,12.21,10.69,19.21,20.32,23.18,6.7,2.77,25.55,8.68,32.24,8.87,5.56.15,4.21-3.8,7.53-5.62,1.31-.72,1.81.58,1.92.58.11.63-.16,1.48,0,2-7.19,7.71-1.04,21.03,8.73,22.77,5.68,1.01,16.92-1.79,22.27-4.27,11.48-5.31,28.78-23.64,17.01-36.05-1.21-1.28-2.5-1.07-3.01-1.45-6.86-5.1-9.34-4.29-17.99-4.01-.36-4.35,8.86-2.29,8.95-6.39.06-2.95-2.34-13.36-3.24-16.81-3.73-14.26-9.96-29.55-27.72-27.31l4.56,11.46-.05,4.05c-6.78-9.26-10.69-16.39-23.51-15.99-1.74.05-4.38-.96-4.01,1.49.51,3.38,3.98,8.85,5.01,12.51Z"/>
      <path class="cls-2" d="M13.06,71.69c3.8-12.34,22.42-6.96,31.99-5,4.08-4.51-32.68-37.94-33.93-48.6-.67-5.71,2.4-11.03,8.45-11.46,14.56-1.02,34.52,23.35,39.6,35.95,4.01.82,2.35-.58,2.89-1.89,2.3-5.56-.48-8.55-1-14,12.81-.4,16.72,6.74,23.51,15.99l.05-4.05-4.56-11.46c17.76-2.25,23.99,13.05,27.72,27.31.9,3.44,3.31,13.85,3.24,16.81-.09,4.11-9.31,2.04-8.95,6.39,8.65-.29,11.13-1.09,17.99,4.01,7.49,18.96-23.3,40.3-38.7,32.2-6.05-3.19-4.63-7.67-6.3-13.2-.16-.52.11-1.37,0-2,2.62-.14,3.37-2.29,4-5h-22.5c-2.12,0-12.72-2.7-15.51-3.49-11.72-3.33-20.9-8.53-27.99-18.51Z"/>
      <path class="cls-1" d="M75.06,100.69c1.68,5.53.25,10.01,6.3,13.2,15.4,8.1,46.18-13.24,38.7-32.2.51.38,1.8.17,3.01,1.45,11.77,12.41-5.53,30.74-17.01,36.05-5.35,2.47-16.58,5.28-22.27,4.27-9.77-1.73-15.92-15.05-8.73-22.77Z"/>
      <path class="cls-1" d="M13.06,71.69c7.09,9.98,16.27,15.18,27.99,18.51,2.79.79,13.39,3.49,15.51,3.49h22.5c-.63,2.71-1.38,4.86-4,5-.11,0-.61-1.3-1.92-.58-3.32,1.82-1.96,5.78-7.53,5.62-6.69-.19-25.53-6.1-32.24-8.87-9.63-3.97-24.08-10.97-20.32-23.18Z"/>
      <path class="cls-1" d="M61.06,26.69c.52,5.45,3.3,8.44,1,14-1.02-3.65-4.49-9.13-5.01-12.51-.37-2.46,2.27-1.44,4.01-1.49Z"/>
    </g>
  </g>
</svg>