<?xml version="1.0" encoding="UTF-8"?>
<svg id="Layer_2" data-name="Layer 2" xmlns="http://www.w3.org/2000/svg" viewBox="0 0 152.44 138.59">
  <defs>
    <style>
      .cls-1 {
        fill: #010101;
      }

      .cls-2 {
        fill: #c0a183;
      }

      .cls-3 {
        fill: #6b6056;
      }

      .cls-4 {
        fill: #f5f5f5;
      }
    </style>
  </defs>
  <g id="Emu">
    <g>
      <path class="cls-4" d="M51.72,31.46c23.54-24.24,61.63-24.21,84.4,1.27,8.51,9.53,22.39,32.72,13.43,44.89-2.57,3.5-4.44,2.69-7.29,4.26-2.01,1.1-2.73,3.27-5.82,4.44-6.99,2.65-10.55-.46-17.33-.96-.2,11.79.29,24.51-1.36,36.19-.73,5.15-1.63,10.6-6.53,13.37s-9.67,1.22-14.85,1.84c-2.61.31-5.3,1.93-8.3,1.83-6.22-.21-9.58-4.21-11.46-9.76-3.85-11.35,7.14-17.27,16.75-18.49l-.58-21.76c-.73-.69-3.03,2.01-3.48,2.61-5.36,6.99-10.07,18.23-15.63,26.09-3.95,5.59-6.94,10.81-14.61,11.1-2.34.09-4.16-.71-6.35-.67-5.9.12-9.36,3.53-15.8.38-5.45-2.66-7.23-12.53-5.41-17.69,2.02-5.73,9.85-8.31,15.41-8.98,1.95-.23,6.02.51,7.38-.32,1.63-1,6.34-12.03,8.32-14.14-9.68,1.4-19.78,1.12-28.67-3.4-11.83-6.03-16.6-16.13-15.52-29.24.27-3.24,3.6-14.95,3.05-16.65-.8-2.47-6.82-1.52-9.06-1.88-7.77-1.26-14.15-5.37-11.97-14.2,1.73-6.99,6.82-6.57,10.54-10.01,4.27-3.96,3.12-7.92,11.34-10.48,19.22-5.99,30.57,13.62,29.4,30.36ZM46.58,44.93c.28-11.8,2.36-22.33-3.75-33.16C37.4,2.15,23.35-.02,16.78,9.68c-.92,1.35-1.35,3.72-1.82,4.28-1.97,2.39-10.24,2.58-10.56,8.93-.4,7.94,10.81,6.54,15.5,7.32,2.15.36,4.24,2.26,6.75,1.91-1.07,15.18-10,30.37,4.18,42.35,8.02,6.77,16.89,7.51,27,7.07,1.74-.07,6.68-1.42,7.62-1.2.31.07,2.75,3.18,2.85,3.56.35,1.31-2.77,6.08-3.65,7.67-1.04,1.87-7.53,12.93-8.46,13.4-.44.22-7.6-.52-9.79-.2-7.72,1.12-12.79,5.11-10.44,13.35,2.44,8.58,10.63,3.87,16.7,3.78,4.24-.06,7.5,2.03,11.58-1.22,3.2-2.55,10.2-14.56,12.76-18.68,2.54-4.09,5.98-12.31,8.42-15.33,1.72-2.14,4.98-3.55,5.75-7.08.74,1.05,2.71.91,3.37,1.44.29.24,3.11,6.11,3.23,6.72,1.06,5.17-.39,11.35-.43,16.47-.01,1.46,1.31,8.65.58,9.38-6.29-.41-19.7,2.81-17.04,11.58.15.48,2.59,5.12,2.89,5.45,3.59,3.99,7.85.71,11.9.3,6.14-.62,13.73,2.13,16.33-5.49,2.42-7.12,3.23-31.77,2.62-39.78-.18-2.39-1.13-4.38-1.3-6.71,1.5-.07,2.68,1.21,4.17,1.2,1.59,0,3-1.41,5.07-1.2,3.68.37,4.72,3.53,10.69,2.27,4.29-.91,4.25-3.61,5.91-4.67,1.25-.79,4.02-.36,5.94-2.08,7.98-7.15-2.92-27.06-7.78-33.98-15.94-22.69-42.54-30.23-67.9-17.95-10.38,5.03-16.39,13.26-22.86,22.38Z"/>
      <path class="cls-1" d="M46.58,44.93c6.47-9.12,12.48-17.36,22.86-22.38,25.36-12.28,51.95-4.75,67.9,17.95,4.86,6.92,15.75,26.83,7.78,33.98-1.92,1.72-4.69,1.29-5.94,2.08-1.67,1.06-1.62,3.77-5.91,4.67-5.97,1.26-7-1.9-10.69-2.27-2.07-.21-3.49,1.19-5.07,1.2-1.49,0-2.67-1.27-4.17-1.2.17,2.34,1.12,4.33,1.3,6.71.61,8.01-.2,32.67-2.62,39.78-2.6,7.62-10.19,4.87-16.33,5.49-4.05.41-8.31,3.69-11.9-.3-.3-.33-2.74-4.97-2.89-5.45-2.66-8.77,10.74-11.99,17.04-11.58.73-.73-.59-7.92-.58-9.38.05-5.12,1.49-11.3.43-16.47-.12-.61-2.94-6.48-3.23-6.72-.66-.54-2.63-.39-3.37-1.44-.76,3.53-4.02,4.94-5.75,7.08-2.44,3.02-5.88,11.24-8.42,15.33-2.56,4.13-9.57,16.13-12.76,18.68-4.08,3.25-7.34,1.16-11.58,1.22-6.07.09-14.26,4.8-16.7-3.78-2.34-8.25,2.72-12.23,10.44-13.35,2.19-.32,9.36.42,9.79.2.93-.47,7.42-11.53,8.46-13.4.88-1.59,4-6.36,3.65-7.67-.1-.38-2.54-3.48-2.85-3.56-.94-.22-5.89,1.12-7.62,1.2-10.1.44-18.98-.3-27-7.07-14.18-11.98-5.25-27.17-4.18-42.35-2.52.35-4.61-1.55-6.75-1.91-4.69-.78-15.9.62-15.5-7.32.32-6.35,8.59-6.54,10.56-8.93.47-.57.9-2.93,1.82-4.28C23.35-.02,37.4,2.15,42.83,11.78c6.11,10.83,4.04,21.36,3.75,33.16ZM41.44,41.73c-.22-9.59,2.39-18.05-1.8-27.4-4.73-10.56-18.02-10.63-20.66,1.08,2.95-.56,6.16,1.05,7.73,3.5,2.19,3.41-2.77,2.79-5.16,3.88,1.75,3.08,6.2,1.63,8.31,3.24,4.19,3.21.11,14.49-.61,18.9-1.68,10.26-3.26,17.96,6.21,24.92,10.04,7.37,22.31,4.41,33.58,2.68.4,3.04,1.74,4.74,3.84,6.77.82.8,2.3.71,1.86,1.77-1.94,4-4.05,7.91-6.23,11.79-1.6,2.84-7.24,13.04-9.07,14.67-1.97,1.76-6.91.16-10,.27-2.43.09-8.75.81-9.22,3.6-.28,1.63,1.93.61,2.52,1.88.08.18-3.36,1.31-1.54,2.91,1.37,1.04,7.9-1.17,10.22-1.3,7.52-.42,7.1,3.13,12.39-3.66,6.98-8.97,11.68-21.73,17.8-29.69,1.19-1.54,2.76-2.01,3.92-3.78,1.49-2.3,2.13-5.73,2.15-8.44,5.98-.35,2.88,1.47,6.39,4.2,1.17.91,2.42,1.39,3.88,1.58,1.45,3.33,4.59,7.75,5.08,11.29.75,5.47.41,16.65.08,22.43-.09,1.65-.67,8.32-1.68,8.56-.38.09-5.29-.71-7.03-.59-2.21.15-9.52,1.73-8.64,4.82.22.78,1.8,1,2.56.98l-1.28,3.2c3.01-.09,5.76-1.5,8.74-1.84,2.06-.24,10.28.28,11.22-1.11.88-1.3,1.68-10.52,1.85-12.78.57-7.56,1.37-19.64.64-26.94-.33-3.35-2.02-6.1-2.56-9.31,2.61-1.52,1.66-5.93,4.49-6.42-.33,2.33,3.27,5.06,5.14,5.51,2.9.7,4.74-2.38,5.98-2.2,1.77.26,3.39,3.7,7.82,3.8,5.44.12,4.23-3.74,6.08-4.87,2.02-1.23,5.33,1.37,6.28-2.7,1.35-5.74-3.14-15.03-5.94-20.08-.6-1.08-1.34-3.4-2.9-3.2-2.09-7-14.38-16.73-20.94-19.82-17.12-8.05-41.13-3.19-53.84,10.82-2.59,2.86-9.95,15.27-12.33,15.95-5.67,1.62-5.23-5.37-5.31-8.88Z"/>
      <path class="cls-3" d="M87.65,69.32c-.01,2.71-.66,6.15-2.15,8.44-1.15,1.78-2.73,2.24-3.92,3.78-6.12,7.96-10.82,20.72-17.8,29.69-5.29,6.79-4.87,3.24-12.39,3.66-2.32.13-8.84,2.34-10.22,1.3-1.82-1.6,1.62-2.73,1.54-2.91-.59-1.27-2.79-.26-2.52-1.88.48-2.79,6.79-3.51,9.22-3.6,3.09-.12,8.03,1.49,10-.27,1.83-1.63,7.47-11.83,9.07-14.67,2.18-3.87,4.29-7.78,6.23-11.79.44-1.06-1.04-.97-1.86-1.77-2.1-2.04-3.44-3.73-3.84-6.77,5.88-.9,12.85-2.87,18.61-3.21Z"/>
      <path class="cls-3" d="M106.91,73.82c.54,3.22,2.23,5.96,2.56,9.31.73,7.3-.07,19.38-.64,26.94-.17,2.26-.97,11.48-1.85,12.78-.94,1.39-9.16.87-11.22,1.11-2.98.35-5.73,1.76-8.74,1.84l1.28-3.2c-.77.02-2.34-.2-2.56-.98-.88-3.09,6.43-4.67,8.64-4.82,1.75-.12,6.65.68,7.03.59,1.01-.24,1.59-6.91,1.68-8.56.33-5.79.67-16.97-.08-22.43-.48-3.54-3.63-7.96-5.08-11.29,2.08.26,7.23-.26,8.99-1.28Z"/>
      <g>
        <path class="cls-2" d="M133.86,43.65c2.02,6.78-.53,14.91-6.21,19.14-5.5,4.1-10.06,3.54-16.26,4.6-2.83.48-1.88,4.9-4.49,6.42-1.75,1.02-6.91,1.55-8.99,1.28-1.46-.19-2.71-.66-3.88-1.58-3.5-2.73-.41-4.55-6.39-4.2-5.76.34-12.74,2.31-18.61,3.21-11.27,1.73-23.55,4.69-33.58-2.68-9.47-6.96-7.89-14.66-6.21-24.92,4.73,1.88,8.55-.49,12.19-3.21.08,3.5-.35,10.5,5.31,8.88,2.37-.68,9.74-13.09,12.33-15.95,12.71-14.02,36.72-18.88,53.84-10.82,6.56,3.08,18.85,12.82,20.94,19.82ZM113.96,52.63h-1.92c.44,8.03-4.49,4.31-7.89,5.11-.56.13-2.59,4.61-5.95,5.13-5.58.86-6.44-2.65-9.08-3.07-1.58-.25-3.49,1.27-5.62,1.21-2.89-.08-4.42-2.11-6.47-2.57-3.3-.75-.66,2.18.77,3.08,4.96,3.11,6.66.82,10.76,1.4,1.62.23,2.51,1.49,3.87,1.94,3.27,1.07,6.35,1.63,9.58-.11,1.79-.96,2.54-3.58,3.62-4.13.98-.5,2.15.26,3.23.08,4.52-.77,5.52-3.79,5.1-8.06Z"/>
        <path class="cls-3" d="M41.44,41.73c-3.65,2.72-7.47,5.08-12.19,3.21.72-4.41,4.81-15.69.61-18.9-2.11-1.62-6.56-.16-8.31-3.24,2.39-1.09,7.35-.47,5.16-3.88-1.58-2.45-4.78-4.06-7.73-3.5,2.64-11.71,15.93-11.64,20.66-1.08,4.19,9.35,1.58,17.81,1.8,27.4ZM33.9,15.16c0-1.61-1.31-2.92-2.92-2.92s-2.92,1.31-2.92,2.92,1.31,2.92,2.92,2.92,2.92-1.31,2.92-2.92Z"/>
        <path class="cls-3" d="M133.86,43.65c1.56-.2,2.3,2.12,2.9,3.2,2.8,5.05,7.29,14.35,5.94,20.08-.96,4.06-4.27,1.47-6.28,2.7-1.86,1.13-.65,5-6.08,4.87-4.43-.1-6.05-3.54-7.82-3.8-1.23-.18-3.08,2.9-5.98,2.2-1.87-.45-5.47-3.18-5.14-5.51,6.19-1.06,10.76-.5,16.26-4.6,5.67-4.23,8.23-12.36,6.21-19.14Z"/>
        <path class="cls-3" d="M113.96,52.63c.42,4.27-.58,7.3-5.1,8.06-1.08.18-2.25-.58-3.23-.08-1.08.55-1.83,3.18-3.62,4.13-3.23,1.74-6.31,1.17-9.58.11-1.36-.45-2.25-1.71-3.87-1.94-4.1-.58-5.8,1.71-10.76-1.4-1.43-.9-4.07-3.83-.77-3.08,2.04.46,3.58,2.49,6.47,2.57,2.12.06,4.04-1.46,5.62-1.21,2.64.42,3.5,3.93,9.08,3.07,3.36-.52,5.39-5,5.95-5.13,3.4-.81,8.33,2.91,7.89-5.11h1.92Z"/>
        <circle class="cls-1" cx="30.98" cy="15.16" r="2.92"/>
      </g>
    </g>
  </g>
</svg>