<?xml version="1.0" encoding="UTF-8"?>
<svg id="Layer_2" data-name="Layer 2" xmlns="http://www.w3.org/2000/svg" viewBox="0 0 539.48 154.23">
  <defs>
    <style>
      .cls-1 {
        stroke: #000;
        stroke-width: 17.89px;
      }

      .cls-1, .cls-2 {
        stroke-miterlimit: 10;
      }

      .cls-3, .cls-4 {
        fill: #651f01;
      }

      .cls-5 {
        fill: #db5426;
      }

      .cls-6, .cls-2 {
        fill: #ff6a00;
      }

      .cls-4 {
        font-family: LapsusPro-Bold, 'Lapsus Pro';
        font-size: 86px;
        font-weight: 700;
      }

      .cls-2 {
        stroke: #ff6a00;
        stroke-width: 10px;
      }
    </style>
  </defs>
  <g id="End_turn" data-name="End turn">
    <g>
      <rect class="cls-1" x="8.95" y="8.95" width="521.59" height="136.34" rx="10" ry="10"/>
      <rect class="cls-5" x="8.95" y="8.95" width="521.59" height="136.34" rx="10" ry="10"/>
      <rect class="cls-6" x="8.95" y="8.95" width="521.59" height="116.68" rx="10" ry="10"/>
      <text class="cls-4" transform="translate(25.85 96.73)"><tspan x="0" y="0">End turn</tspan></text>
      <path class="cls-3" d="M441.94,34.86c.81,0,17.19-.46,17.82-.47,0,0,.04,0,.08,0,.14,0,.4.01.7.08.63.15,1.2.48,1.63.98l33.59,38.3,4.5-4.81c.75-.81,2.02-.85,2.83-.09l4.29,4.01c.81.75.85,2.02.09,2.83l-5.17,5.52,12.78,14.58c.78.78.78,2.05,0,2.83l-9.45,9.45c-.78.78-2.05.78-2.83,0-4.71-4.09-9.42-8.18-14.14-12.28l-5.29,5.66c-.75.81-2.02.85-2.83.1l-4.29-4.01c-.81-.75-.85-2.02-.09-2.83l5.04-5.39c-12.84-11.15-25.68-22.3-38.51-33.45-.33-.28-.49-.69-.56-1.12-2.63-17.07-2.12-19.87-.2-19.87Z"/>
      <path class="cls-2" d="M502.71,34.86c-.81,0-17.19-.46-17.82-.47,0,0-.04,0-.08,0-.14,0-.4.01-.7.08-.63.15-1.2.48-1.63.98l-33.59,38.3-4.5-4.81c-.75-.81-2.02-.85-2.83-.09l-4.29,4.01c-.81.75-.85,2.02-.09,2.83l5.17,5.52-12.78,14.58c-.78.78-.78,2.05,0,2.83l9.45,9.45c.78.78,2.05.78,2.83,0,4.71-4.09,9.42-8.18,14.14-12.28l5.29,5.66c.75.81,2.02.85,2.83.1l4.29-4.01c.81-.75.85-2.02.09-2.83l-5.04-5.39c12.84-11.15,25.68-22.3,38.51-33.45.33-.28.49-.69.56-1.12,2.63-17.07,2.12-19.87.2-19.87Z"/>
      <path class="cls-3" d="M502.71,34.86c-.81,0-17.19-.46-17.82-.47,0,0-.04,0-.08,0-.14,0-.4.01-.7.08-.63.15-1.2.48-1.63.98l-33.59,38.3-4.5-4.81c-.75-.81-2.02-.85-2.83-.09l-4.29,4.01c-.81.75-.85,2.02-.09,2.83l5.17,5.52-12.78,14.58c-.78.78-.78,2.05,0,2.83l9.45,9.45c.78.78,2.05.78,2.83,0,4.71-4.09,9.42-8.18,14.14-12.28l5.29,5.66c.75.81,2.02.85,2.83.1l4.29-4.01c.81-.75.85-2.02.09-2.83l-5.04-5.39c12.84-11.15,25.68-22.3,38.51-33.45.33-.28.49-.69.56-1.12,2.63-17.07,2.12-19.87.2-19.87Z"/>
    </g>
  </g>
</svg>