<?xml version="1.0" encoding="UTF-8"?>
<svg id="Layer_2" data-name="Layer 2" xmlns="http://www.w3.org/2000/svg" viewBox="0 0 125.58 117.44">
  <defs>
    <style>
      .cls-1 {
        fill: #020202;
      }

      .cls-2 {
        fill: #05532b;
      }

      .cls-3 {
        fill: #becf5c;
      }

      .cls-4 {
        fill: #f5f5f5;
      }

      .cls-5 {
        fill: #628843;
      }
    </style>
  </defs>
  <g id="Frog">
    <g>
      <path class="cls-4" d="M29.85.03c3.45-.27,5.8,1.14,8.8,1.18,3.29.04,6.47-1.01,10.25-.68,2.58.22,5.77,1.77,7.75,1.87s4.6-1.12,6.84-1.07c8.23.2,17.15,4.91,21.56,11.81,1.41,2.2,2.35,5.76,3.95,7.6,4.2,4.82,11.85,9.76,16.68,15.41,12.54,14.68,34.08,63.96,6.45,72.52-3.19.99-6.91.6-9.24,1.12-.5.11-6.36,4.42-8.76,5.28-8.42,3-10.47.27-17.64.27-7.05,0-13.36,2.7-21.81,1.97-4.6-.4-14.36-4.44-16.7-4.44-1.28,0-4.3,1.89-5.97,2.33-14.3,3.77-22.66-6.84-25.73-19.48-.38-1.55-.06-3.74-.23-4.32-.17-.59-2.99-2.29-4.05-4.22-4.37-7.96-.73-21.88,1.98-30.17.6-1.84,3.27-6.48,3.36-7.51.06-.69-2.12-5.45-2.34-7.68-.4-3.93.12-8.09,1.53-11.78.77-2.01,3.05-4.52,3.38-5.61.82-2.65.73-6.6,1.74-9.81C14.24,6.53,21.29.71,29.85.03ZM12.13,86.62c-4.43,9.1,5.14,24.72,15.54,23.61,3.19-.34,8.18-3.93,10.29-3.8,1.6.09,6.58,2.71,8.87,3.37,5.87,1.69,12.04,2.27,18.16,1.78,3.83-.3,8.53-2.52,11.55-2.62,3.78-.13,6.05,2.53,11.37,1.79,6.39-.89,10.04-5.83,13.13-6.76,3.31-.99,6.07.48,10.68-1.51,15.81-6.81,7.5-32.76,2.45-44.62-4.85-11.38-12.15-21.13-21.28-29.43-1.86-1.69-7.35-5.08-8.37-6.39-2.88-3.7-2.18-7.68-7.67-12.22-8.22-6.79-12.04-3.87-20.85-4.13-2.59-.08-5.59-1.85-8.98-1.99s-6.58,1.38-8.97,1.27c-2.01-.09-4.76-1.91-7.11-1.89-9.76.07-15.51,9.74-16.38,18.33-.11,1.1.66,2.32.52,3.1-.06.34-3.27,4.1-3.95,5.6-1.58,3.46-2.13,6.53-1.52,10.36.37,2.31,3.01,6.49,3.01,7.85,0,.81-4.64,10.54-5.41,13.16-2.3,7.88-6.97,26.41,6.73,24.39l-1.8.74Z"/>
      <path class="cls-1" d="M12.13,86.62l1.8-.74c-13.71,2.01-9.03-16.51-6.73-24.39.76-2.62,5.41-12.35,5.41-13.16,0-1.36-2.64-5.55-3.01-7.85-.61-3.83-.06-6.91,1.52-10.36.69-1.49,3.89-5.26,3.95-5.6.14-.78-.63-2-.52-3.1.87-8.59,6.62-18.26,16.38-18.33,2.36-.02,5.1,1.8,7.11,1.89,2.39.11,5.48-1.41,8.97-1.27s6.39,1.91,8.98,1.99c8.81.26,12.63-2.66,20.85,4.13,5.49,4.54,4.79,8.52,7.67,12.22,1.02,1.31,6.52,4.7,8.37,6.39,9.12,8.29,16.42,18.04,21.28,29.43,5.06,11.86,13.36,37.81-2.45,44.62-4.62,1.99-7.37.51-10.68,1.51-3.09.93-6.74,5.87-13.13,6.76-5.32.74-7.59-1.92-11.37-1.79-3.02.1-7.72,2.32-11.55,2.62-6.12.48-12.29-.09-18.16-1.78-2.29-.66-7.27-3.28-8.87-3.37-2.1-.12-7.1,3.46-10.29,3.8-10.39,1.11-19.96-14.51-15.54-23.61ZM19.07,45.44c-.24.88-.35,2.53-.64,3.85-2.96.61-4.22,4.87-5.14,7.37-2.51,6.83-4.38,15.65-3.2,22.79,1.33.44,2.79-1.74,3.52-1.72.52.02,1.19,1.32,2.45,1.02,1.09-.26,1.94-2.68,3.66-2.51,1.12,3.15,2.68,6.84,4.49,9.63v3.85c-12.64-7.18-8.53,6.36-2.88,11.55,4.44,4.08,9.55,1.02,14.03-1.39.9-.48,2.03-.25,1.69-1.81,11.06,6.82,24.11,8.38,36.58,4.49,1.07-.33,2.34-.53,3.21-1.28.46.43,5.36,2.27,6.25,2.41,5.12.81,9.12-.92,13.04-3.99.85-.66,1.01-2.06,2.04-2.48,4.89-2.05,12.67,2.26,16.22-5.55,6.53-14.38-7.76-43.2-17.64-54.26-4.28-4.79-13.14-10.35-16.08-14.09-1.43-1.81-1.59-4.27-2.67-6.32-4.04-7.67-10.69-9.32-18.78-8.75-1.13.08-2.09,1.2-3.13,1.11-1.75-.14-5.43-2.23-8.47-2.42-3.87-.24-7.41,1.51-10.27,1.33-1.78-.11-3.9-1.89-6.42-1.85-6.73.09-11.17,6.89-11.24,13.06-.02,1.71,1.02,3.33.56,4.95-.3,1.06-3.21,3.22-4.16,4.87-3.09,5.37-1.58,12.2,2.98,16.14Z"/>
      <path class="cls-2" d="M37.04,98.07c.34,1.56-.79,1.33-1.69,1.81-4.47,2.41-9.58,5.47-14.03,1.39-5.65-5.19-9.76-18.73,2.87-11.55v-3.85c3.08,4.73,8.06,9.24,12.84,12.19Z"/>
      <path class="cls-2" d="M18.43,49.29c-.24,1.07-1.28,5.01-1.28,5.46v12.84c0,1.53,1.92,6.85,2.57,8.66-1.71-.17-2.57,2.26-3.66,2.51-1.26.3-1.92-1-2.45-1.02-.73-.03-2.19,2.15-3.52,1.72-1.19-7.15.68-15.97,3.2-22.79.92-2.51,2.18-6.76,5.14-7.37Z"/>
      <g>
        <path class="cls-5" d="M19.07,45.44c-4.56-3.94-6.07-10.77-2.98-16.14.95-1.65,3.86-3.81,4.16-4.87.46-1.62-.58-3.25-.56-4.95.07-6.17,4.52-12.97,11.24-13.06,2.51-.04,4.64,1.74,6.42,1.85,2.86.18,6.4-1.57,10.27-1.33,3.03.19,6.72,2.28,8.47,2.42,1.04.08,2-1.03,3.13-1.11,8.09-.57,14.75,1.07,18.78,8.75,1.08,2.05,1.24,4.51,2.67,6.32,2.94,3.74,11.8,9.3,16.08,14.09,9.88,11.06,24.17,39.88,17.64,54.26-3.55,7.82-11.33,3.5-16.22,5.55-1.02.43-1.19,1.82-2.04,2.48-3.92,3.07-7.93,4.81-13.04,3.99-.89-.14-5.79-1.98-6.25-2.41-.36-.34-5.11-7.53-5.48-8.32-2.8-5.95,3.68-3.79,7.22-2.09,1.17.57,3.05,3.08,4.63,2.01.32-.22,1.35-6.21,1.79-7.51,2.47-7.24,7.46-16.91,16.67-12.46.46.22,5.49,4.56,4.68,1.75-.46-1.59-4.18-4.12-5.74-4.53-12.44-3.27-16.74,8.4-20.26,17.67-3.64-1.88-6.53-2.75-10.57-1.28-.26-2.28-2.88-3.15-3.85-5.13,1.04-1.38,4.58-7.86,5.02-9.43.27-.97.47-1.71-.85-1.49-2.99.5-7.66,11.86-11.55,13.48-1.82.76-.56-3.46-.96-3.85-.37-.36-2.25.11-2.93.6-1.38,1-2.56,5.48-4.13,4.21-.9-6.66,6.59-25.94,12.51-29.84,3.15-2.08,3.85-.42,6.42-.63,1.65-.14-.64-4.76-6.24-2.4-2.82,1.19-6.55,5.59-8.19,8.17-1.52-2.45-2.39-6.45-2.55-9.31-.07-1.27.33-10.14.63-10.58.16-.24,1.87.89.99-1.94-3.03-9.72-25.14-16.08-30.64-5.57-1,1.91-.69,3.55-1.16,4.94-.79,2.34-2.73,5.93-3.21,7.7ZM25.65,15.44c-3.25,3.37,1.09,12.92,6.94,7.9,1.79-1.54,4.19-8.18,2.89-10.03-1.28-1.81-8.71.96-9.83,2.13ZM56.74,16.04c-3.82,1.17-3.47,9.44-1.1,12.41,5.76,7.24,17.37-2.8,13.82-8.69-1.03-1.7-10.49-4.4-12.71-3.72Z"/>
        <path class="cls-3" d="M53.09,40.31c-.3.44-.7,9.31-.63,10.58.16,2.86,1.04,6.86,2.55,9.31-3.06,4.8-9.57,21.08-7.23,26.16,2.04,4.42,5.54.55,6.99.33,1.07-.17,2.44.74,4.26.35,1.54-.33,5.89-4.34,6.88-5.66.97,1.98,3.59,2.85,3.85,5.13-7.26,2.64,1.62,12.27,3.85,16.05-12.47,3.89-25.53,2.33-36.58-4.49-4.78-2.95-9.77-7.46-12.84-12.19-1.81-2.79-3.37-6.47-4.49-9.63-.65-1.82-2.57-7.14-2.57-8.66v-12.84c0-.44,1.05-4.39,1.28-5.46.29-1.32.4-2.97.64-3.85.48-1.78,2.42-5.36,3.21-7.7,4.6.3,3.11-5.01,7.88-6.56,8.96-2.92,17.41,2.64,22.93,9.13Z"/>
        <path class="cls-2" d="M69.77,86.52c4.04-1.47,6.93-.6,10.57,1.28,3.53-9.27,7.82-20.94,20.26-17.67,1.56.41,5.29,2.94,5.74,4.53.81,2.82-4.21-1.52-4.68-1.75-9.21-4.45-14.2,5.22-16.67,12.46-.44,1.3-1.47,7.29-1.79,7.51-1.58,1.07-3.45-1.45-4.63-2.01-3.54-1.71-10.02-3.86-7.22,2.09.37.79,5.12,7.98,5.48,8.32-.87.75-2.14.95-3.21,1.28-2.23-3.78-11.11-13.41-3.85-16.05Z"/>
        <path class="cls-2" d="M55.01,60.2c1.64-2.58,5.37-6.98,8.19-8.17,5.61-2.36,7.89,2.26,6.24,2.4-2.56.22-3.27-1.44-6.42.63-5.93,3.91-13.41,23.18-12.51,29.84,1.57,1.27,2.75-3.22,4.13-4.21.68-.49,2.56-.96,2.93-.6.39.39-.86,4.61.96,3.85,3.89-1.63,8.56-12.99,11.55-13.48,1.33-.22,1.12.52.85,1.49-.44,1.57-3.98,8.04-5.02,9.43-.99,1.33-5.34,5.34-6.88,5.66-1.82.39-3.19-.52-4.26-.35-1.45.23-4.96,4.1-6.99-.33-2.34-5.08,4.16-21.36,7.23-26.16Z"/>
        <path class="cls-1" d="M56.74,16.04c2.22-.68,11.69,2.02,12.71,3.72,3.56,5.88-8.05,15.93-13.82,8.69-2.36-2.97-2.72-11.24,1.1-12.41Z"/>
        <path class="cls-2" d="M22.28,37.74c.47-1.39.16-3.03,1.16-4.94,5.5-10.51,27.61-4.14,30.64,5.57.88,2.83-.83,1.7-.99,1.94-5.52-6.49-13.97-12.05-22.93-9.13-4.76,1.55-3.28,6.87-7.88,6.56Z"/>
        <path class="cls-1" d="M25.65,15.44c1.12-1.16,8.54-3.94,9.83-2.13,1.31,1.85-1.09,8.49-2.89,10.03-5.85,5.02-10.19-4.53-6.94-7.9Z"/>
      </g>
    </g>
  </g>
</svg>