<?xml version="1.0" encoding="UTF-8"?>
<svg id="Layer_2" data-name="Layer 2" xmlns="http://www.w3.org/2000/svg" viewBox="0 0 152.48 128.2">
  <defs>
    <style>
      .cls-1 {
        fill: #010101;
      }

      .cls-2 {
        fill: #a34022;
      }

      .cls-3 {
        fill: #7a2b18;
      }

      .cls-4 {
        fill: #f9c59c;
      }

      .cls-5 {
        fill: #f5f5f5;
      }
    </style>
  </defs>
  <g id="Hedgehog">
    <g>
      <g>
        <path class="cls-5" d="M127.83,22.83c7.29.68,16.47,4.75,16.46,13.25,0,1.6-1.95,6.99-1.73,7.29.13.18,2.52,1.58,3.48,2.65,4.62,5.12,8.96,11.32,4.7,18.19-1.14,1.84-4.69,3.72-4.94,4.72-.76,2.99,3.99,6.97-.45,13.63-3.03,4.54-10.84,5.45-11.7,6.6s-.34,5.72-2.69,8.54c-2.59,3.11-5.71,2.15-7.45,3.46-.5.38-3.89,8.97-5.51,11.18-6.14,8.36-15.63,11.29-25.36,6.97-2.35-1.04-4.47-4.09-6.24-3.98-.3.02-5.45,1.74-5.71,1.9-.73.44-1.53,2.62-2.39,3.56-7.38,8.08-16.76,9.89-26.26,3.82-1.06-.68-2.03-2.48-3.07-2.76-1.69-.45-4.96,1.17-6.95,1.21-12.01.23-19.08-10.03-15.05-21.19-15.8.47-31.04-14.81-25.99-30.8,2.46-7.8,6.65-7.24,10.91-11.55,4.42-4.48-.15-9.65-.34-15.12-.13-3.67,1.24-8.21,4.19-10.55,1.12-.88,3.59-1.61,4-2.1.62-.74,2.41-6.44,3.5-8.37,2.78-4.91,4.35-6.87,10.12-7.85,1.08-.19,2.13.54,3.21.05,1.82-.82,7.49-6.55,10.35-8.32,3.38-2.1,12.04-6.47,15.78-6.55,4.79-.11,8.37,4.14,9.4,4.13,1.16-.02,6.44-2.51,8.52-3.04,5.91-1.5,13.84-3.5,18.92.88.88.76,1.4,2.56,2.33,2.86.71.23,9.55-.81,12.07-.57,11.59,1.11,12.58,7.75,13.9,17.87ZM123.27,25.45c-.97-4.15,0-13.11-4.05-15.52-3.24-1.93-8.63-2-12.33-1.77-1.85.12-7.03,1.58-8.24,1.21-1.64-.5-1.28-6.31-7.8-6.36-6.51-.04-15.96,5.12-22.15,7.06-1.08-12.52-19-.86-24.06,3.22-1.89,1.52-5.49,6.55-7.55,6.31-1.03-.12-1.98-1.06-3.27-1.01-4.37.17-6.62,6.19-8.24,9.65-.62,1.33-1.72,5.85-1.92,6.1-.45.52-4.16.37-5.59,2.43-.54.77-1.85,4.72-1.89,5.68-.13,3.76,3.37,9.66,2.99,12.05-1.32,8.29-11.33,9.13-13.86,17-2.44,7.58,2.77,17.3,9.46,21.05,7.86,4.42,15.24,3.51,23.77,2.23-2.35,4.36-7.04,5.4-8.07,10.88-1.1,5.81,4.35,10.79,9.85,11.46,3.33.4,9.77-2.65,10.64-2.39.72.21,2.23,3.85,4.46,5.22,6.47,3.96,15.26,2.6,19.6-3.77.62-.91,1.92-4.47,2.14-4.6.58-.35,2.6-.02,3.79-.39,3.22-.98,6.28-2.45,7.98-5.48,2.86,4.89,2.01,7.37,8.32,9,6.8,1.76,12.98-.46,16.93-6.23,1.66-2.43,5.25-13.02,5.86-13.43.54-.36,5.36,1.28,7.65-1.94,1.89-2.67,1.06-8.87,1.39-9.21.23-.23,4.89-1.03,6.38-1.64,10.77-4.44,7.47-8.05,3.86-16.99,15.93-6.01,6.18-15.15-2.51-22.25-.72-2.42,5.77-7.19,1.52-12.38-2.04-2.49-11.64-5.62-15.02-5.2Z"/>
        <g>
          <g>
            <path class="cls-3" d="M25.05,51.16c-2.91-3.68-4.22-8.96-3.2-13.48l5.77,2.56c-.55-6.89,2.77-12.74,5.79-18.61,1.64-1.17,3.44,4.76,3.52,5.77,6.28-8.77,15.51-17.99,26.58-19.84,1.22,3.04.55,6.38.71,9.57l9.83-5.89c2.75-1.3,16.55-6.1,18.45-4.74,1.9,1.35-1.05,8.35-.68,8.71,4.84-2.18,20.3-5.83,24.58-3.22,1.91,1.17,1.12,14.65.46,17.34,6.61-1.66,12.06-.53,17.92,2.62.54.76-1.81,5.23-2.4,6.17-.75,1.2-3.89,3.87-3.33,4.68,3.47.02,14.08,10.12,14.14,12.51-3.38,2.25-6.62,5.22-10.93,5.48-.88,1.02,6.16,10.28,5.5,12.85-4.28,3-9.47,3.56-14.47,4.49l.63,10.25c-.52.51-7.09-.96-8.35-1.29-3.33-.85-6.96-2.26-10.06-3.74-2.06-.98-4.84-3.58-6.94-3.97-1.36-.26-.71-.2-.67.66.08,1.51.98,4.44.06,5.8-1.67,2.46-11.6-3.89-13.4-5.28-1.63-1.26-5.07-5.46-6.53-5.69-1.23-.19-3.15,5.28-4.59,5.74-4.44,1.35-16.02-15.43-15.65-19.48.05-.52,5.87-2.05,6.42-7.82.93-9.87-12.57-9.48-14.1-.89-5.28-5.66-13.21-8.51-20.54-4.82-.9.45-4.05,2.88-4.49,3.54ZM81.52,18.43c-4.98,1.62-16.35,11.25-16.67,16.41-.19,3.07,1.95,3.96,4.66,3.35s7.07-8.11,8.5-10.76c.73-1.35,4.39-8.04,3.51-9ZM103.99,18.43c-3.12-1.08-15.93,4.63-13.2,8.39,2.09,2.87,9.28-3.5,10.97-5.16.49-.48,2.92-2.63,2.23-3.22ZM53.92,24.2c-3.13-2.13-9.61,12.82-4.68,14.05,3.73.93,6.29-11.43,4.68-14.05ZM101.26,32.66c-2.23.24-10.16,4.64-12.69,5.97-4.95,2.6-20.98,10.27-16.71,17.38,3.03,5.05,13.43-4.37,16.39-6.8,2.31-1.9,15.51-13.67,15.1-15.69-.16-.81-1.28-.95-2.09-.86ZM118.75,45.38c-2.51.3-15.07,2.63-13.19,6.41,2.3,4.65,15.14-4.46,13.19-6.41ZM108.48,62.71c-.89-1.04-15.05-1.34-16.38,1.26-2.91,5.71,5.84,4.03,8.57,3.44,1.2-.26,9.84-2.32,7.8-4.71ZM121.96,71.06c-.41-.43-11.13-2.25-9.56,2.16.63,1.77,7.59,1.37,8.91.08.57-.56,1.02-1.85.65-2.24Z"/>
            <path class="cls-2" d="M101.26,32.66c.81-.09,1.92.05,2.09.86.41,2.02-12.79,13.8-15.1,15.69-2.96,2.43-13.35,11.85-16.39,6.8-4.27-7.11,11.76-14.78,16.71-17.38,2.53-1.33,10.46-5.73,12.69-5.97Z"/>
            <path class="cls-2" d="M81.52,18.43c.88.96-2.78,7.64-3.51,9-1.43,2.65-5.73,10.14-8.5,10.76s-4.86-.28-4.66-3.35c.32-5.16,11.69-14.79,16.67-16.41Z"/>
            <path class="cls-2" d="M108.48,62.71c2.03,2.38-6.6,4.45-7.8,4.71-2.74.59-11.48,2.27-8.57-3.44,1.32-2.6,15.49-2.3,16.38-1.26Z"/>
            <path class="cls-2" d="M53.92,24.2c1.61,2.62-.95,14.98-4.68,14.05-4.93-1.23,1.55-16.18,4.68-14.05Z"/>
            <path class="cls-2" d="M103.99,18.43c.7.59-1.73,2.74-2.23,3.22-1.7,1.66-8.89,8.04-10.97,5.16-2.73-3.76,10.09-9.47,13.2-8.39Z"/>
            <path class="cls-2" d="M118.75,45.38c1.95,1.95-10.89,11.06-13.19,6.41-1.87-3.78,10.68-6.11,13.19-6.41Z"/>
            <path class="cls-2" d="M121.96,71.06c.37.39-.07,1.68-.65,2.24-1.31,1.29-8.28,1.69-8.91-.08-1.57-4.41,9.15-2.59,9.56-2.16Z"/>
          </g>
          <g>
            <path class="cls-4" d="M25.05,51.16c.44-.65,3.59-3.08,4.49-3.54,7.32-3.7,15.25-.84,20.54,4.82,1.53-8.6,15.03-8.99,14.1.89-.55,5.78-6.37,7.3-6.42,7.82-.37,4.05,11.21,20.83,15.65,19.48,1.44-.46,3.36-5.93,4.59-5.74,1.46.22,4.89,4.43,6.53,5.69,1.81,1.39,11.73,7.74,13.4,5.28.92-1.36.02-4.29-.06-5.8-.04-.86-.69-.92.67-.66,2.1.4,4.88,2.99,6.94,3.97,3.11,1.47,6.73,2.88,10.06,3.74-.31,5.82-3.88,17.68-9.45,20.39-2.25,1.09-9.16,1.16-10.5-.92-3.39-5.26,5.49-9.27,1.92-14.93-.59-.4-10.12,2.07-10.71,2.66-1.15,1.15-.58,5.9-3.02,8.22-3.2,3.05-7.4,1.05-9.33,2.22-1.12.68-2.72,6.38-5.1,8.37-5.42,4.53-16.45,1.42-12.48-5.42,1.17-2.01,3.61-2.62,4.08-5.54.51-3.16-.15-6.67-2.86-8.62l-8.34,13.47c-3.24,3.08-11.2,4.9-13.83.36-2.77-4.78,4.93-7.33,6.77-11.91,3.09-7.7.54-8.15-6.41-7.69-7.94.53-14.49,3.21-21.51-3.22,1.4.39,2.53-1.27,3.53-1.28s2.06,1.48,3.33,1.79c3.83.91,9.63-.06,9.17-5-1.73-.43-1.19,1.07-2.3,1.84-2.33,1.61-6.17,2-8.57.37-3.43-2.35.22-2.92,1.37-4.96,4.02-7.1-7.28-6.93-8.19-5.63-2.28,3.26,3.44,7.38,2.93,9.99l-2.57.97c-1.49-2.01-2.99-3.66-3.56-6.38-1.92-9.14,5.76-9.17,10.25-14.86,2.57-3.26,3.14-7.64,4.87-10.21ZM44.85,70.32c2.92-13.42-13.71-12.76-7.63,1.09,2.66-.41,4.76-1.41,7.63-1.09Z"/>
            <path class="cls-3" d="M13.5,82.6l2.57-.97c.5-2.61-5.22-6.73-2.93-9.99.91-1.3,12.21-1.48,8.19,5.63-1.16,2.04-4.81,2.62-1.37,4.96,2.39,1.63,6.23,1.24,8.57-.37,1.11-.77.57-2.27,2.3-1.84.45,4.94-5.35,5.91-9.17,5-1.28-.31-2.32-1.8-3.33-1.79s-2.14,1.67-3.53,1.28c-1.18-1.08-.86-1.35-1.28-1.93Z"/>
            <path class="cls-1" d="M44.85,70.32c-2.87-.32-4.97.68-7.63,1.09-6.08-13.84,10.55-14.51,7.63-1.09Z"/>
          </g>
        </g>
      </g>
      <path class="cls-1" d="M123.27,25.45c3.38-.42,12.98,2.71,15.02,5.2,4.25,5.19-2.24,9.96-1.52,12.38,8.7,7.11,18.44,16.24,2.51,22.25,3.61,8.94,6.91,12.54-3.86,16.99-1.49.62-6.15,1.41-6.38,1.64-.33.34.51,6.54-1.39,9.21-2.29,3.22-7.11,1.57-7.65,1.94-.61.41-4.2,11.01-5.86,13.43-3.94,5.77-10.13,7.99-16.93,6.23-6.31-1.63-5.45-4.11-8.32-9-1.7,3.03-4.77,4.51-7.98,5.48-1.19.36-3.21.03-3.79.39-.22.13-1.52,3.69-2.14,4.6-4.34,6.37-13.13,7.73-19.6,3.77-2.23-1.37-3.74-5.01-4.46-5.22-.86-.25-7.31,2.8-10.64,2.39-5.5-.67-10.95-5.65-9.85-11.46,1.03-5.47,5.72-6.52,8.07-10.88-8.53,1.27-15.91,2.18-23.77-2.23-6.69-3.76-11.9-13.47-9.46-21.05,2.53-7.88,12.54-8.72,13.86-17,.38-2.39-3.12-8.28-2.99-12.05.03-.96,1.35-4.91,1.89-5.68,1.43-2.06,5.15-1.91,5.59-2.43.21-.24,1.31-4.77,1.92-6.1,1.61-3.47,3.87-9.48,8.24-9.65,1.3-.05,2.24.89,3.27,1.01,2.06.24,5.66-4.79,7.55-6.31,5.06-4.09,22.98-15.74,24.06-3.22,6.18-1.94,15.64-7.11,22.15-7.06,6.53.05,6.16,5.86,7.8,6.36,1.21.37,6.38-1.1,8.24-1.21,3.7-.23,9.09-.16,12.33,1.77,4.05,2.41,3.08,11.37,4.05,15.52ZM115.54,87.1c1.26.32,7.83,1.8,8.35,1.29l-.63-10.25c5-.93,10.19-1.49,14.47-4.49.66-2.57-6.38-11.83-5.5-12.85,4.31-.26,7.56-3.23,10.93-5.48-.06-2.39-10.67-12.49-14.14-12.51-.55-.8,2.58-3.48,3.33-4.68.59-.94,2.94-5.41,2.4-6.17-5.86-3.15-11.31-4.28-17.92-2.62.67-2.69,1.45-16.17-.46-17.34-4.27-2.61-19.73,1.04-24.58,3.22-.37-.35,2.58-7.35.68-8.71-1.9-1.36-15.7,3.44-18.45,4.74l-9.83,5.89c-.16-3.19.51-6.53-.71-9.57-11.07,1.84-20.29,11.07-26.58,19.84-.07-1.01-1.88-6.94-3.52-5.77-3.02,5.87-6.34,11.72-5.79,18.61l-5.77-2.56c-1.02,4.52.29,9.8,3.2,13.48-1.73,2.57-2.3,6.95-4.87,10.21-4.49,5.69-12.17,5.72-10.25,14.86.57,2.71,2.07,4.37,3.56,6.38.43.57.1.84,1.28,1.93,7.02,6.42,13.56,3.74,21.51,3.22,6.95-.46,9.5-.01,6.41,7.69-1.84,4.58-9.54,7.13-6.77,11.91,2.63,4.54,10.59,2.72,13.83-.36l8.34-13.47c2.71,1.95,3.37,5.47,2.86,8.62-.47,2.93-2.91,3.53-4.08,5.54-3.97,6.84,7.06,9.96,12.48,5.42,2.38-1.99,3.99-7.69,5.1-8.37,1.93-1.18,6.13.83,9.33-2.22,2.43-2.32,1.86-7.06,3.02-8.22.58-.58,10.12-3.06,10.71-2.66,3.57,5.65-5.31,9.66-1.92,14.93,1.34,2.08,8.25,2.01,10.5.92,5.57-2.71,9.14-14.57,9.45-20.39Z"/>
    </g>
  </g>
</svg>