<?xml version="1.0" encoding="UTF-8"?>
<svg id="Layer_2" data-name="Layer 2" xmlns="http://www.w3.org/2000/svg" viewBox="0 0 153.27 134.42">
  <defs>
    <style>
      .cls-1 {
        fill: #060707;
      }

      .cls-2 {
        fill: #5d8299;
      }

      .cls-3 {
        fill: #8db6be;
      }

      .cls-4 {
        fill: #f5f5f5;
      }
    </style>
  </defs>
  <g id="Rhino">
    <g>
      <path class="cls-4" d="M81.55,18.99c3.94-.59,9.63,3.55,12.57,3.85,2.75.27,8.26-2.19,11.57-2.48,12.79-1.11,21.57,7.2,30.42,14.99,10.76,9.47,23.5,22.43,13.59,38-2.57,4.04-6.67,4.18-7.15,4.72-.31.35,1.33,7.51,1.3,9.28-.05,3.58-1.69,6.94-1.97,10.26-.28,3.45.81,6.31.63,9.61-.81,15.21-20.92,21.6-32.08,12.53-1.85,19.08-35.19,19.59-39.16,1.28-9.73,10.75-34.77,7.03-35.05-9.41-.09-5.29,3.73-10.58,4.26-15.3.79-7.13-2.57-14.92-1.92-22.15-7.85.68-12.76,2.68-20.24-1.26C7.38,67.16-1.12,60.8.12,46.98c.4-4.45,1.3-10.84,1.92-15.4C3.47,21.09,9.72.25,24.25,6.01c5.28,2.1,4.35,7.79,9.8,7.2C33.68.2,45.32-3.41,55.19,3.31c.97.66,2.93,3.26,3.56,3.31s5.96-3.16,7.75-3.64c12.12-3.26,17.35,4.86,15.04,16ZM57.17,13.21c-.14-.13-.47-2.5-1.16-3.67-3.02-5.15-14.16-9.81-16.85-1.82-1.42,4.2.59,7.96-.06,10.16-.22.76-2.37,2.38-2.8,2.34-.48-.04-1.26-1.99-1.9-2.54-2.32-2.02-5.6-1.6-8.03.01.4-6.02-2.48-10.38-9.01-8.68-5.77,1.5-10.32,16.49-10.81,21.91-.23,2.58.49,4.96.35,6.9-.14,2.08-1.9,5.51-2.19,7.95-.76,6.29,2.22,13.01,7.32,16.74,6,2.12,9.77,7.47,16.59,7.21,8.09-.31,13.44-5.85,15,6.14.73,5.66,2.27,16.92,1.07,22.09-.79,3.4-3.32,7.13-3.58,10.57-1.14,15.38,24.39,17.31,29.1,3.4.47-1.39,1.13-4.56,1.13-5.98,0-1.97-2.79-10.79,2.57-6.46,2.09,1.69,3.21,7,3.11,9.58-.2,5.76-4,7.59.78,14.12,1.69,2.31,7.86,4.97,10.65,5.39,7.01,1.07,17.28-3.2,18.1-11.15.38-3.7-2.47-7.24,1.64-9.86,1.66,1.06,1.61,3.06,2.59,4.46,5.48,7.73,19.15,8.13,24.58.24,4.29-6.24,1.5-9.96,2.04-16.57.26-3.15,1.9-6.64,1.97-9.64.11-5.08-2.83-11.01-4.54-15.71.74-.62,4.57,4.28,9.22,1.19,4.79-3.18,4.64-12.73,3-17.59-2.82-8.33-24.05-26.52-32.4-29.21-8.22-2.64-10.35.27-17.52,1.15-6.78.83-8.96-2.72-14.77-3.52-2.4-.33-4.81-.12-7.21-.17-.69-.66,6.43-12.26-.63-15.73-4.44-2.18-9.42.24-13.05,3.01-1.7,1.29-1.9,2.23-2.95,3.33-.45.47-1.04.69-1.33.41Z"/>
      <path class="cls-1" d="M57.17,13.21c.29.28.88.06,1.33-.41,1.04-1.1,1.25-2.03,2.95-3.33,3.64-2.77,8.61-5.19,13.05-3.01,7.06,3.47-.06,15.07.63,15.73,2.4.05,4.81-.16,7.21.17,5.8.8,7.99,4.34,14.77,3.52,7.18-.88,9.3-3.79,17.52-1.15,8.36,2.69,29.59,20.88,32.4,29.21,1.64,4.86,1.8,14.41-3,17.59-4.66,3.09-8.48-1.81-9.22-1.19,1.71,4.7,4.65,10.63,4.54,15.71-.06,3-1.71,6.49-1.97,9.64-.55,6.61,2.25,10.33-2.04,16.57-5.43,7.89-19.1,7.49-24.58-.24-.99-1.39-.93-3.4-2.59-4.46-4.12,2.62-1.26,6.16-1.64,9.86-.82,7.95-11.09,12.22-18.1,11.15-2.79-.43-8.95-3.08-10.65-5.39-4.78-6.53-.99-8.37-.78-14.12.09-2.58-1.02-7.89-3.11-9.58-5.36-4.33-2.57,4.5-2.57,6.46,0,1.43-.66,4.59-1.13,5.98-4.71,13.91-30.25,11.98-29.1-3.4.26-3.44,2.79-7.18,3.58-10.57,1.2-5.17-.34-16.43-1.07-22.09-1.55-11.99-6.9-6.45-15-6.14-6.82.26-10.58-5.09-16.59-7.21-5.1-3.73-8.08-10.44-7.32-16.74.29-2.44,2.05-5.87,2.19-7.95.13-1.94-.59-4.32-.35-6.9.49-5.43,5.04-20.41,10.81-21.91,6.53-1.7,9.41,2.66,9.01,8.68,2.43-1.61,5.71-2.03,8.03-.01.64.56,1.42,2.5,1.9,2.54.44.04,2.58-1.58,2.8-2.34.65-2.21-1.35-5.96.06-10.16,2.69-7.99,13.83-3.33,16.85,1.82.69,1.17,1.02,3.53,1.16,3.67ZM104.65,83.81c1.08-.87,2.05-3.66,4.04-3.14.49.13,7.45,6.05,7.67,6.51,3.65,7.53-3.85,14.81-1.75,19.73,2.42,5.68,16.1,5.2,17.98-1.9.74-2.79-.66-8.23-.34-11.88.29-3.27,2.06-7.47,1.89-10.83-.23-4.58-4-11.17-4.93-16.31-1.3-7.23-.73-14.74-2.1-21.96,6.94,2.49,6.17,9.22,8.2,14.58.81,2.14,4.28,8.82,6.5,5.57,2.98-4.37.5-12.13-2.51-15.98-2.42-3.1-19.22-17.28-22.67-19.04-10.89-5.55-14.88,1.27-24.52.12-3.34-.4-6.41-3.18-9.76-3.71-2.11-.34-17.13.6-16.19-3.64.1-.44,4.05-3.99,4.95-5.99.49-1.09,2.01-6.67,1.45-7.21-6.32-.1-11.2,5.08-12.57,10.92-1.38-.86-5.1-.87-6.06-1.6-1.1-.84.06-9.04-6.39-10.94-8.12-2.4-1.06,10.32-2.02,11.81-4.69,1.14-7.2,5.8-11.47,7.14-.07-.2-.75-.65-.97-1.25-.61-1.69-1.29-6.52-3.47-5.12-1.16.75-1.51,7.93-1.33,9.58-1.83,2.81-2.07,4.1-5.78,2.57-.54-2.48-1.66-4.83-1.92-7.39-.44-4.3.72-8.46.33-12.53-1.46-2.33-4.33,2.42-4.94,3.45-3,5.12-5.65,15.96-3.75,21.61-3.1,5.35-3.91,13.37.93,18,1.87,1.79,3.4,1.63,4.84,2.54.91.58,1.75.82,2.57,1.28.43.24,1.49,1.86,2.87,2.58,4.98,2.62,5.62.45,9.69.03,13.11-1.35,14.14,3.6,15.67,14.71.8,5.81,2.19,14.39,1,19.93-.96,4.5-4.51,8.83-3.43,13.63,1.42,6.28,17.77,6.05,19.08-1.18l.67-17.62c5.94,1.25,9.44-.68,13.37,5.56,1.41,2.23,2.68,6.9,2.72,9.53.07,4.42-3.27,8.23-.4,11.9,4.54,5.8,19.64,4.59,19.66-3.56,0-1.64-1.02-6.51-1.34-8.67,6.21-2,2.75-8.96,3.19-14.46.2-2.59,1.31-4.79,1.31-7.36ZM108.5,91.19c-.45,1.57,0,7.42,0,9.63,0,.16.63,3.07,1.28,2.88.5-3.13,2.61-6.59,2.36-9.86-.18-2.4-2.93-5.13-3.64-2.65Z"/>
      <path class="cls-2" d="M48.82,76.11l5.15,6.72c3.43,3.84,6.98,6.94,12.18,8.04l-.67,17.62c-1.32,7.23-17.66,7.46-19.08,1.18-1.08-4.8,2.46-9.13,3.43-13.63,1.19-5.55-.2-14.12-1-19.93Z"/>
      <path class="cls-4" d="M22.5,31.82c.14.66.72,1.24.69,2.25-.11,3.81-9.02,8.63-10.95,2.89-1.91-5.65.74-16.48,3.75-21.61.6-1.03,3.47-5.78,4.94-3.45.38,4.07-.77,8.23-.33,12.53.26,2.56,1.38,4.91,1.92,7.39Z"/>
      <path class="cls-4" d="M28.28,29.26c-.17-1.65.18-8.84,1.33-9.58,2.18-1.4,2.87,3.43,3.47,5.12.22.61.9,1.05.97,1.25,1.76,5.12-5.24,8.35-5.78,3.21Z"/>
      <path class="cls-4" d="M108.5,91.19c.71-2.48,3.46.25,3.64,2.65.25,3.27-1.86,6.73-2.36,9.86-.65.19-1.28-2.73-1.28-2.88,0-2.21-.45-8.05,0-9.63Z"/>
      <g>
        <path class="cls-3" d="M34.06,26.05c4.28-1.34,6.78-6,11.47-7.14.96-1.49-6.1-14.21,2.02-11.81,6.45,1.9,5.28,10.1,6.39,10.94.96.73,4.68.74,6.06,1.6,1.37-5.85,6.25-11.02,12.57-10.92.56.55-.96,6.12-1.45,7.21-.9,2-4.85,5.55-4.95,5.99-.95,4.24,14.08,3.3,16.19,3.64,3.36.53,6.42,3.31,9.76,3.71,9.63,1.15,13.63-5.68,24.52-.12,3.45,1.76,20.25,15.95,22.67,19.04,3.01,3.85,5.48,11.61,2.51,15.98-2.22,3.25-5.69-3.43-6.5-5.57-2.03-5.36-1.26-12.09-8.2-14.58,1.37,7.22.8,14.74,2.1,21.96.92,5.13,4.7,11.73,4.93,16.31.17,3.36-1.59,7.56-1.89,10.83-.33,3.65,1.08,9.09.34,11.88-1.88,7.1-15.56,7.58-17.98,1.9-2.1-4.92,5.4-12.2,1.75-19.73-.22-.45-7.19-6.38-7.67-6.51-2-.52-2.97,2.27-4.04,3.14-1.38,1.12-2.76,1.45-4.19,3.2-4.55,5.58-1.21,12.46-.31,18.63.32,2.16,1.34,7.03,1.34,8.67-.01,8.15-15.12,9.36-19.66,3.56-2.87-3.67.46-7.48.4-11.9-.04-2.63-1.31-7.3-2.72-9.53-3.94-6.24-7.44-4.31-13.37-5.56-5.2-1.09-8.75-4.19-12.18-8.04l-5.15-6.72c-1.53-11.11-2.56-16.06-15.67-14.71-4.07.42-4.71,2.58-9.69-.03-1.38-.73-2.45-2.34-2.87-2.58,4.31-1.21,8.43-5.1,13.1-4.47,1.88.26,4.4,2.43,6.38,1.85,2.59-.77.01-2.5-1.26-3.09-7.98-3.67-13.52,2.26-20.79,4.43-1.44-.91-2.97-.75-4.84-2.54-4.84-4.63-4.04-12.65-.93-18,1.94,5.75,10.84.92,10.95-2.89.03-1.01-.54-1.58-.69-2.25,3.71,1.53,3.95.24,5.78-2.57.53,5.14,7.53,1.92,5.78-3.21ZM41.15,36.99c-1.97,2.3,4.42,6.6,7.7,2.88,1.53-1.73,1.87-6.18-1-6.15-.75,0-2.8,1.92-3.92,2.53-.83.45-2.69.63-2.78.74ZM26.18,41.53c-3.35.48-4.66,5.58-.01,3.91,4.14-1.48,2.64-4.29.01-3.91ZM53.99,57.46c.16.17,3.9.64,4.61.56,5.4-.6,12.09-8.91,7.57-13.06-1.77-1.62-2.04,3.43-2.54,4.55-2.28,5.07-8.95,4.56-9.58,5.5-.22.32-.18,2.3-.05,2.44ZM89.9,78.68c-5.54-.6-12.88,1.19-14.76,7.05,3.01-.26,4.65-3.43,7.68-4.19,2.58-.65,7.75.73,7.08-2.86Z"/>
        <path class="cls-2" d="M100.16,105.63c-.9-6.17-4.24-13.05.31-18.63,1.43-1.75,2.8-2.08,4.19-3.2,0,2.57-1.1,4.77-1.31,7.36-.43,5.51,3.02,12.47-3.19,14.46Z"/>
        <path class="cls-2" d="M20.58,58.78c-.82-.46-1.66-.71-2.57-1.28,7.27-2.17,12.81-8.1,20.79-4.43,1.28.59,3.85,2.32,1.26,3.09-1.98.59-4.5-1.59-6.38-1.85-4.68-.64-8.79,3.25-13.1,4.47Z"/>
        <path class="cls-2" d="M53.99,57.46c-.13-.14-.16-2.12.05-2.44.63-.94,7.3-.43,9.58-5.5.51-1.13.78-6.18,2.54-4.55,4.52,4.15-2.17,12.46-7.57,13.06-.71.08-4.45-.39-4.61-.56Z"/>
        <path class="cls-1" d="M41.15,36.99c.09-.11,1.96-.29,2.78-.74,1.12-.6,3.17-2.52,3.92-2.53,2.87-.03,2.53,4.42,1,6.15-3.28,3.72-9.67-.59-7.7-2.88Z"/>
        <path class="cls-2" d="M89.9,78.68c.67,3.59-4.51,2.22-7.08,2.86-3.03.76-4.67,3.92-7.68,4.19,1.88-5.87,9.23-7.66,14.76-7.05Z"/>
        <path class="cls-2" d="M26.18,41.53c2.63-.38,4.13,2.43-.01,3.91-4.65,1.66-3.34-3.43.01-3.91Z"/>
      </g>
    </g>
  </g>
</svg>