<?xml version="1.0" encoding="UTF-8"?>
<svg id="Layer_2" data-name="Layer 2" xmlns="http://www.w3.org/2000/svg" viewBox="0 0 732.6 273.89">
  <defs>
    <style>
      .cls-1 {
        fill: #a2755a;
      }

      .cls-2 {
        stroke: #000;
        stroke-miterlimit: 10;
        stroke-width: 3px;
      }

      .cls-3, .cls-4 {
        fill: #57291a;
      }

      .cls-5 {
        fill: #f7cc8c;
      }

      .cls-6 {
        fill: #d99f70;
      }

      .cls-4 {
        font-family: LapsusPro-Bold, 'Lapsus Pro';
        font-size: 145px;
        font-weight: 700;
      }
    </style>
  </defs>
  <g id="Arena">
    <g>
      <path class="cls-2" d="M729.92,6.83c0-2.94-2.29-5.33-5.11-5.33H10.95c-2.82,0-5.11,2.39-5.11,5.33v8.54l8,5.82-8,4.81v210.69l4.52,5.22h-4.52v15.63c0,1.9.96,3.56,2.39,4.5l-.11-.06,10.23,10.42h701.91l7.71-10.7c.69-.57,1.24-1.32,1.57-2.19v-.02s0,0,0,0c.23-.61.37-1.27.37-1.96v-105.29h-6.26l6.26-12.1V6.83ZM9.03,262.47s.06.02.09.03h-.06s-.03-.03-.03-.03ZM726.73,262.47h-.04s.03,0,.04,0h0Z"/>
      <path class="cls-6" d="M721.42,15.69c0-2.76-2.24-5-5-5H17.65c-2.76,0-5,2.24-5,5v8.01l7.83,5.46-7.83,4.51v197.58l4.43,4.89h-4.43v14.66c0,2.76,2.24,5,5,5h698.77c2.76,0,5-2.24,5-5v-98.74h-6.13l6.13-11.35V15.69Z"/>
      <rect class="cls-5" x="32.06" y="25.76" width="669.96" height="213.45" rx="8" ry="8"/>
      <polygon class="cls-1" points="12.65 231.25 30.87 235.46 17.08 236.14 12.65 231.25"/>
      <path class="cls-1" d="M721.42,140.71s-12.94,6.07-12.6,8.45c.34,2.38,6.47,2.89,6.47,2.89l6.13-11.35Z"/>
      <polygon class="cls-1" points="14.89 254.96 24.91 264.73 711.97 264.73 721.07 252.63 718.29 255.43 716.42 255.8 17.65 255.8 15.81 255.44 14.89 254.96"/>
      <text class="cls-4" transform="translate(117.66 178.79)"><tspan x="0" y="0">Arena</tspan></text>
      <g>
        <ellipse class="cls-3" cx="500.18" cy="120.28" rx="14.13" ry="19.91" transform="translate(6.87 266.21) rotate(-30)"/>
        <ellipse class="cls-3" cx="604.01" cy="120.27" rx="22.27" ry="16.14" transform="translate(197.85 583.23) rotate(-60)"/>
        <path class="cls-3" d="M568.53,109.17c7.59,1.54,15.37-5.24,17.37-15.13,2-9.89-2.53-19.16-10.12-20.7-7.59-1.54-15.37,5.24-17.37,15.13-2,9.89,2.53,19.16,10.12,20.7Z"/>
        <ellipse class="cls-3" cx="532.34" cy="91.61" rx="15" ry="19.47" transform="translate(-7.59 107.42) rotate(-11.44)"/>
        <path class="cls-3" d="M580.46,149.34c-1.09-.89-1.96-2.04-2.55-3.32-11.16-24.17-15.8-29.58-25.74-29.57-8.14.01-15.81,7.34-26.27,29.42-.56,1.19-4.15,4.3-5.06,5.24-13.05,13.65-24.73,30.61-13.83,39.8,5.33,4.49,17.3,9.72,39.19-.26,2.52-1.15,5.36-1.39,8.05-.73,28.73,6.97,39.6,9.58,47.06-2.75,2.64-4.76,4.03-17.5-20.84-37.84Z"/>
      </g>
    </g>
  </g>
</svg>