<?xml version="1.0" encoding="UTF-8"?>
<svg id="Layer_2" data-name="Layer 2" xmlns="http://www.w3.org/2000/svg" viewBox="0 0 309.2 85.35">
  <defs>
    <style>
      .cls-1 {
        fill: #dc8d3a;
      }

      .cls-2 {
        fill: #fff;
      }

      .cls-3 {
        fill: #efab60;
      }

      .cls-4 {
        fill: #db8d3c;
      }
    </style>
  </defs>
  <g id="dog_bone_bar" data-name="dog bone bar">
    <g>
      <rect x="41.73" y="4.33" width="267.47" height="71.94" rx="10" ry="10"/>
      <rect class="cls-2" x="46.44" y="9.2" width="258.04" height="57.87" rx="6" ry="6"/>
      <g>
        <path d="M67.52,35.48c-2.82,0-5.44.85-7.7,2.31l-14.08-14.32c.87-2.09,1.36-4.41,1.36-6.85C47.09,7.44,40.28,0,31.89,0s-15.21,7.44-15.21,16.62c0,.03,0,.05,0,.08-.49-.05-.98-.08-1.48-.08C6.81,16.62,0,24.07,0,33.25s6.81,16.62,15.21,16.62c2.63,0,5.11-.73,7.26-2.02l14.31,14.54c-.74,1.95-1.15,4.09-1.15,6.33,0,9.18,6.81,16.62,15.21,16.62s15.21-7.44,15.21-16.62c0-.03,0-.05,0-.08.49.05.98.08,1.48.08,8.4,0,15.21-7.44,15.21-16.62s-6.81-16.62-15.21-16.62Z"/>
        <path class="cls-1" d="M64.75,43.87h0c-2.82,0-5.39,1.13-7.29,2.95l-20.77-20.77c1.94-1.92,3.15-4.57,3.15-7.5,0-5.8-4.75-10.55-10.55-10.55h0c-5.8,0-10.55,4.75-10.55,10.55,0,2.15.65,4.16,1.77,5.83-1.62-1.02-3.53-1.61-5.57-1.61h0c-5.8,0-10.55,4.75-10.55,10.55s4.75,10.55,10.55,10.55h0c2.78,0,5.32-1.1,7.21-2.88l20.77,20.77c-1.9,1.91-3.07,4.54-3.07,7.42,0,5.8,4.75,10.55,10.55,10.55h0c5.8,0,10.55-4.75,10.55-10.55,0-2.15-.65-4.16-1.77-5.83,1.62,1.02,3.53,1.61,5.57,1.61h0c5.8,0,10.55-4.75,10.55-10.55s-4.75-10.55-10.55-10.55ZM55.84,60.04c.05.07.09.15.13.22-.07-.04-.14-.09-.22-.13l.08-.08Z"/>
        <path class="cls-3" d="M66.75,41.87h0c-2.82,0-5.39,1.13-7.29,2.95l-20.77-20.77c1.94-1.92,3.15-4.57,3.15-7.5,0-5.8-4.75-10.55-10.55-10.55h0c-5.8,0-10.55,4.75-10.55,10.55,0,2.15.65,4.16,1.77,5.83-1.62-1.02-3.53-1.61-5.57-1.61h0c-5.8,0-10.55,4.75-10.55,10.55s4.75,10.55,10.55,10.55h0c2.78,0,5.32-1.1,7.21-2.88l20.77,20.77c-1.9,1.91-3.07,4.54-3.07,7.42,0,5.8,4.75,10.55,10.55,10.55h0c5.8,0,10.55-4.75,10.55-10.55,0-2.15-.65-4.16-1.77-5.83,1.62,1.02,3.53,1.61,5.57,1.61h0c5.8,0,10.55-4.75,10.55-10.55s-4.75-10.55-10.55-10.55ZM57.84,58.04c.05.07.09.15.13.22-.07-.04-.14-.09-.22-.13l.08-.08Z"/>
        <circle class="cls-4" cx="41.87" cy="42.46" r="2.3"/>
      </g>
      <circle class="cls-4" cx="32.34" cy="33.61" r="2.3"/>
      <circle class="cls-4" cx="51.4" cy="51.31" r="2.3"/>
    </g>
  </g>
</svg>