<?xml version="1.0" encoding="UTF-8"?>
<svg id="Layer_2" data-name="Layer 2" xmlns="http://www.w3.org/2000/svg" viewBox="0 0 724.09 144.51">
  <defs>
    <style>
      .cls-1 {
        fill: #a2755a;
      }

      .cls-2 {
        fill: #57291a;
        font-family: LapsusPro-Bold, 'Lapsus Pro';
        font-size: 88px;
        font-weight: 700;
      }

      .cls-3 {
        fill: #d99f70;
      }
    </style>
  </defs>
  <g id="With_friends" data-name="With friends">
    <g>
      <path d="M724.09,9.13c0-5.04-3.66-9.13-8.17-9.13H8.17C3.66,0,0,4.09,0,9.13v22.43l6.26,3.4-6.26,3.78v84.99c0,2.44.86,4.64,2.25,6.28h0s0,0,0,0c.34.4.71.76,1.11,1.08l13.68,13.42h689.65c2.99-2.59,6.26-5.75,9.56-9.53,1.94-2.22,3.63-4.39,5.16-6.47,1.4-1.43,2.06-2.56,2.38-3.38h0s0,0,0,0c.28-.73.29-1.2.29-1.4v-19.15l-8-1.25,8-7.27V9.13ZM715.91,132.86h0s0,0,0,0t0,0Z"/>
      <path class="cls-3" d="M716.43,18.21c0-4.42-3.58-8-8-8H15.66c-4.42,0-8,3.58-8,8v19.66l6.13,2.98-6.13,3.31v74.48c0,4.42,3.58,8,8,8h692.77c7.95-4.63,8-7.47,8-8v-16.78l-7.83-1.09,7.83-6.37V18.21Z"/>
      <polygon class="cls-1" points="9.86 124.14 24.34 136.85 699.4 136.85 715.91 120.32 708.43 126.64 15.66 126.64 9.86 124.14"/>
      <polygon class="cls-1" points="7.66 37.87 29.11 41.19 7.66 44.16 13.79 40.85 7.66 37.87"/>
      <polygon class="cls-1" points="716.43 94.39 701.11 98.38 708.6 100.77 716.43 94.39"/>
      <text class="cls-2" transform="translate(151.58 94.5)"><tspan x="0" y="0">With friends</tspan></text>
    </g>
  </g>
</svg>