<?xml version="1.0" encoding="UTF-8"?>
<svg id="Layer_2" data-name="Layer 2" xmlns="http://www.w3.org/2000/svg" viewBox="0 0 152.63 147.94">
  <defs>
    <style>
      .cls-1 {
        fill: #010101;
      }

      .cls-2 {
        fill: #deedf5;
      }

      .cls-3 {
        fill: #f7f7f7;
      }

      .cls-4 {
        fill: #6aa5ac;
      }
    </style>
  </defs>
  <g id="Hammershark">
    <g>
      <path class="cls-3" d="M131.59,41.05c10.45,2.03,24.65,7.01,20.21,20.54-1.98,6.03-6.71,7.5-11.92,10.03,1.59,4.35,1.71,9.87,3.22,14.08,1.34,3.72,4.72,8.29,6.36,12.25,3.01,7.28,6.22,18.88-3.76,22.37-1.98.69-7.82.82-8.24,1.07s-3.58,7.06-4.97,8.83c-11.97,15.21-25.19,19.01-44.22,17.37-4.4-.38-12.49-3.77-15.41-3.76-2.07,0-6.83,2.12-9.7,2.41-11.09,1.11-32.73-1.79-27.51-17.89,2.56-7.9,6.92-5.63,11.84-8.69,5.08-3.17,6.86-7.7,9.54-12.28,1.93-3.3,4.57-5.65,5.23-9.53-8.95,2.78-29.76,15.66-37.21,5.15-8.42-11.88,6.61-21.3,13.47-28.89-1.93-2.23-4.55-4.17-6.39-6.44-1.1-1.36-4.1-6.71-4.54-7.01-1.79-1.21-10.06-1.39-13.43-2.61-6.64-2.4-8.99-7.67-11.1-13.93C-2.13,28.67-2.12,18.93,14.28,12.65,44.51,1.06,73.92-3.37,106.03,2.75c13.06,2.49,21.45,3.38,25.72,17.28,2.22,7.24,3.58,14.06-.17,21.02ZM122.6,41.69c8.42-6.01,7.69-11.64,4.95-20.67-1.19-3.92-2.12-7.25-5.64-9.77-10-7.16-46.15-9.07-58.6-7.98-11.22.98-42.35,9.36-52.4,14.35-9.62,4.79-5.98,16.5-3.21,24.41,4.47,12.8,10.77,11.35,23.02,12.6,1.25,3.21,3.1,6.51,5.25,9.19,1.49,1.86,9.45,8.41,9.59,9.06.27,1.24-4.63,4.05-5.76,5.07-4.88,4.37-17.35,14.63-10.29,21.22,3.33,3.11,6.38,2.06,10.15,1.1,12.61-3.23,25.15-11.09,37.05-16.27,7.37-.48,12.57,14.7,13.63,20.45.94,5.13,2.25,11.17-3.67,13.62,1.06-6.56-5-24.1-12.53-24.43-7.04-.31-6.49,4.49-8.77,8.59-1.41,2.53-3.64,4.54-4.94,7.26-.77,1.61-1.09,4.44-1.71,5.35-.33.49-8.44,7.43-8.95,7.74-3.33,2-10.77,2.02-10.42,8.55.48,9.11,17.16,10.11,23.81,9.34,3.19-.37,6.69-2.55,9.7-2.55,3.94,0,10.45,3.45,15.41,3.89,20.46,1.82,36.5-4.73,45.35-23.94.39-.85,1.03-3.53,1.18-3.65.49-.36,7.46,3.56,11.57-.94,3.84-4.21.14-11.67-1.84-16.18-1.52-3.47-4.36-7.27-5.55-10.49-2.15-5.8-2.55-13.83-4.83-19.88,10.36-.37,21.02-12.3,8.14-18.73-5.59-2.79-13.71-3.97-19.69-6.31Z"/>
      <path class="cls-1" d="M122.6,41.69c5.98,2.34,14.1,3.52,19.69,6.31,12.88,6.43,2.22,18.36-8.14,18.73,2.29,6.05,2.68,14.08,4.83,19.88,1.19,3.22,4.03,7.03,5.55,10.49,1.98,4.51,5.67,11.97,1.84,16.18-4.11,4.5-11.08.57-11.57.94-.15.11-.79,2.79-1.18,3.65-8.85,19.21-24.89,25.77-45.35,23.94-4.96-.44-11.47-3.89-15.41-3.89-3.01,0-6.5,2.18-9.7,2.55-6.65.78-23.33-.23-23.81-9.34-.35-6.53,7.09-6.54,10.42-8.55.51-.31,8.61-7.25,8.95-7.74.61-.91.94-3.75,1.71-5.35,1.3-2.72,3.53-4.73,4.94-7.26,2.28-4.1,1.72-8.91,8.77-8.59,7.53.33,13.59,17.87,12.53,24.43,5.92-2.45,4.61-8.49,3.67-13.62-1.06-5.75-6.26-20.93-13.63-20.45-11.9,5.19-24.44,13.04-37.05,16.27-3.76.97-6.82,2.01-10.15-1.1-7.06-6.58,5.42-16.85,10.29-21.22,1.13-1.02,6.03-3.82,5.76-5.07-.14-.64-8.1-7.2-9.59-9.06-2.15-2.68-3.99-5.99-5.25-9.19-12.25-1.25-18.54.19-23.02-12.6-2.76-7.91-6.41-19.62,3.21-24.41C20.96,12.63,52.1,4.26,63.32,3.28c12.45-1.09,48.6.82,58.6,7.98,3.52,2.52,4.45,5.85,5.64,9.77,2.74,9.03,3.47,14.66-4.95,20.67ZM14.78,42.99c.28.42.13,1.21.91,1.95,2.6,2.45,13.88,2.33,17.7,2.55,5.37,9.99,11.11,18.58,21.82,23.75-7.15,5.09-15.37,10.33-20.87,17.31-1.22,1.55-3.63,4.86-.48,5.7,4.49,1.19,31.18-11.61,36.55-14.55,1.13-.62,4.16-1.82,4.06-3.32,1.84.46,3.77.48,5.59,1.15,9.58,3.54,14.14,17.23,15.59,26.45,1.91,12.1-2.61,16.67-14.15,18.98-.78.16-1.19-.38-1.26-.37,2.31-7.14,1.37-15.71-2.67-22.04-1.32-2.07-4.06-5.78-6.27-2.62-.7,1-.71,3.05-1.4,4.38-2.51,4.87-7.87,8.97-5.71,15.15-5.86-1.28-8,5.27-11.97,7.61-2.01,1.19-13.2,3.34-5.25,6.71,9.57,4.06,14.87.66,23.46-.69,5.43-.85,12.05,3.03,17.9,3.62,11.33,1.14,20.78.73,29.77-6.65,3.51-2.88,10.7-10.51,10.26-15.09,2.71.32,2.93-6.77,3.21-7.06,12.9,5.23,13.48,2.86,8.45-8.78-1.59-3.68-5.08-7.98-6.22-11.11-1.1-3.05-1.14-7.42-2.04-10.8-1.28-4.8-3.25-9.4-4.06-14.24,6.19.22,23.47-5.34,10.71-11.03-4.32-1.93-18.4-4.9-20.99-7.25-1.02-.92-2.14-3.38-3.17-4.52.09-1.14,9.2-3.39,10.17-7.88.3-1.39-.55-1.87-.56-2.06-.6-10.28-1.39-14.53-11.69-17.51C82.58,2.14,43.32,7.12,15.25,19.39c-4.77,2.09-6.1,3.61-5.54,9.09.41,4.03,2.89,11.24,5.06,14.51Z"/>
      <g>
        <path class="cls-2" d="M123.89,28.22c-1.84-.03-1.83,2.19-3.19,3.55-2.83,2.84-8.99,4.58-12.85,5.76-3.53,1.07-6.01-.47-6.42,3.84-1.47,15.35,5.24,25.97,11.03,39.04,4.27,9.64,3.4,9.99,10.14,18.74,2.08,2.7,5.47,10.48,5.79,13.78.44,4.58-6.75,12.21-10.26,15.09-9,7.38-18.44,7.79-29.77,6.65-5.85-.59-12.47-4.47-17.9-3.62-8.59,1.34-13.89,4.75-23.46.69-7.96-3.38,3.24-5.53,5.25-6.71,3.97-2.35,6.1-8.9,11.97-7.61-2.16-6.18,3.19-10.28,5.71-15.15.69-1.33.7-3.38,1.4-4.38,2.21-3.16,4.95.56,6.27,2.62,4.03,6.32,4.98,14.89,2.67,22.04-.43.05-1.19.84-1.92.65,6.67,5.65,16.2,3.56,18.93-5.14,1.41-4.49,1.18-7.73-.02-12.21-.29-1.07.09-2.27-1.59-1.91-1.45-9.21-6.01-22.9-15.59-26.45-1.82-.67-3.75-.69-5.59-1.15-6.08-1.52-13.65-2.43-19.25-5.13-10.71-5.17-16.45-13.76-21.82-23.75-.5-.93-.55-2.73-1.69-3.12-5.81-.16-11.29.32-16.92-1.37-2.17-3.27-4.65-10.47-5.06-14.51-.56-5.48.77-7,5.54-9.09C43.32,7.12,82.58,2.14,112.19,10.71c10.3,2.98,11.1,7.23,11.69,17.51ZM110.56,22.14c0-3.04-2.47-5.51-5.51-5.51s-5.51,2.47-5.51,5.51,2.47,5.51,5.51,5.51,5.51-2.47,5.51-5.51ZM30.88,30.51c0-2.65-2.14-4.79-4.79-4.79s-4.79,2.14-4.79,4.79,2.14,4.79,4.79,4.79,4.79-2.14,4.79-4.79ZM76.39,39.13c-3.17-8.51-17.75-7.2-17.32,2.57,5.74-1.77,11.47-1.79,17.32-2.57Z"/>
        <path class="cls-4" d="M123.89,28.22c.01.19.86.67.56,2.06-.97,4.49-10.08,6.73-10.17,7.88,1.03,1.14,2.15,3.6,3.17,4.52,2.59,2.34,16.67,5.32,20.99,7.25,12.76,5.69-4.52,11.25-10.71,11.03.81,4.83,2.78,9.43,4.06,14.24.9,3.38.94,7.75,2.04,10.8,1.13,3.13,4.63,7.44,6.22,11.11,5.03,11.64,4.45,14.01-8.45,8.78-.28.29-.5,7.38-3.21,7.06-.32-3.31-3.71-11.08-5.79-13.78-6.73-8.75-5.87-9.11-10.14-18.74-5.79-13.07-12.5-23.69-11.03-39.04.41-4.31,2.9-2.77,6.42-3.84,3.86-1.17,10.03-2.92,12.85-5.76,1.36-1.37,1.35-3.59,3.19-3.55Z"/>
        <path class="cls-4" d="M74.47,76.36c.1,1.51-2.93,2.7-4.06,3.32-5.37,2.94-32.06,15.75-36.55,14.55-3.15-.84-.74-4.15.48-5.7,5.51-6.98,13.72-12.22,20.87-17.31,5.6,2.7,13.17,3.61,19.25,5.13Z"/>
        <path class="cls-4" d="M95.65,103.96c1.68-.36,1.3.84,1.59,1.91,1.19,4.48,1.42,7.72.02,12.21-2.73,8.71-12.26,10.79-18.93,5.14.74.19,1.49-.6,1.92-.65.07,0,.48.52,1.26.37,11.54-2.31,16.05-6.88,14.15-18.98Z"/>
        <path class="cls-4" d="M33.39,47.48c-3.82-.22-15.1-.09-17.7-2.55-.79-.74-.64-1.53-.91-1.95,5.63,1.69,11.11,1.21,16.92,1.37,1.14.4,1.19,2.19,1.69,3.12Z"/>
        <circle class="cls-1" cx="105.04" cy="22.14" r="5.51"/>
        <path class="cls-1" d="M76.39,39.13c-5.85.78-11.58.81-17.32,2.57-.43-9.77,14.16-11.09,17.32-2.57Z"/>
        <circle class="cls-1" cx="26.09" cy="30.51" r="4.79"/>
      </g>
    </g>
  </g>
</svg>