<?xml version="1.0" encoding="UTF-8"?>
<svg id="Layer_2" data-name="Layer 2" xmlns="http://www.w3.org/2000/svg" viewBox="0 0 75.63 65">
  <defs>
    <style>
      .cls-1 {
        fill: #fc0808;
      }

      .cls-2 {
        fill: none;
      }

      .cls-3 {
        fill: #f9b6c9;
      }

      .cls-4 {
        fill: #070605;
      }

      .cls-5 {
        fill: #0a9533;
      }
    </style>
  </defs>
  <g id="Health">
    <g id="Health-2" data-name="Health">
      <path class="cls-4" d="M56.06.18c-4.03-.28-7.96-.19-11.53,1.22-1.89.75-6,4.21-7.02,4.05-.89-.14-4.47-3.27-6.46-4.05C21.27-2.47,8.73,1.99,3.33,10.91c-6.82,11.26-2.27,23.89,5.61,33.15,1.56,1.84,6.9,7.17,8.74,8.74,3.88,3.31,9.55,5.81,13.12,9.62,2.28.35,4.07,2.45,6.63,2.57,0,0,0,0,.01,0h0c1.21-.54,3.78-1.34,5.78-2.38,4.83-2.51,11.49-6.51,18.93-13.95.55-.57,1.09-1.15,1.62-1.73.11-.12.22-.24.33-.36.21-.23.41-.46.62-.69.14-.16.28-.32.42-.48.19-.22.38-.44.57-.66.16-.18.31-.37.46-.55.17-.21.35-.41.52-.62.21-.26.42-.52.62-.78.2-.26.41-.52.61-.78.2-.26.39-.52.58-.78.13-.18.26-.36.39-.54.17-.24.35-.48.51-.73.12-.18.25-.36.37-.54.18-.26.35-.52.52-.79.1-.16.21-.32.31-.47.26-.41.52-.83.76-1.25.03-.05.06-.11.09-.17.22-.38.43-.76.63-1.14.08-.15.15-.3.23-.44.15-.3.3-.59.45-.89.08-.16.15-.32.23-.48.14-.31.28-.61.41-.92.06-.14.12-.28.18-.42.18-.45.36-.89.52-1.35.98-3.06,1.36-5.71,1.53-7.54,0,0,0-.01,0-.02-.02-1.75-.32-10.51-6.63-17.09C64.61,1.88,59.47.57,56.06.18ZM44.79,55.43c-6.23,7.5-10.49,3.51-16.9-1.02-9.11-6.44-22.69-19.24-23.25-31.03C3.81,6.09,28.75-2.75,37.37,13.47c1.52.02,3.88-4.3,5.73-5.63,5.46-3.93,10.54-3.71,16.55-1.37,6.39,2.48,11.13,8.25,11.43,15.29.6,14.08-15.16,27.42-26.29,33.67Z"/>
      <path class="cls-1" d="M71.08,21.76c-.11-1.39-.43-5.44-3.43-9.35-2.02-2.63-4.8-4.7-8-5.94-6.01-2.34-11.09-2.56-16.55,1.37-1.86,1.34-4.21,5.65-5.73,5.63C28.75-2.75,3.81,6.09,4.64,23.38c.56,11.79,14.14,24.59,23.25,31.03,5.65,3.99,9.63,7.56,14.76,3.23,0,0,0,0,0,0,6.37-3.46,17.11-11.19,23.86-21.41,4.71-7.12,4.8-11.78,4.58-14.48ZM19.66,23.8c-8.64,1.78-10.53-10.42-3.08-11.93,9.01-1.83,9.51,10.61,3.08,11.93Z"/>
      <path class="cls-3" d="M16.58,11.87c9.01-1.83,9.51,10.61,3.08,11.93-8.64,1.78-10.53-10.42-3.08-11.93Z"/>
      <path class="cls-2" d="M75.63,23.58c-.17,1.83-.55,4.48-1.53,7.54.88-2.45,1.42-4.96,1.53-7.54Z"/>
      <path class="cls-5" d="M74.11,31.12c-2.27,6.32-6.82,12.2-11.96,17.55.01-.01.03-.03.04-.04,4.55-4.56,9.34-9.48,11.91-17.5Z"/>
      <path class="cls-5" d="M75.63,23.57s0,0,0,0c0,0,0,.01,0,.02,0,0,0-.01,0-.01Z"/>
    </g>
  </g>
</svg>