<?xml version="1.0" encoding="UTF-8"?>
<svg id="Layer_2" data-name="Layer 2" xmlns="http://www.w3.org/2000/svg" viewBox="0 0 50.67 73.5">
  <defs>
    <style>
      .cls-1 {
        fill: #3d88c0;
      }

      .cls-2 {
        fill: #feac33;
      }

      .cls-3 {
        stroke: #000;
        stroke-miterlimit: 10;
        stroke-width: 8.56px;
      }

      .cls-4 {
        fill: #fde9c5;
      }

      .cls-5 {
        fill: #93aae2;
      }
    </style>
  </defs>
  <g id="Hourglass">
    <g id="Hourglass-2" data-name="Hourglass">
      <path class="cls-3" d="M45.08,54.71c-.73-.89-1.94-.7-2.11-.86-1.25-1.19-.54-9.52-5.22-14.04-1.17-1.13-4.54-2.44-5.05-3.51-.71-1.51,6.41-2.85,6.71-5.25,2.03-3.41,3.26-6.49,2.69-10.57,3.49-1.19,3.94-7.18,3.42-10.27-.37-2.24-.93-2.59-2.94-3.48-7.5-3.3-26.14-3.11-33.87-.38-2.48.87-3.77.87-4.27,3.86-.51,3.09-.07,9.08,3.42,10.27-.49,4.58.67,8.64,3.86,11.97.62,1.6,6.29,2.24,5.55,3.85-.54,1.15-3.51,1.91-4.72,2.99-4.65,4.18-4.01,9.62-5.55,14.57-.04.13-1.49.82-1.92,1.89-.97,2.44-1.35,8.4.81,10.14,5.33,4.29,35.37,4.7,39.39-.28,1.55-1.92,1.38-8.91-.24-10.9Z"/>
      <path class="cls-4" d="M41.88,20.42c.57,4.08-.67,7.16-2.69,10.57-.3,2.4-7.42,3.74-6.71,5.25.51,1.08,3.88,2.38,5.05,3.51,4.67,4.52,3.97,12.85,5.22,14.04-6.1,6.84-21.8,6.03-29.97,3.87-1.55-.41-6.38-1.57-5.97-3.87,1.53-4.95.9-10.38,5.55-14.57,1.2-1.08,4.18-1.84,4.72-2.99.75-1.61-4.92-2.25-5.55-3.85-3.19-3.33-4.35-7.39-3.86-11.97.43.15,8.53,1.71,8.99,1.71h16.26c.46,0,8.55-1.56,8.99-1.71ZM38.46,23.85c-.78-.78-10.97,2.34-13.28,2.55-2.12.19-11.97-.43-12.4.02-2.46,2.55,3.78,5.42,5.4,6.16,3.14,1.43,4.96-.35,4.95,4.54-.01,8.09-6.76,4.05-10.35,9.41-5.39,8.06,1.51,9.18,8.24,9.73s21.53,1.13,16.47-8.77c-3.38-6.6-11.37-1.98-11.09-10.39.18-5.27,3.79-4.04,7.53-6.23,1.63-.96,6.38-5.16,4.52-7.02Z"/>
      <path class="cls-1" d="M6.79,53.8c-.41,2.3,4.42,3.46,5.97,3.87,8.17,2.16,23.87,2.97,29.97-3.87.17.16,1.38-.04,2.11.86,1.62,1.99,1.79,8.98.24,10.9-4.02,4.97-34.06,4.56-39.39.28-2.16-1.74-1.78-7.69-.81-10.14.42-1.07,1.88-1.77,1.92-1.89Z"/>
      <path class="cls-1" d="M45.31,10.15c.52,3.09.06,9.09-3.42,10.27-.43.15-8.53,1.71-8.99,1.71h-16.26c-.46,0-8.55-1.56-8.99-1.71-3.49-1.19-3.94-7.18-3.42-10.27,12.65,5.48,28.43,5.48,41.08,0Z"/>
      <path class="cls-5" d="M45.31,10.15c-12.65,5.48-28.43,5.48-41.08,0,.5-2.99,1.79-2.99,4.27-3.86,7.72-2.73,26.37-2.91,33.87.38,2.02.89,2.57,1.24,2.94,3.48Z"/>
      <path class="cls-2" d="M38.46,23.85c1.86,1.86-2.89,6.07-4.52,7.02-3.74,2.19-7.35.95-7.53,6.23-.28,8.42,7.71,3.8,11.09,10.39,5.07,9.9-10.01,9.3-16.47,8.77s-13.64-1.67-8.24-9.73c3.58-5.36,10.34-1.32,10.35-9.41,0-4.89-1.81-3.11-4.95-4.54-1.62-.74-7.85-3.61-5.4-6.16.43-.45,10.28.17,12.4-.02,2.3-.21,12.49-3.33,13.28-2.55Z"/>
    </g>
  </g>
</svg>