<?xml version="1.0" encoding="UTF-8"?>
<svg id="Layer_2" data-name="Layer 2" xmlns="http://www.w3.org/2000/svg" viewBox="0 0 126.43 126.21">
  <defs>
    <style>
      .cls-1 {
        fill: #060505;
      }

      .cls-2 {
        fill: #f5f5f5;
      }

      .cls-3 {
        fill: #7c5a4c;
      }

      .cls-4 {
        fill: #e8a968;
      }
    </style>
  </defs>
  <g id="Kiwi">
    <g>
      <path class="cls-2" d="M66.78,123.6c-1.36-1.11-3.19-5.35-3.45-5.54-.48-.36-2.38.63-3.41.55-9.24-.7-14.15-9.23-10.8-17.73,1.66-4.22,4.36-4.5,7.67-6.46,1.95-1.15-.65-2.22-1.64-3.78-5.42-8.52-12.79-12.15-18.19-20.96-1.42-2.32-1.23-5.54-4.1-3.67-5.17,3.37-12.15,14.23-18.26,16.39-10.09,3.57-17.31-5.27-13.62-14.89,1.22-3.18,10.17-13.83,10.18-15.26,0-.65-3.25-6.8-3.8-8.81C-.67,14.34,28.29-10.78,55.04,4.74c1.91,1.11,6.97,5.87,7.44,5.95,1.29.25,5.25-1.05,7-1.12,29.3-1.26,59.15,17.56,56.81,49.75-1.26,17.33-10.4,23.35-22.45,32.75-.83.65-6.54,5.67-6.78,6.06-.76,1.25-.76,12.02-1.93,15.39-2.08,5.96-15,12.89-21.01,12.67-1.8-.07-5.96-1.46-7.35-2.6ZM92.36,93.74c.12-.19,3.06-1.24,4.07-2.03,1.49-1.18,2.08-2.88,3.2-3.86,7.25-6.33,12.83-6.56,18.19-17.11,15.82-31.15-15.63-59.42-46.41-57.96-2.01.1-10.13,1.98-10.86,1.81-.46-.11-4.61-5.19-6.85-6.58C28.03-7.91,1.31,19.95,13.84,45.94c.62,1.29,3.3,4.12,3.23,4.91-.16,1.83-10.3,13.6-11.78,17.12-2.58,6.16,3.11,11.7,8.88,8.24,3.89-2.34,17.22-17.91,20-18.5.64-.14,3.14-.2,3.44.06s1.96,5.75,2.73,7.21c2.07,3.94,5.56,8.08,8.89,11.01,1.67,1.47,5.69,3.57,6.72,4.84.95,1.17,1.07,3.02,2,4.42.85,1.29,3.81,4.33,4,4.98.25.83.29,6.28.07,6.54s-5.19,1.19-6.59,2.07c-4.26,2.69-3.53,10.1.65,12.65,4.29,2.61,6.8.24,11.13-.54-.78,4.35,2.4,9.07,6.9,9.49,2.87.27,14.23-5.78,15.86-8.24,3.03-4.56,1.25-16.67,2.38-18.48Z"/>
      <path class="cls-1" d="M92.36,93.74c-1.13,1.8.65,13.92-2.38,18.48-1.63,2.46-12.99,8.51-15.86,8.24-4.5-.42-7.68-5.15-6.9-9.49-4.33.78-6.84,3.16-11.13.54-4.19-2.55-4.92-9.97-.65-12.65,1.4-.88,6.36-1.81,6.59-2.07s.18-5.71-.07-6.54c-.2-.66-3.15-3.7-4-4.98-.93-1.4-1.05-3.25-2-4.42-1.03-1.27-5.05-3.37-6.72-4.84-3.33-2.93-6.81-7.07-8.89-11.01-.77-1.46-2.44-6.96-2.73-7.21s-2.8-.2-3.44-.06c-2.78.59-16.11,16.15-20,18.5-5.77,3.45-11.47-2.09-8.88-8.24,1.48-3.53,11.62-15.29,11.78-17.12.07-.78-2.61-3.61-3.23-4.91C1.31,19.95,28.03-7.91,53.7,8.01c2.24,1.39,6.38,6.46,6.85,6.58.74.18,8.85-1.71,10.86-1.81,30.78-1.46,62.23,26.81,46.41,57.96-5.36,10.55-10.94,10.79-18.19,17.11-1.12.97-1.71,2.68-3.2,3.86-1,.79-3.95,1.84-4.07,2.03ZM87.12,88.51c5.3-.52,6.07-4.23,9.03-6.69,1.39-1.15,3.78-1.74,5.43-2.92,14.3-10.21,18.82-23.89,11.51-40.43-8.85-20.04-35.49-26.17-55.09-19.86C47.31-.82,18.6,4.75,15.95,27.28c-.76,6.47,1.04,17.46,8.27,19.51-1.17,1.61-2.34,4.33-3.71,6.24-3.56,4.99-7.07,10.03-10.72,14.96l.64,2.54c7.17-5.62,13.36-12.3,19.88-18.62.79-.76,1.82-1.14,2.89-1.28l8.32.03c.69,6.53,4.74,13.39,9.34,17.94,1.87,1.84,8.32,5.57,9.11,6.61.96,1.27,1.68,4.97,3.12,6.83,1.67,2.17,3.94,1.9,4.13,3.89.18,1.86.33,10.53-.09,11.79-.88,2.62-11.06.95-9.42,6.37.95,3.15,9.53.13,11.61-.98,5.29-2.84,2.27-12.12,3.04-17.18,1.37-.26,3.08-2.25,4.68-1.84.95.24,2.95,3.07,4.95,3.77l-.74,16.26c-.6,1.74-7.69,3.48-8.57,4.91-.96,1.56-.08,4.46,1.92,4.49,1.43.02,10.96-5.09,11.56-6.41.34-.76.92-8.27,1-9.91.15-2.88-.16-5.81-.03-8.69Z"/>
      <g>
        <path class="cls-3" d="M24.23,46.79c-7.24-2.05-9.03-13.03-8.27-19.51C18.6,4.75,47.31-.82,58.01,18.6c19.6-6.3,46.23-.17,55.09,19.86,7.31,16.54,2.78,30.22-11.51,40.43-1.65,1.18-4.04,1.76-5.43,2.92-2.96,2.46-3.73,6.17-9.03,6.69-1.24.12-3.98-.24-5.13-.64-2-.7-4-3.52-4.95-3.77-1.6-.41-3.31,1.58-4.68,1.84-1.48.28-3.55-.19-5.13,0-.2-1.99-2.46-1.72-4.13-3.89-1.43-1.86-2.16-5.56-3.12-6.83-.79-1.04-7.24-4.77-9.11-6.61-4.6-4.54-8.65-11.41-9.34-17.94l-8.32-.03c1.63-2.75,7.06-8.74,1.32-10.63-4.84-1.6-7.87,3.42-10.31,6.78ZM23.39,25.08c-3.06.93-3.57,9.32-.27,9.36.59,0,5.95-1.21,6.25-1.44,2.27-1.73-.52-9.58-5.98-7.92ZM40.09,25.1c-2.51.56-4.34,5.05-3.61,7.16.38,1.1,6.8,2.44,7.64,2.04,2.32-1.1,2.58-10.68-4.02-9.2Z"/>
        <path class="cls-4" d="M33.21,50.64c-1.07.13-2.1.51-2.89,1.28-6.52,6.32-12.72,12.99-19.88,18.62l-.64-2.54c3.64-4.93,7.15-9.97,10.72-14.96,1.37-1.91,2.54-4.63,3.71-6.24,2.44-3.35,5.46-8.37,10.31-6.78,5.74,1.89.31,7.88-1.32,10.63Z"/>
        <path class="cls-4" d="M87.12,88.51c-.13,2.88.17,5.81.03,8.69-.08,1.64-.66,9.15-1,9.91-.6,1.32-10.13,6.43-11.56,6.41-2-.02-2.88-2.92-1.92-4.49.88-1.43,7.97-3.16,8.57-4.91l.74-16.26c1.15.4,3.89.76,5.13.64Z"/>
        <path class="cls-4" d="M72.36,85.94c-.77,5.06,2.25,14.34-3.04,17.18-2.08,1.12-10.65,4.13-11.61.98-1.64-5.43,8.54-3.76,9.42-6.37.42-1.25.27-9.93.09-11.79,1.59-.19,3.66.28,5.13,0Z"/>
        <path class="cls-1" d="M23.39,25.08c5.46-1.66,8.25,6.19,5.98,7.92-.3.23-5.66,1.44-6.25,1.44-3.29-.03-2.78-8.43.27-9.36Z"/>
        <path class="cls-1" d="M40.09,25.1c6.6-1.48,6.35,8.1,4.02,9.2-.83.4-7.26-.95-7.64-2.04-.73-2.11,1.11-6.6,3.61-7.16Z"/>
      </g>
    </g>
  </g>
</svg>