<?xml version="1.0" encoding="UTF-8"?>
<svg id="Layer_2" data-name="Layer 2" xmlns="http://www.w3.org/2000/svg" viewBox="0 0 152.39 107.94">
  <defs>
    <style>
      .cls-1 {
        fill: #845d52;
      }

      .cls-2 {
        fill: #f6f6f6;
      }

      .cls-3 {
        fill: #020202;
      }

      .cls-4 {
        fill: #b18b6d;
      }
    </style>
  </defs>
  <g id="Mole">
    <g>
      <path class="cls-2" d="M105.61,97.06c-.14.1-.76,1.86-1.93,2.9-8.1,7.22-21.44,9.78-31.75,6.69-3.2-.96-8.48-4.83-11.01-5.09-3.22-.33-5.51,3.35-8.46,4.3-3.14,1.02-7.14.55-9.98-1.21-1.6-.99-3.45-4.14-4.06-4.31-1.11-.32-5,1.26-6.93,1.23-3.02-.05-8.4-2.69-10.25-2.58-3.45.21-4.91,3.49-10.78,1.74-5.15-1.54-4.53-3.85-6.66-7.46-.95-1.61-2.32-2.23-3.15-4.55-.85-2.38-.9-13.66-.14-16.18,2.45-8.16,10.36-6.32,12.08-8.46.44-.55,2.3-11.41,2.97-13.72,18.52-63.5,120.02-70.22,135.15-1.32,4.26,19.41,1.16,40.62-19.47,48.33-6.19,2.31-14.24,3.91-20.67,2.07-1.13-.32-4.76-2.55-4.98-2.39ZM106.2,87.44c.22.16.93,3.4,2.63,4.78,3.88,3.16,9.7,2.43,14.23,1.44,39.62-8.66,26.37-62.98.07-79.91C84.78-10.95,27.56,10.29,18.51,55.85c-.46,2.34-.7,10.43-.98,10.9-.85,1.47-7.61,1.06-10.36,2.79-4.58,2.89-1.67,6.19-1.67,9.22s-2.48,4.24.31,8.03c.6.82,1.8,1.04,2.07,1.45.91,1.41.16,4.53,2.49,6.17,5.25,3.7,8.23-2.44,10.18-2.48,1.6-.04,7.16,3.7,11,3.77,2.58.04,7.67-2.25,9.44-1.9,1.02.2,2.17,6.66,7.28,6.91,4.83.24,5.17-4.23,6.07-4.88.67-.48,2.76.55,3.96.44s2.46-1.29,3.96-1.15c1.1.11,8.98,5.18,12.55,6.09,7.81,1.99,19.59-.15,25.63-5.81,2.86-2.68,2.17-6.62,2.7-7.25.1-.12,2.95-.82,3.08-.73Z"/>
      <path class="cls-3" d="M106.2,87.44c-.13-.09-2.98.6-3.08.73-.53.63.16,4.57-2.7,7.25-6.03,5.66-17.81,7.8-25.63,5.81-3.57-.91-11.46-5.98-12.55-6.09-1.51-.15-2.73,1.03-3.96,1.15s-3.29-.93-3.96-.44c-.89.65-1.23,5.12-6.07,4.88-5.11-.26-6.26-6.71-7.28-6.91-1.77-.35-6.86,1.94-9.44,1.9-3.83-.06-9.4-3.8-11-3.77-1.95.04-4.93,6.18-10.18,2.48-2.33-1.64-1.58-4.77-2.49-6.17-.26-.41-1.46-.63-2.07-1.45-2.79-3.78-.31-5.02-.31-8.03s-2.91-6.33,1.67-9.22c2.75-1.74,9.51-1.32,10.36-2.79.28-.48.51-8.57.98-10.9C27.56,10.29,84.78-10.95,123.13,13.74c26.3,16.93,39.55,71.25-.07,79.91-4.53.99-10.35,1.72-14.23-1.44-1.7-1.38-2.41-4.62-2.63-4.78ZM15.75,71.38c-1.61.12-4.57-1.34-6.41.97-.49,2.19,4.24,1.29,5.13.95.19,1.36-.28,3.26,0,4.49-1.53-.44-5.43,2.11-5.13,3.52.61,2.94,4.87-2.29,6.42-1.59.43.75,1.17,2.48,1.28,2.57-2.1,1.36-4.12,3.78-3.85,6.41l6.41-5.13c.45.19,1.47.53,1.93.64,1.07,1.13,2.44,1.95,3.85,2.57,6.5,2.84,9.46,1.27,16.05,0,.16.12,1.47,0,2.61.91,1.44,1.14,3.36,6.43,4.76,6.15,3.3-.67-2.57-7.46-3.52-8.34l5.78-1.93c1.24.94,2.75,1.87,3.88,2.86,1.33,1.17,1.42,3.45,3.82,2.91.39-2.7-1.99-4.87-3.85-6.41l5.13-.64c2.79,7.79,15.5,13.42,23.45,12.86,3.06-.22,12.57-3.35,14.12-5.79,1.21-1.9-1.63-3.13-1.62-3.54.02-.71,3.99-1.47,3.84-4.81,1.94.85,4.31.27,5.78-1.28.23.18,4.85,2.5,5.13,2.57-.52,7.92,11.15,4.85,15.76,3.24,12.84-4.47,17.17-15.55,16.25-28.51-4.96-70.01-109.02-64.85-119.87,1.27-.59,3.58,1.02,7.04-2.04,10.15-.7.71-4.12,2.86-5.09,2.94Z"/>
      <path class="cls-1" d="M19.6,83.58l-6.41,5.13c-.28-2.63,1.75-5.06,3.85-6.41.14.1,1.19-.08,1.86.35.43.28.62.9.71.93Z"/>
      <path class="cls-1" d="M14.46,77.8c.03.11.97,1.38,1.28,1.93-1.54-.7-5.8,4.54-6.42,1.59-.29-1.41,3.6-3.96,5.13-3.52Z"/>
      <path class="cls-1" d="M15.75,71.38c-.11.95-.32,1.56-1.28,1.93-.89.33-5.63,1.24-5.13-.95,1.85-2.32,4.81-.85,6.41-.97Z"/>
      <g>
        <path class="cls-4" d="M15.75,71.38c.96-.07,4.39-2.22,5.09-2.94,3.06-3.12,1.45-6.57,2.04-10.15,10.85-66.12,114.9-71.28,119.87-1.27.92,12.97-3.41,24.04-16.25,28.51-4.61,1.61-16.28,4.67-15.76-3.24,2.77.66,12.03.66,11.55-3.85-13.65,3.51-19.12-6.38-16.38-18.63.26-1.18,2.62-4.7.65-5.12-4.13-.88-5.1,15.13-4.52,18,.2.98,3.12,6.69,3.57,7.02-1.46,1.55-3.83,2.13-5.78,1.28-.09-2.09-1.85-3.47-3.21-4.82l3.25-1.34c-1.11-4.66-5.99-9.51-10.79-10.38-2.25-.41-4.29.44-2.35,1.83,1.21.87,3.89,1.21,5.98,2.89,1.41,1.14,2.36,2.23,3.26,3.8-1.69,1.05-7.64-1-7.7,1.91,0,.4,5.88,2.08,7.11,3.81,3.75,5.29-6.5,4.53-7.74,7.12-.72,1.51,4.41,1.62,5.13,1.6,1.29,1.08-3.34,2.69-3.87,2.86-12.08,3.86-25.11-2.74-25.66-16.05-.11-2.7.77-5.3,1.01-7.96.08-.87.93-1.52-.68-1.32-4.06,4.25-5.5,11.84-3.54,17.32l-5.13.64c-1.6-1.32-13.02-8.32-14.12-7.06-1.58,1.82,4.67,3.79,5.97,4.62,1.51.97,2.88,2,4.3,3.08l-5.78,1.93c-1.63-1.51-4.08-3.5-6.41-3.21-.19.17,2.36,4.34,2.56,4.49-6.58,1.27-9.55,2.84-16.05,0,1.83-1.09,3.78-.5,5.94-1.44,2.85-1.24,3.41-4.7,6.89-3.7.39-3.55-3.76-3.33-6.41-3.2-.34,1.24,1.27,1.67,1.18,2.77-.32,4.02-8.7,3.66-11.46,3-.46-.11-1.47-.46-1.93-.64-.09-.04-.28-.65-.71-.93-.67-.43-1.72-.25-1.86-.35-.11-.09-.85-1.81-1.28-2.57-.31-.54-1.26-1.81-1.28-1.93-.28-1.23.19-3.13,0-4.49.97-.36,1.17-.98,1.28-1.93ZM48.94,64.97c0-1.6-1.29-2.89-2.89-2.89s-2.89,1.29-2.89,2.89,1.29,2.89,2.89,2.89,2.89-1.29,2.89-2.89ZM56.18,73.31c1-5.6-13.88-2.63-14.75-.95-.63,1.23,1.05.98,1.61.98,4.12-.03,8.79-1.73,13.14-.03ZM25.38,73.95l-8.99-.65c-.52,8.07,8.09,8.27,8.99.65Z"/>
        <path class="cls-1" d="M60.03,82.29c-1.96-5.48-.52-13.08,3.54-17.32,1.6-.21.76.45.68,1.32-.25,2.65-1.13,5.25-1.01,7.96.55,13.32,13.58,19.92,25.66,16.05.53-.17,5.16-1.79,3.87-2.86-.72.02-5.85-.09-5.13-1.6,1.24-2.59,11.49-1.83,7.74-7.12-1.23-1.73-7.12-3.41-7.11-3.81.07-2.91,6.02-.86,7.7-1.91-.91-1.56-1.85-2.66-3.26-3.8-2.09-1.68-4.77-2.02-5.98-2.89-1.93-1.39.1-2.24,2.35-1.83,4.79.87,9.68,5.72,10.79,10.38l-3.25,1.34c1.36,1.34,3.11,2.73,3.21,4.82.15,3.34-3.82,4.1-3.84,4.81-.01.4,2.83,1.64,1.62,3.54-1.55,2.44-11.06,5.57-14.12,5.79-7.95.56-20.66-5.06-23.45-12.86Z"/>
        <path class="cls-1" d="M105.6,79.73c-.45-.34-3.37-6.04-3.57-7.02-.58-2.87.39-18.89,4.52-18,1.98.42-.38,3.94-.65,5.12-2.74,12.25,2.73,22.14,16.38,18.63.48,4.51-8.78,4.51-11.55,3.85-.28-.07-4.9-2.39-5.13-2.57Z"/>
        <path class="cls-1" d="M54.9,82.94c1.86,1.54,4.24,3.72,3.85,6.41-2.4.54-2.5-1.74-3.82-2.91-1.13-.99-2.64-1.92-3.88-2.86-1.42-1.08-2.78-2.12-4.3-3.08-1.29-.83-7.54-2.8-5.97-4.62,1.09-1.26,12.52,5.73,14.12,7.06Z"/>
        <path class="cls-1" d="M21.52,84.22c2.76.66,11.13,1.02,11.46-3,.09-1.1-1.53-1.53-1.18-2.77,2.65-.12,6.8-.34,6.41,3.2-3.49-1.01-4.05,2.46-6.89,3.7-2.16.94-4.12.35-5.94,1.44-1.41-.62-2.78-1.44-3.85-2.57Z"/>
        <path class="cls-1" d="M45.27,85.5c.95.88,6.82,7.67,3.52,8.34-1.4.28-3.33-5.01-4.76-6.15-1.14-.91-2.45-.79-2.61-.91-.21-.15-2.76-4.32-2.56-4.49,2.33-.3,4.78,1.7,6.41,3.21Z"/>
        <path class="cls-3" d="M25.38,73.95c-.9,7.62-9.52,7.43-8.99-.65l8.99.65Z"/>
        <path class="cls-1" d="M56.18,73.31c-4.35-1.7-9.02,0-13.14.03-.56,0-2.25.25-1.61-.98.87-1.68,15.75-4.65,14.75.95Z"/>
        <circle class="cls-3" cx="46.05" cy="64.97" r="2.89"/>
      </g>
    </g>
  </g>
</svg>