<?xml version="1.0" encoding="UTF-8"?>
<svg id="Layer_2" data-name="Layer 2" xmlns="http://www.w3.org/2000/svg" viewBox="0 0 152.19 147.05">
  <defs>
    <style>
      .cls-1 {
        fill: #2b2929;
      }

      .cls-2 {
        fill: #f6f6f6;
      }

      .cls-3 {
        fill: #020202;
      }

      .cls-4 {
        fill: #835951;
      }

      .cls-5 {
        fill: #b3885c;
      }

      .cls-6 {
        fill: #070605;
      }

      .cls-7 {
        fill: #fccd8a;
      }
    </style>
  </defs>
  <g id="Monkey">
    <g>
      <path class="cls-2" d="M51.74,116c.22-.23.31-5.33.35-6.39-3.97,5.11-11.46,6.42-16.05,10.26-3.57,2.99-5.87,8.03-10,11.18-14.78,11.25-29.89-1.4-25.15-18.74,3.36-12.32,12.94-15.93,22.64-22.29-10.89-3.95-17.65-15.39-16.6-26.88.21-2.3,1.53-5.17,1.62-7.22.13-2.93-1.5-7.09-1.69-10.19-.85-14.09,8.87-27.81,22.01-32.52,14.41-5.16,37.7-1.32,47.62,11.02,4.19,5.22,3.92,9.62,6.46,14.08.97,1.7,4.13,3.97,5.4,5.82-2.41-14.42,3.43-29.1,15.2-37.76,21.79-16.02,55.97-.25,47.25,28.64-1.12,3.71-4.44,9.43-7.68,11.57-11.34,7.51-26.28-2.96-22.05-16.27-8.55,4.88-1.54,13.47.21,19.71,2.75,9.81,1.18,21.11-5.06,29.34-.96,1.27-4.44,4.06-4.66,5-.19.83.46,1.71.4,2.43-.58,7.46-.19,4.03,4.84,7.5,9.5,6.55,8.87,30.09-1.91,36.38-3.56,2.08-7.95,1.23-10.49,2.35-.86.38-3.74,3.68-5.45,4.82-5.69,3.79-14.14,7.13-20.87,4.79-1.35-.47-3.31-2.25-4.18-2.25-1.21,0-2.7,2.33-3.95,3.11-6.93,4.35-24.33,5.45-30.08-1.16-7.05-8.1-4.41-21.85,6.12-25.36,1.2-.4,5.54-.78,5.74-.99ZM116.18,26.4c1.26-1.23,4.31-3.12,6.04-3.32,9.23-1.04,3.17,5.37,2.76,9.25-.92,8.76,9.26,13.89,15.99,8.9,1.03-.76,3.58-4.75,4.21-6.06,9.33-19.19-9.25-35.67-27.96-31.17-16.78,4.03-27.02,20.96-24.18,37.7,1.1,6.51,6.16,13.91,4.64,19.78-1.44,5.56-4.42,1.74-7.81.08-.96-.47-3.95-1.21-4.08-1.39-.19-.25,1.35-3.91,1.31-5.42-.08-3.21-2.8-9.37-4.87-11.87-1.01-1.22-2.67-1.67-3.43-2.99-1.79-3.14-2.3-8.77-5.04-12.93C59.91,6.04,11.09,10.94,11.28,42.54c.02,3.7,1.99,8.9,1.97,12.2-.02,3.83-2.38,6.38-1.85,11.48,1.13,10.94,9.9,18.58,20.46,19.96-5.42,9.71-17.68,10.79-23.37,19.63-4.18,6.5-7.01,17.09,1.1,21.9,11.69,6.94,17.54-8.45,24.52-13.61,3.17-2.35,7.8-3.71,11.19-6.14,1.47-1.05,5.8-5.89,6.22-5.97.38-.07,4.26,1.68,4.57,2,1.64,1.7.31,12.97-1.05,14.86-.48.67-3.81.35-5.25.67-13.01,2.89-11.8,20.24.36,21.54,9.72,1.04,20.35-.56,22.79-11.55,1.21.6,1.39,2.58,2.28,3.8,1.43,1.95,4.29,3.82,6.67,4.27,4.47.84,13.58-3.77,17.05-6.78,1.04-.9,3.66-4.49,3.95-4.55,1.13-.22,3.11.82,4.94.66,10.43-.91,11.64-13.84,10.38-21.83-1.24-7.88-4.9-9.2-11.81-11.61.95-3.4-.19-9.39.68-12.29.23-.78,5.12-5.6,6.4-7.72,3.58-5.95,5.32-12.88,4.23-19.85-.8-5.11-4.52-9.32-5-14.89-.44-4.98-.23-8.71,3.46-12.31ZM88.98,46.07c.46-.9-.41-1.71-.63-1.28-.46.9.41,1.71.63,1.28Z"/>
      <path class="cls-6" d="M116.18,26.4c-3.69,3.6-3.9,7.33-3.46,12.31.49,5.57,4.21,9.78,5,14.89,1.09,6.97-.65,13.9-4.23,19.85-1.28,2.12-6.16,6.95-6.4,7.72-.86,2.9.27,8.89-.68,12.29,6.91,2.42,10.57,3.73,11.81,11.61,1.26,7.99.05,20.92-10.38,21.83-1.83.16-3.81-.88-4.94-.66-.3.06-2.91,3.65-3.95,4.55-3.47,3.01-12.58,7.62-17.05,6.78-2.38-.45-5.24-2.32-6.67-4.27-.89-1.22-1.08-3.2-2.28-3.8-2.44,10.99-13.07,12.59-22.79,11.55-12.15-1.3-13.37-18.65-.36-21.54,1.43-.32,4.76,0,5.25-.67,1.36-1.9,2.69-13.16,1.05-14.86-.31-.32-4.19-2.07-4.57-2-.42.08-4.76,4.91-6.22,5.97-3.39,2.43-8.01,3.8-11.19,6.14-6.98,5.16-12.83,20.55-24.52,13.61-8.11-4.81-5.28-15.4-1.1-21.9,5.69-8.84,17.95-9.92,23.37-19.63-10.56-1.38-19.33-9.02-20.46-19.96-.53-5.1,1.83-7.65,1.85-11.48.01-3.3-1.95-8.5-1.97-12.2-.19-31.6,48.63-36.5,62.47-15.56,2.75,4.16,3.25,9.79,5.04,12.93.75,1.32,2.41,1.77,3.43,2.99,2.07,2.5,4.79,8.66,4.87,11.87.04,1.51-1.49,5.17-1.31,5.42.13.17,3.13.92,4.08,1.39,3.39,1.67,6.37,5.48,7.81-.08,1.52-5.87-3.54-13.27-4.64-19.78-2.84-16.74,7.4-33.67,24.18-37.7,18.71-4.5,37.29,11.98,27.96,31.17-.63,1.31-3.18,5.29-4.21,6.06-6.73,4.98-16.91-.14-15.99-8.9.41-3.88,6.48-10.29-2.76-9.25-1.73.19-4.78,2.09-6.04,3.32ZM100.54,94.21c.47-1.45,1.2-6.32,1.31-8,.17-2.59-.99-8.26-.7-9.52.1-.43,5.24-3.73,6.72-5.64,12.43-16.02-1.94-25.33-.27-40.7,1.05-9.61,13.63-17.91,22.43-12.16,7.78,5.09-4.62,13.18,2.01,17.24,4.24,2.6,7.09-.91,8.82-4.55,5.83-12.24-3.18-23.5-15.69-24.51-14.57-1.18-27.87,12.95-27.89,27.2-.01,9.16,6.89,17.64,5.77,25.61-.43,3.02-4.1,9.04-7.36,9.37-2.25.22-3.86-2.28-5.72-3.23-3.82-1.96-8.15-3.8-12.53-3.84.43-1.1,1.56-1,2.48-2.33,3.07-4.44,2.08-11.14-1.58-14.93-1.16-1.2-3.78-2.08-4.42-3.29-.8-1.51-.9-5.28-1.59-7.4-3.72-11.41-14.33-14.98-25.39-15.68-14.57-.93-25.68,2.97-29.2,17.96-2.08,8.87.67,9.92.64,17.01,0,2.25-1.47,4.54-1.76,6.57-1.68,11.5,6.52,19.26,17.58,19.98,2.4.16,4.66-.67,6.66.08-2.8,2.73-6,9.9-9.21,13.25-2.97,3.09-7.15,5.02-10.68,7.29-1.89,1.21-4.34,2.14-6.09,3.86-3.72,3.67-7.84,12.09-3.9,16.72,6.46,7.58,14.84-8.19,18.97-11.59,3.05-2.51,7.77-4.3,11.55-7.06.99-.72,2.53-1.17,3.78-2.32,1.71-1.57,3.38-4.38,5.2-6.03.29.26,5.87,3.27,6.82,3.77.85.44,3.89,1.27,4.01,1.45.26.38.76,8.03.72,9.21-.09,2.16-1.58,10.18-2.56,11.88-2.68,4.67-12.54-.09-14,7.54-1.45,7.6,8.86,7.05,13.67,6.57,7.6-.76,7.97-4.91,10.6-10.9,1.9-4.34,3.8-8.78,4.83-13.46.54-2.47.48-7.56.94-9l5.13,3.85c.18,1.83.08,2.79.78,4.68.22.58,2.85,5.36,3.07,5.59-.26,2.28-2.25,2.06-3.55,3.19-5.01,4.36-3.4,13.72,3.7,12.73,3.29-.46,12.24-5.2,13.64-8.23,1.47-3.19-1.98-6.99-2.88-10.26s-.56-2.88,0-5.78c.45.43,1.65.43,1.93.64,3.49,2.77,2.88,12.61,9.32,12.88,7.51.32,7.47-10.65,6.66-15.7-1.2-7.48-4.06-5.76-9.56-8.09-.79-.34-2.01-1.74-3.21-1.93Z"/>
      <path class="cls-3" d="M88.98,46.07c-.22.44-1.09-.38-.63-1.28.22-.44,1.09.38.63,1.28Z"/>
      <g>
        <path class="cls-5" d="M17.75,35.8c3.52-14.99,14.63-18.89,29.2-17.96,11.06.7,21.67,4.28,25.39,15.68.69,2.11.79,5.89,1.59,7.4.64,1.21,3.26,2.09,4.42,3.29,3.65,3.79,4.65,10.49,1.58,14.93-.92,1.33-2.05,1.23-2.48,2.33,4.38.03,8.71,1.87,12.53,3.84,1.86.96,3.47,3.46,5.72,3.23,3.26-.32,6.94-6.34,7.36-9.37,1.12-7.98-5.78-16.46-5.77-25.61.02-14.25,13.32-28.38,27.89-27.2,12.51,1.01,21.52,12.28,15.69,24.51-1.73,3.64-4.57,7.15-8.82,4.55-6.63-4.06,5.77-12.15-2.01-17.24-8.8-5.75-21.38,2.55-22.43,12.16-1.68,15.37,12.7,24.68.27,40.7-1.48,1.91-6.62,5.21-6.72,5.64-.29,1.27.87,6.93.7,9.52-.11,1.67-.83,6.55-1.31,8-1.36,4.14-4.12,6.91-5.13,12.19-.56,2.9-.88,2.55,0,5.78-2.16.27-2.78,2.57-4.95,3.07-1.3.3-5.1.38-5.96-.5-.22-.23-2.86-5.01-3.07-5.59-.7-1.89-.6-2.85-.78-4.68-.09-.93.18-4.32,0-4.5-.19-.2-4.82-.32-5.14.65-.47,1.44-.4,6.54-.94,9-1.03,4.68-2.93,9.12-4.83,13.46-3.47,1.12-9.81,1.46-10.27-3.21.97-1.7,2.47-9.72,2.56-11.88.05-1.18-.46-8.83-.72-9.21-.12-.18-3.16-1-4.01-1.45-.94-.49-6.53-3.51-6.82-3.77-.92-.81-4.92-7.54-5.44-9-.71-1.96-1.26-3.61-.98-5.76,4.4-1.7,11.71-4.62,13.19-9.6,1.19-4.02-.83-7.81-.2-11.75,1.04-6.48,7.52-7.95,2.93-16.71-7.13-13.59-17.67-1.72-26.71-4.1-2.76-.73-4.36-3.07-7.48-3.42-3.62-.42-5.31.41-8.04,2.58ZM71.02,57.62c6.42.74,7.4-11.47.71-10.84,0,.52-.71,1.31-.71,1.54v9.31Z"/>
        <path class="cls-7" d="M44.07,78.8c-.45.17-1.47-.17-1.93,0-.33.12-1.1.46-1.28.64-1.99-.75-4.26.07-6.66-.08-11.05-.72-19.25-8.48-17.58-19.98.3-2.03,1.75-4.32,1.76-6.57.03-7.09-2.72-8.14-.64-17.01,2.73-2.17,4.42-2.99,8.04-2.58,3.12.36,4.72,2.7,7.48,3.42,9.04,2.38,19.58-9.49,26.71,4.1,4.6,8.76-1.89,10.23-2.93,16.71-.63,3.94,1.39,7.73.2,11.75-1.48,4.97-8.79,7.9-13.19,9.6ZM44.52,46.84c-4.01,1.21-4.36,11.85-.71,13.92,9.87,5.57,9.43-16.54.71-13.92ZM23.31,47.46c-2.93,1.03-3.48,11.59-.43,13.05,2.23,1.06,5.08.62,5.64-2.06.19-.92.8-7.36.68-8.05-.46-2.71-3.46-3.79-5.9-2.94ZM36.36,62.12c-9.42-3.15-5.32,6.04-.96,1.92.64-.6,1.18-.89.96-1.92ZM32.51,68.54c-1.24,7.82,13.09,7.27,13.47.92.48-7.88-9.93.52-13.47-.92Z"/>
        <path class="cls-5" d="M41.5,101.91c-3.78,2.76-8.5,4.55-11.55,7.06-5.75-.37-7.89-3.78-8.99-8.99,3.54-2.27,7.72-4.19,10.68-7.29,3.22-3.35,6.41-10.52,9.21-13.25.19-.18.96-.52,1.28-.64-3.47,7.3,2.15,15.36-.64,23.1Z"/>
        <path class="cls-7" d="M20.96,99.98c1.09,5.21,3.24,8.61,8.99,8.99-4.13,3.4-12.51,19.18-18.97,11.59-3.95-4.63.18-13.05,3.9-16.72,1.75-1.72,4.2-2.64,6.09-3.86Z"/>
        <path class="cls-7" d="M97.33,107.04c5.57-1.27,7.08-5.63,6.42-10.91,5.5,2.33,8.36.61,9.56,8.09.81,5.05.86,16.02-6.66,15.7-6.44-.27-5.83-10.11-9.32-12.88Z"/>
        <path class="cls-7" d="M95.41,112.18c.89,3.26,4.35,7.07,2.88,10.26s-10.35,7.77-13.64,8.23c-7.1.99-8.7-8.37-3.7-12.73,1.29-1.13,3.28-.91,3.55-3.19.86.88,4.67.8,5.96.5,2.17-.5,2.78-2.8,4.95-3.07Z"/>
        <path class="cls-7" d="M59.47,119.88c.46,4.67,6.8,4.32,10.27,3.21-2.63,6-2.99,10.14-10.6,10.9-4.81.48-15.12,1.03-13.67-6.57,1.46-7.63,11.31-2.88,14-7.54Z"/>
        <path class="cls-4" d="M44.07,78.8c-.29,2.15.27,3.8.98,5.76.52,1.45,4.52,8.19,5.44,9-1.82,1.65-3.49,4.45-5.2,6.03-1.25,1.15-2.79,1.59-3.78,2.32,2.79-7.75-2.83-15.8.64-23.1.45-.17,1.48.17,1.93,0Z"/>
        <path class="cls-4" d="M103.75,96.13c.66,5.28-.85,9.64-6.42,10.91-.27-.22-1.48-.21-1.93-.64,1.01-5.29,3.78-8.06,5.13-12.19,1.19.18,2.42,1.59,3.21,1.93Z"/>
        <path class="cls-4" d="M75.51,100.62c.31-.97,4.95-.84,5.14-.65.17.18-.09,3.57,0,4.5l-5.13-3.85Z"/>
        <path class="cls-7" d="M71.02,57.62v-9.31c0-.23.7-1.01.71-1.54,6.69-.63,5.71,11.59-.71,10.84Z"/>
        <path class="cls-1" d="M44.52,46.84c8.73-2.63,9.17,19.49-.71,13.92-3.65-2.06-3.3-12.71.71-13.92Z"/>
        <path class="cls-1" d="M23.31,47.46c2.44-.85,5.44.23,5.9,2.94.12.68-.49,7.12-.68,8.05-.56,2.68-3.41,3.13-5.64,2.06-3.05-1.46-2.51-12.02.43-13.05Z"/>
        <path class="cls-5" d="M32.51,68.54c3.54,1.44,13.95-6.96,13.47.92-.39,6.35-14.71,6.9-13.47-.92Z"/>
        <path class="cls-1" d="M36.36,62.12c.23,1.03-.32,1.32-.96,1.92-4.37,4.12-8.47-5.07.96-1.92Z"/>
      </g>
    </g>
  </g>
</svg>