<?xml version="1.0" encoding="UTF-8"?>
<svg id="Layer_2" data-name="Layer 2" xmlns="http://www.w3.org/2000/svg" viewBox="0 0 149.73 136.04">
  <defs>
    <style>
      .cls-1 {
        fill: #010101;
      }

      .cls-2 {
        fill: #f5f5f5;
      }
    </style>
  </defs>
  <g id="Orca">
    <g>
      <path class="cls-2" d="M22.63,103.27c-.47-.58-10.22-7.39-12.07-8.79-1.87-1.4-4.21-1.71-6.08-3.55-4.18-4.12-5.52-12.4-3.64-17.81,3.25-9.35,14.11-25.9,22.01-31.9,10.68-8.12,16.31-5.42,27.88-6.78,5.83-.69,6.74-8.55,8.94-12.88,5.87-11.51,17.62-19.89,28.28-8.33l2.23,3.86c-.65-11.32,3.73-19.45,16.19-16.5,4.27,1.01,10.54,5.05,13.7,5.55,2.56.4,9.24.61,12.08.61,2.09,0,4.27-1.15,6.81-.95,4.34.35,8.49,3.32,9.94,7.44,3.21,9.12-3.49,18.21-10.28,23.72-6.94,5.63-10.17,3.38-12.32,13.99-1.42,6.99-1.3,14.21-3.06,21.33-3.43,13.88-13.91,23.88-24.66,32.5,3.04,7.88,7.55,15.47,2.65,23.78-8.25,13.99-25.53,5.51-34.47-3.01-11.29,19.01-31.35,3.22-39.16-10.27-1.47-2.53-4.37-11.32-4.96-12.04ZM93.52,100.67c.26-.45,7.04-4.59,8.55-5.89,8.05-6.93,14.88-16.6,17.2-27.08,2-9.03.78-24.82,8.46-30.69,1.57-1.2,3.56-1.63,5.02-2.68,6.09-4.42,16.33-14.13,10.85-22.18-3.09-4.54-7.03-1.95-10.74-2.04-1.99-.05-3.75-.72-5.74-.72-2.42-.01-6.79.87-8.33.67-1.34-.17-3.96-2.59-5.7-3.34-2.48-1.07-9.91-3.97-12.15-3.6-7.62,1.25-6.66,10.77-5.17,16.43.67,2.57,4.83,10.1,4.7,11.34-.54,5.36-10.94,4.13-13.01-1.1-2.28-5.75.98-16.71-8.66-18.29-11.83-1.95-14.65,12.66-18.67,20.17-4.89,9.13-13.32,4.94-21.83,6.41-15.15,2.62-25.25,18.74-31.24,31.65-2.62,5.64-3.96,9.73.06,15.37,2.02,2.83,3.8,2.38,5.74,3.89,2.13,1.65,4.23,3.96,6.52,5.68,1.34,1,6.85,3.8,7.11,4.12.56.69,2.81,8.42,3.89,10.55,3.53,6.97,12.32,17.04,20.14,19.01,8.3,2.09,14.4-6.56,12.72-14.33,5.35,6.08,11.69,12.03,19.46,14.87,10.96,4.01,18.02-3.67,15.22-14.58-.79-3.1-5.94-11-4.39-13.64ZM92.09,24.17c-.65-.63-1.33-.13-1.28.95.14,2.81.98,5.27,3.85,6.11.24-.29-2.3-6.79-2.57-7.06Z"/>
      <path class="cls-1" d="M93.52,100.67c-1.55,2.65,3.59,10.54,4.39,13.64,2.79,10.91-4.27,18.6-15.22,14.58-7.77-2.85-14.11-8.79-19.46-14.87,1.68,7.77-4.42,16.42-12.72,14.33-7.82-1.97-16.61-12.04-20.14-19.01-1.08-2.13-3.32-9.86-3.89-10.55-.26-.32-5.78-3.12-7.11-4.12-2.29-1.72-4.39-4.03-6.52-5.68-1.94-1.5-3.73-1.05-5.74-3.89-4.02-5.64-2.68-9.73-.06-15.37,5.99-12.92,16.09-29.03,31.24-31.65,8.51-1.47,16.94,2.72,21.83-6.41,4.02-7.51,6.84-22.12,18.67-20.17,9.64,1.59,6.38,12.54,8.66,18.29,2.07,5.23,12.47,6.46,13.01,1.1.12-1.23-4.03-8.77-4.7-11.34-1.48-5.66-2.44-15.18,5.17-16.43,2.24-.37,9.67,2.53,12.15,3.6,1.74.75,4.36,3.17,5.7,3.34,1.53.2,5.91-.68,8.33-.67,1.99,0,3.75.67,5.74.72,3.71.09,7.65-2.49,10.74,2.04,5.48,8.04-4.76,17.76-10.85,22.18-1.45,1.05-3.44,1.48-5.02,2.68-7.68,5.87-6.46,21.66-8.46,30.69-2.32,10.48-9.15,20.16-17.2,27.08-1.51,1.3-8.28,5.44-8.55,5.89ZM56.01,53.22c-7.03.93-16.02,9.43-10.76,16.21,5.39,6.96,11.03-2.38,14.98-4.29,2.35-1.14,9.34-1.73,9.96-3.52,2.19-6.35-9.88-8.95-14.18-8.39ZM63.87,101.82c-3.82-12.5,12.27-17.77,20.55-10.6,3.84,3.32,1.16,6.33,6.99,3.17,6.18-3.35,21.24-17.81,21.25-24.98,0-2.8-2.64-8.32-5.98-6.13-2.97,4.23-18.92,20.5-24.11,17.27-1.43-.89.93-8.05-4.24-8.19-2.64-.07-8.23,5.54-11.56,7-18.13,7.93-31.61-7.73-46.86-6.46-8.12.68-5.69,8.45-1.63,12.57,10.18,10.35,31.41,16.14,45.6,16.34Z"/>
      <path class="cls-1" d="M92.09,24.17c.27.26,2.81,6.77,2.57,7.06-2.87-.84-3.71-3.3-3.85-6.11-.05-1.08.63-1.58,1.28-.95Z"/>
      <path class="cls-2" d="M63.87,101.82c-14.18-.19-35.42-5.99-45.6-16.34-4.06-4.13-6.49-11.9,1.63-12.57,15.25-1.27,28.73,14.39,46.86,6.46,3.33-1.46,8.93-7.07,11.56-7,5.17.13,2.81,7.29,4.24,8.19,5.19,3.23,21.14-13.04,24.11-17.27,3.33-2.19,5.98,3.33,5.98,6.13,0,7.17-15.07,21.63-21.25,24.98-5.82,3.16-3.15.15-6.99-3.17-8.29-7.17-24.37-1.89-20.55,10.6Z"/>
      <path class="cls-2" d="M56.01,53.22c4.29-.57,16.36,2.04,14.18,8.39-.62,1.79-7.61,2.38-9.96,3.52-3.95,1.92-9.59,11.26-14.98,4.29-5.25-6.78,3.73-15.28,10.76-16.21Z"/>
    </g>
  </g>
</svg>