<?xml version="1.0" encoding="UTF-8"?>
<svg id="Layer_2" data-name="Layer 2" xmlns="http://www.w3.org/2000/svg" viewBox="0 0 167.58 100">
  <defs>
    <style>
      .cls-1 {
        fill: #b9b290;
      }

      .cls-2 {
        fill: #8b826c;
      }
    </style>
  </defs>
  <g id="Tile">
    <g>
      <path class="cls-2" d="M76.85.08c18.35-.24,52.62-.48,68.42,7.81,29.67,15.56,31.58,74.69-5.44,87.04-21.01,7.01-94.43,6.9-114.84-1.29C-12.07,78.79-6.38,14.42,31.97,4.33,45.11.86,63.12.26,76.85.08ZM79.79,88.66c2.35-1.83,3.89,4.69,7.28,5.32,9.37,1.75,15.4-2.13,22.58-2.75,11.59-1,16.67,2.26,29.87-3.26,30.96-12.95,30.96-67.07,0-79.65C118.35-.27,47.13-.14,26.36,9.34-8,25.03,2.26,90.9,38.21,90.95c3.49,0,5.55-3.84,7.52-3.5,1.72.3,3.32,4.22,5.76,4.92,3.67,1.05,22.75,2.45,26.07,1.65,1.89-.45,1.83-5.05,2.23-5.36Z"/>
      <path class="cls-1" d="M79.79,88.66c-.4.31-.34,4.91-2.23,5.36-3.32.8-22.4-.6-26.07-1.65-2.44-.7-4.04-4.62-5.76-4.92-1.97-.34-4.04,3.5-7.52,3.5-35.95-.05-46.21-65.92-11.85-81.61C47.13-.14,118.35-.27,139.52,8.33c30.95,12.58,30.96,66.7,0,79.65-13.2,5.52-18.28,2.26-29.87,3.26-7.18.62-13.21,4.5-22.58,2.75-3.38-.63-4.92-7.15-7.28-5.32ZM131.56,12.97h-7.95c-.24,5.58,8.2,5.58,7.95,0ZM158.12,31.54c-3.19-4.86-6.31-12.18-12.56-12.02-3.41.09-8.51,1.16-4.35,4.44,2.45,1.93,14.61,9.4,16.91,7.57ZM154.13,67.42c-1.67-1.57-12.13,6.14-11.94,9.28,7.77,1.49,10.58-2.11,11.94-9.28ZM27.98,83.34c2.68-3.1-3.62-9.28-6.63-6.63-1.54,1.37,5.29,8.17,6.63,6.63ZM127.58,85.98c1.82-2.49-3.65-6.94-9.18-3.19-9.64,6.54,6.93,6.27,9.18,3.19Z"/>
      <path class="cls-2" d="M158.12,31.54c-2.3,1.83-14.46-5.64-16.91-7.57-4.17-3.28.94-4.35,4.35-4.44,6.25-.17,9.37,7.15,12.56,12.02Z"/>
      <path class="cls-2" d="M127.58,85.98c-2.26,3.08-18.82,3.36-9.18-3.19,5.53-3.75,11.01.69,9.18,3.19Z"/>
      <path class="cls-2" d="M154.13,67.42c-1.35,7.17-4.17,10.77-11.94,9.28-.19-3.14,10.27-10.85,11.94-9.28Z"/>
      <path class="cls-2" d="M27.98,83.34c-1.33,1.54-8.17-5.26-6.63-6.63,3-2.66,9.3,3.53,6.63,6.63Z"/>
      <path class="cls-2" d="M131.56,12.97c.24,5.58-8.2,5.58-7.95,0h7.95Z"/>
    </g>
  </g>
</svg>