<?xml version="1.0" encoding="UTF-8"?>
<svg id="Layer_2" data-name="Layer 2" xmlns="http://www.w3.org/2000/svg" viewBox="0 0 1721.61 331.47">
  <defs>
    <style>
      .cls-1 {
        fill: #fff;
      }
    </style>
  </defs>
  <g id="Chat">
    <g>
      <polygon class="cls-1" points="130.4 297.07 91.59 196.99 9.89 160.22 70.14 111.2 38.48 35.63 959.67 4.99 1713.38 74.44 1684.78 321.58 130.4 297.07"/>
      <path d="M129.77,297.98c-10.39-24.74-31.31-74.85-41.55-99.68,0,0,1.88,1.99,1.88,1.99,0,0-82.37-35.28-82.37-35.28l-7.74-3.32,6.58-5.52,59.53-49.91-1.86,7.42L31.66,38.49l-4.24-9.78c157.08-6.98,314.19-13.09,471.33-18.29C631.96,5.63,824.64,2.8,959.89,0c188.27,19.83,376.83,36.76,565.53,51.95l188.64,15.04,7.54.6c-6.01,58.19-14.09,135.08-20.36,193.29-.38,7.29-7.47,65.79-7.7,70.59,0,0-8.92-.09-8.92-.09-517.91-4.28-1037.74-15.3-1554.86-33.39h0ZM131.03,296.17c519.03-1.59,1035.53,3.49,1553.91,15.63,0,0-9.88,8.66-9.88,8.66,6.49-55.03,16.2-130.2,23-185.18,0,0,7.89-61.7,7.89-61.7l6.75,8.31c-183.1-19.18-382.71-40.22-564.91-56.12-61.74-5.55-128.52-10.98-187.94-15.8-223.18,11.2-468.63,21.71-690.75,27.28-76.78,2.12-153.57,4.07-230.36,5.77l6.58-10.26,30.72,75.97,1.82,4.51-3.68,2.91-60.98,48.13-1.16-8.83,81.04,38.25,1.41.66c9.45,25.66,27.28,76.08,36.55,101.81h0Z"/>
    </g>
  </g>
</svg>