<?xml version="1.0" encoding="UTF-8"?>
<svg id="Layer_2" data-name="Layer 2" xmlns="http://www.w3.org/2000/svg" viewBox="0 0 152.31 126.42">
  <defs>
    <style>
      .cls-1 {
        fill: #3c5003;
      }

      .cls-2 {
        fill: #010101;
      }

      .cls-3 {
        fill: #629208;
      }

      .cls-4 {
        fill: #b0d610;
      }

      .cls-5 {
        fill: #f6f5f6;
      }
    </style>
  </defs>
  <g id="Turtle">
    <g>
      <path class="cls-2" d="M144.34,71.06c.05.14,2.05,1.34,2.37,1.92,2.57,4.62-.11,8.99-3.88,11.98-1.85,1.46-9.18,4.52-9.47,4.97-.43.69.03,6.25-.39,8.28-2.79,13.55-31,13.58-32.45-1.32l-3.21.65c1.34,6.4,3.19,13.56-2.55,18.3-8.31,6.86-26.83,6.85-32.46-3.51-3.19-5.87.18-9.94-.29-16.07-1.45,1.12-1.78,3.54-2.92,5.09-6.94,9.44-30.32,8.39-33.22-3.94-1.4-5.92,5.97-13.73,6.61-19.74-9.49-2.48-17.58-6.07-22.71-14.84C-9.49,29.88,25.93-5.93,57.86,16.67c12.39-11.15,29.62-15.93,45.89-11.26,18.63,5.35,30.11,25.75,35,43.3.41,1.47.01,3.1.62,4.52.8,1.87,3.96,4.36,5.1,7.73,1.62,4.79-.87,8.09-.13,10.1ZM79.35,8.32c-4.95,1.22-6.91,2.54-10.91,5.13-2.07,1.34-9.39,5.98-9.63,8.34-4.31-2.62-7.19-5.77-12.19-7.38C18.8,5.43-.11,35.87,14.39,58.84c6.51,10.32,15.24,9.23,24.45,15.32.45,1.89-7.66,15.04-8.15,18.72-.78,5.92,9.38,8.05,13.71,7.88,10.12-.39,13.75-6.49,13.77-16.07,1.19.24,8.6,2.29,8.89,2.66,1.97,2.4-1.46,14.83-1.24,18.19.74,11.05,25.52,9.27,27.51,2.45,1.11-3.83-2.41-16.89-1.79-17.52,2.98.79,11.39-1.84,13.52-.36,1.74,1.2-1.49,6.33,3.59,9.25,4.44,2.56,14.19,2.65,17.87-1.19,3.93-4.09-.26-11.64.58-12.86.45-.65,10.94-4.12,13.89-7.33,5.49-6-2.86-4.65-6.45-7.41.27-.1,4.35-3.43,4.52-3.67,2.08-3.08,1.24-5.59-.4-8.47-2.27-3.99-3.73-3.1-4.76-8.4-.64-3.27-.9-4.5-1.93-7.7-2.27-7.06-6.01-14.68-10.64-20.48-1.65-2.07-6.85-7.76-9.25-7.76-1.15-3.96-6.5-4.23-9.63-5.13-8.54-2.46-14.32-2.8-23.1-.64Z"/>
      <g>
        <path class="cls-5" d="M103.11,110.36c-.72,4.22-1.87,8.23-5.57,10.8-12.5,8.69-37.35,7.47-40.65-10.17-9.89,3.9-25.27,3.86-32.42-5.12-6.99-8.77-1.29-15.72,1.62-24.4C-4.9,74.35-8.79,27.51,17.15,11.9c9.19-5.53,21.14-7.01,31.41-3.91,1.9.57,8.47,4.22,9.2,4.08.61-.12,3.91-3.17,5.11-3.87,33.89-19.88,66.28-1.54,78.11,33.17,1.12,3.28,1.59,8.19,2.72,10.76.95,2.14,3.97,4.96,5,7.83,1.61,4.48.33,6.31.61,9.64.1,1.18,1.62,2.45,2.06,3.73,2.37,6.83.1,11.82-5.27,16.2-1.54,1.26-7.8,4.4-8.04,4.8-.55.9-.5,6.19-1.48,8.79-4.51,12.02-23.73,13.78-33.48,7.26ZM144.34,71.06c-.74-2.01,1.75-5.31.13-10.1-1.14-3.37-4.31-5.86-5.1-7.73-.61-1.42-.2-3.05-.62-4.52-4.89-17.55-16.36-37.95-35-43.3-16.27-4.67-33.51.11-45.89,11.26C25.93-5.93-9.49,29.88,9.77,62.82c5.13,8.77,13.23,12.36,22.71,14.84-.64,6-8.01,13.82-6.61,19.74,2.91,12.33,26.28,13.38,33.22,3.94,1.14-1.55,1.47-3.97,2.92-5.09.47,6.14-2.89,10.21.29,16.07,5.63,10.36,24.15,10.38,32.46,3.51,5.74-4.74,3.89-11.9,2.55-18.3l3.21-.65c1.45,14.91,29.67,14.87,32.45,1.32.42-2.03-.04-7.59.39-8.28.28-.45,7.62-3.51,9.47-4.97,3.78-2.99,6.46-7.36,3.88-11.98-.32-.58-2.32-1.77-2.37-1.92Z"/>
        <g>
          <path class="cls-4" d="M58.81,21.79c-.19,1.92,3.7,6.67,4.49,8.99.72,2.08,1.15,5.44,1.28,7.7.28,4.64-1.44,8.99,1.01,12.79,8.25,12.83,28.3,20.2,42.96,21.22,5.89.41,20.64.02,25.99-1.92,3.59,2.75,11.93,1.41,6.45,7.41-2.94,3.21-13.43,6.69-13.89,7.33-.84,1.21,3.34,8.77-.58,12.86-3.68,3.84-13.43,3.74-17.87,1.19-5.07-2.92-1.85-8.05-3.59-9.25-2.13-1.48-10.54,1.15-13.52.36-.62.63,2.91,13.69,1.79,17.52-1.99,6.82-26.77,8.61-27.51-2.45-.22-3.36,3.2-15.79,1.24-18.19-.3-.36-7.71-2.41-8.89-2.66-.02,9.58-3.65,15.68-13.77,16.07-4.33.17-14.49-1.95-13.71-7.88.49-3.68,8.6-16.83,8.15-18.72-9.21-6.09-17.94-5-24.45-15.32C-.11,35.87,18.8,5.43,46.62,14.41c5,1.61,7.88,4.76,12.19,7.38ZM17.92,46.64c8.96,7.67,14.12-15.42,1.04-11.73-3.69,1.04-3.89,9.29-1.04,11.73ZM39.78,36.77c-6.24,5.95,1.35,16.36,8.74,11.63s-.83-19.17-8.74-11.63ZM24.16,51.96c.52,5.76,6.86,8.49,11.52,4.78,1.66-1.32,4.2-5.28.48-4.68-1.87.3-2.86,2.78-5.85,2.46-2.26-.24-3.68-2.99-6.15-2.56Z"/>
          <path class="cls-1" d="M79.35,8.32c-.1,1.13-.07,2.51.9,3.27,1.12.88,14.45.84,16.69.52,2.63-.38,3.58-1.63,5.51-3.15,3.12.9,8.48,1.17,9.63,5.13-10.65.02-2.97,9.01-.99,13.5,2.32,5.26,4.51,15.15,7.11,19.2,5.04,7.84,12.12,2.74,13.77-4.46,1.03,3.2,1.29,4.43,1.93,7.7-9.75,13.48-24.29,15.16-38.52,7.39-10.57-5.76-18.62-16.82-30.79-18.95-.14-2.26-.57-5.62-1.28-7.7,1.28-.24,2.31-.87,3.21-1.79,1.66-1.69,8.67-13.92,7.06-15.54h-5.14c4-2.59,5.96-3.91,10.91-5.13ZM86.24,17.45c-6.15,1.14-13.19,8.99-9.22,15.34,1.57,2.52,17.44,14.54,20.75,16.47,14.28,8.35,12.61-5.54,9.2-14.97s-9.65-18.9-20.72-16.84Z"/>
          <path class="cls-3" d="M133.9,50.03c1.03,5.3,2.49,4.41,4.76,8.4,1.64,2.88,2.48,5.39.4,8.47-.16.24-4.24,3.57-4.52,3.67-5.34,1.94-20.09,2.33-25.99,1.92-14.66-1.02-34.71-8.39-42.96-21.22-2.44-3.8-.73-8.15-1.01-12.79,12.17,2.12,20.23,13.18,30.79,18.95,14.23,7.76,28.77,6.08,38.52-7.39Z"/>
          <path class="cls-3" d="M112.08,14.09c2.4,0,7.6,5.69,9.25,7.76,4.64,5.8,8.38,13.43,10.64,20.48-1.65,7.2-8.73,12.3-13.77,4.46-2.6-4.05-4.79-13.94-7.11-19.2-1.98-4.49-9.66-13.48.99-13.5Z"/>
          <path class="cls-3" d="M68.44,13.45h5.14c1.61,1.62-5.4,13.85-7.06,15.54-.9.92-1.93,1.55-3.21,1.79-.8-2.31-4.69-7.06-4.49-8.99.24-2.37,7.56-7,9.63-8.34Z"/>
          <path class="cls-3" d="M102.46,8.96c-1.93,1.52-2.88,2.77-5.51,3.15-2.24.32-15.57.36-16.69-.52-.97-.76-1-2.15-.9-3.27,8.78-2.16,14.57-1.82,23.1.64Z"/>
          <path class="cls-1" d="M39.78,36.77c7.91-7.54,16.21,6.85,8.74,11.63s-14.98-5.68-8.74-11.63Z"/>
          <path class="cls-1" d="M17.92,46.64c-2.85-2.44-2.65-10.69,1.04-11.73,13.07-3.69,7.92,19.4-1.04,11.73Z"/>
          <path class="cls-1" d="M24.16,51.96c2.47-.43,3.89,2.33,6.15,2.56,2.99.31,3.98-2.17,5.85-2.46,3.73-.59,1.19,3.36-.48,4.68-4.66,3.7-11,.97-11.52-4.78Z"/>
          <path class="cls-3" d="M86.24,17.45c11.07-2.06,17.44,7.77,20.72,16.84s5.09,23.32-9.2,14.97c-3.31-1.93-19.18-13.95-20.75-16.47-3.96-6.35,3.07-14.2,9.22-15.34Z"/>
        </g>
      </g>
    </g>
  </g>
</svg>