<?xml version="1.0" encoding="UTF-8"?>
<svg id="Layer_2" data-name="Layer 2" xmlns="http://www.w3.org/2000/svg" viewBox="0 0 145.9 152.81">
  <defs>
    <style>
      .cls-1 {
        fill: #010101;
      }

      .cls-2 {
        fill: #f6f6f6;
      }

      .cls-3 {
        fill: #fcadc3;
      }

      .cls-4 {
        fill: #d4719a;
      }
    </style>
  </defs>
  <g id="Worm">
    <g>
      <path class="cls-2" d="M48.09,105.08c8.17,8.92,27.48,7.38,33.07-4.67,4.64-10.02.04-20.22,3.8-30.86,5.16-14.63,17.34-20.07,32.23-16.56,2.62.62,6.37,2.77,8.67,2.94,3,.21,5.9-2.02,9.42-1.82,4.61.26,8.57,2.96,9.96,7.42,4.68,15.04-16.09,21.18-27.41,20.67,2.95,24.55-2.62,48.8-25.24,61.73-20.22,11.55-49.38,12.72-68.41-1.77-13.8-10.5-18.5-24.89-23.35-40.83-2.62-8.61,1.47-33.45,6.97-40.9,1.09-1.48,2.8-2.13,3.51-3.08.67-.9,2.67-6.54,2.58-7.55-.08-.84-6.42-6.05-7.72-7.72C-6.71,25.58,3.46,1.38,24.44.06c30.18-1.9,36.13,39.15,31.21,61.37-.99,4.47-1.05,4.29-1.38,8.89-.54,7.68-7.13,13.07-7.64,21.28-.13,2.13.59,3.44.58,5.04-.01,3.09-2.04,5.26.87,8.44ZM112.68,75.78c8.02,2.1,27.79-1.33,28.75-11.38.22-2.27-1.32-4.98-3.27-6.07-4.02-2.26-5.96.26-9.83.7-6.85.78-10.3-3.15-16.63-3.77-10.41-1.02-18.34,4.27-21.98,13.95-4.54,12.04,1.4,22.03-5.59,34.2-6.34,11.05-20.52,12.62-31.79,8.64-3.52-1.24-10.99-7.24-11.4-11-.16-1.46,1.5-3.67,1.63-5.19.31-3.59-.74-5.92.33-10.57,1.22-5.29,6.24-11.28,6.75-15.13.27-2.06-.67-3.52-.5-5.52.22-2.5,2.31-6.43,2.9-9.35C55.63,37.57,48.57.91,24.5,3.33,4.45,5.35-1.39,29.08,13.53,41.75c3.23,2.75,5.96,1.84,5.44,6.75-.19,1.8-2.87,9.41-3.8,10.8-.49.74-1.96.83-2.9,1.75-4.85,4.76-8.34,26.8-8.03,33.57.1,2.21,6.39,20.17,7.65,23.21,13.17,31.59,53.59,36.5,80.43,19.43,21.41-13.62,23.72-38.19,20.34-61.49Z"/>
      <path class="cls-1" d="M112.68,75.78c3.38,23.3,1.07,47.87-20.34,61.49-26.84,17.07-67.26,12.15-80.43-19.43-1.27-3.04-7.55-21-7.65-23.21-.31-6.77,3.18-28.8,8.03-33.57.94-.93,2.41-1.02,2.9-1.75.93-1.4,3.61-9,3.8-10.8.52-4.91-2.21-4-5.44-6.75C-1.39,29.08,4.45,5.35,24.5,3.33c24.08-2.42,31.13,34.24,27.57,51.95-.59,2.92-2.68,6.85-2.9,9.35-.18,2.01.77,3.46.5,5.52-.51,3.85-5.53,9.84-6.75,15.13-1.07,4.65-.02,6.98-.33,10.57-.13,1.52-1.79,3.74-1.63,5.19.41,3.75,7.88,9.75,11.4,11,11.27,3.99,25.44,2.42,31.79-8.64,6.99-12.18,1.05-22.17,5.59-34.2,3.65-9.67,11.57-14.97,21.98-13.95,6.33.62,9.78,4.56,16.63,3.77,3.86-.44,5.81-2.96,9.83-.7,1.94,1.09,3.48,3.8,3.27,6.07-.96,10.05-20.73,13.48-28.75,11.38ZM24.11,48.19c-.26,1.06-1.43,3.71-1.93,5.13-.75,2.17-3.47,6.15-3.21,8.34-1.4-.21-1.99.42-2.92,1.25-4.11,3.67-6.7,23.45-6.7,29.23,0,3.07,1.33,4.69,3.21,6.74.12,4.98,2.02,9.62,3.85,14.12,1.18,2.9,1.44,3.63,3.21,6.42,4.58,7.23,9.1,11.41,16.69,15.4,3.75,1.97,5.24,2.92,9.63,3.85,10.8,2.28,20.39,1.35,30.81-1.93,3.42-1.08,4.04-.54,7.06-3.21,6.17-.98,17.87-10.75,18.61-16.69,2.42-.43,3.27-5.64,3.85-7.7,2.96-10.51,2.51-16.31,1.93-26.96-.09-1.62-.61-3.49-.64-4.49-.13-3.95-.42-6.44,3.21-8.34.53-.28,2.89-1.29,3.21-1.28.78,0,2.92,1.2,4.79,1.31,4.06.25,15.44-2.06,17.19-5.97,2.4-5.36-5.3-1.44-7.6-1.19-8.01.9-12.86-4.62-22.07-3.78-1.34.12-3.62.58-4.71,1.26-.6.37-.36,1.27-.42,1.31-6.5,4.81-8.14,8.94-8.34,17.33-.05,2.05.62,4.09.64,5.13.09,4.95-.84,11.39-2.57,16.05-.3.82-1.38,2.18-1.93,3.21-2.55,4.85-4.98,7.29-8.99,10.91-2.37-.28-3.42,1.61-4.49,1.93-5.31,1.56-11.27,2.08-16.69,1.28-1.41-.21-4.4-.87-5.78-1.28-4.94-1.47-9.53-4.39-12.84-8.34-.71-.85-2.78-3.65-3.21-4.49-.49-.97-1.27-2.83-1.28-3.85-.03-1.66,1.13-2.45,1.25-3.57.52-5.03-.37-8.3,1.14-13.62,1.22-4.29,5.87-10.63,6.48-13.44s-.95-2.81-1.17-3.39c-.14-.35,1.6-5.92,1.93-7.06.88-3.1,1.46-4.14,1.93-7.7,1.51-11.64-.11-26.86-7.44-36.53C26.55-3.85,1.23,13.4,13.04,31.98c4.12,6.49,13.44,6.46,11.07,16.21Z"/>
      <path class="cls-3" d="M47.22,50.11c-6.93,7.58-17.51,6.58-23.1-1.93,2.37-9.75-6.94-9.72-11.07-16.21C1.23,13.4,26.55-3.85,39.78,13.58c7.33,9.66,8.95,24.89,7.44,36.53ZM22.89,17.55c0-2.21-1.79-4.01-4.01-4.01s-4.01,1.79-4.01,4.01,1.79,4.01,4.01,4.01,4.01-1.79,4.01-4.01ZM31.64,13.64c-5.2,1.07-4.09,9.18,1.08,8.86s5.09-10.13-1.08-8.86ZM22.37,25.53c-.59-.47-1.32-3.3-2.76-2.04,1.13,6.87,9.53,7.88,10.27.32-.88-.99-3.66,4.81-7.52,1.73Z"/>
      <path class="cls-4" d="M18.98,61.66c.45,3.83,7.94,6.66,11.3,6.99,5.36.53,8.6-1.53,13.09-3.78.22.58,1.81.47,1.17,3.39s-5.27,9.15-6.48,13.44c-1.51,5.32-.62,8.6-1.14,13.62-.12,1.12-1.28,1.9-1.25,3.57-7.21,5.02-16.58,7.17-23.1,0-1.87-2.05-3.21-3.67-3.21-6.74,0-5.78,2.59-25.57,6.7-29.23.93-.83,1.52-1.46,2.92-1.25Z"/>
      <path class="cls-3" d="M75.46,115.58c7.77,5.09,6.47,14.67,1.28,21.18-10.42,3.28-20.01,4.21-30.81,1.93l7.84-5.13c4.21-4.45,7.04-10.46,5-16.69,5.42.79,11.38.27,16.69-1.28Z"/>
      <path class="cls-3" d="M52.99,115.58c1.77,10.14-6.81,19.16-16.69,19.25-7.58-3.99-12.1-8.18-16.69-15.4,9.34,2.65,18.57-2.71,20.54-12.19,3.31,3.95,7.9,6.87,12.84,8.34Z"/>
      <path class="cls-3" d="M102.41,116.86c-.74,5.93-12.44,15.71-18.61,16.69,3.49-3.08,3.84-7.1,3.05-11.72-.44-2.58-4.3-7.87-6.91-8.18,4-3.62,6.43-6.06,8.99-10.91,9.18-1.34,14.59,5.25,13.48,14.12Z"/>
      <path class="cls-3" d="M108.19,82.2c.59,10.64,1.04,16.45-1.93,26.96-1.68-2.22-1.55-4.72-3.57-7.02-3.35-3.81-7.2-3.77-11.83-2.61,1.73-4.66,2.65-11.09,2.57-16.05,4.3-3.5,9.81-3.11,14.76-1.28Z"/>
      <path class="cls-3" d="M12.56,98.89c6.53,7.17,15.89,5.02,23.1,0,.02,1.02.79,2.89,1.28,3.85-1.07,8.73-13.04,13.56-20.54,10.27-1.83-4.5-3.73-9.14-3.85-14.12Z"/>
      <path class="cls-3" d="M101.13,61.02c5.12-.07,8.94,3.32,9.63,8.34-3.62,1.9-3.34,4.39-3.21,8.34-5.53-2.6-9.57-2.72-14.76.64.21-8.38,1.85-12.52,8.34-17.33Z"/>
      <path class="cls-3" d="M22.19,53.32c2.11-.4.97,1.76,1.61,3.19,2.68,5.96,17.23,6.88,21.49,1.3-.32,1.14-2.06,6.71-1.93,7.06-4.49,2.25-7.73,4.31-13.09,3.78-3.36-.33-10.85-3.16-11.3-6.99-.26-2.19,2.45-6.18,3.21-8.34Z"/>
      <path class="cls-4" d="M58.77,116.86c2.05,6.23-.79,12.24-5,16.69l-7.84,5.13c-4.39-.93-5.88-1.88-9.63-3.85,9.88-.09,18.46-9.11,16.69-19.25,1.38.41,4.37,1.08,5.78,1.28Z"/>
      <path class="cls-3" d="M113.96,68.08c.45-2.85-.7-5.88-3.26-7.33-1.63-.92-4.62-.29-4.44-2.3,9.21-.84,14.06,4.68,22.07,3.78,2.3-.26,10-4.17,7.6,1.19-1.75,3.91-13.13,6.22-17.19,5.97-1.87-.12-4.01-1.3-4.79-1.31Z"/>
      <path class="cls-4" d="M47.22,50.11c-.46,3.56-1.04,4.61-1.93,7.7-4.26,5.58-18.81,4.66-21.49-1.3-.64-1.43.5-3.59-1.61-3.19.5-1.42,1.67-4.08,1.93-5.13,5.6,8.51,16.17,9.5,23.1,1.93Z"/>
      <path class="cls-4" d="M40.16,107.23c-1.97,9.48-11.2,14.85-20.54,12.19-1.77-2.78-2.03-3.52-3.21-6.42,7.5,3.29,19.46-1.54,20.54-10.27.43.84,2.5,3.65,3.21,4.49Z"/>
      <path class="cls-4" d="M79.95,113.65c2.61.31,6.47,5.59,6.91,8.18.79,4.62.43,8.64-3.05,11.72-3.02,2.67-3.64,2.13-7.06,3.21,5.18-6.51,6.49-16.09-1.28-21.18,1.08-.32,2.12-2.21,4.49-1.93Z"/>
      <path class="cls-4" d="M106.26,109.16c-.58,2.06-1.43,7.27-3.85,7.7,1.11-8.87-4.29-15.46-13.48-14.12.54-1.03,1.62-2.39,1.93-3.21,4.64-1.16,8.49-1.2,11.83,2.61,2.02,2.3,1.89,4.8,3.57,7.02Z"/>
      <path class="cls-4" d="M107.55,77.71c.03,1,.55,2.87.64,4.49-4.95-1.83-10.46-2.21-14.76,1.28-.02-1.04-.69-3.08-.64-5.13,5.19-3.36,9.23-3.24,14.76-.64Z"/>
      <path class="cls-4" d="M106.26,58.45c-.17,2.01,2.81,1.38,4.44,2.3,2.56,1.44,3.71,4.48,3.26,7.33-.31,0-2.68,1-3.21,1.28-.69-5.03-4.5-8.42-9.63-8.34.06-.04-.18-.94.42-1.31,1.09-.68,3.37-1.13,4.71-1.26Z"/>
      <path class="cls-1" d="M31.64,13.64c6.17-1.27,6.18,8.55,1.08,8.86s-6.28-7.79-1.08-8.86Z"/>
      <circle class="cls-1" cx="18.89" cy="17.55" r="4.01"/>
      <path class="cls-1" d="M22.37,25.53c3.86,3.08,6.63-2.72,7.52-1.73-.74,7.56-9.14,6.55-10.27-.32,1.44-1.25,2.17,1.58,2.76,2.04Z"/>
    </g>
  </g>
</svg>